<svg xmlns="http://www.w3.org/2000/svg" viewBox="0 0 615.78 378.17"><defs><style>.cls-1{fill:#ff2855;}.cls-2{fill:#ffcb05;}</style></defs><title>logo-marina</title><g id="Camada_2" data-name="Camada 2"><g id="Camada_1-2" data-name="Camada 1"><path class="cls-1" d="M366.58,181.26h-.41l-17.61,12.22c-1,.83-2.28.41-2.28-1.24V169.87a3.57,3.57,0,0,1,1.87-3.32l18.22-13.46a5.66,5.66,0,0,1,3.53-1.25h20.5a2,2,0,0,1,2.08,2.08V290.63a2,2,0,0,1-2.08,2.07H368.65a2,2,0,0,1-2.07-2.07Z"/><path class="cls-1" d="M407.39,251.69c0-10.57.41-14.71,1.86-19.27A24.92,24.92,0,0,1,419,219.17v-.42c-4.56-2.9-7.87-7.66-9.74-13.46-1.45-4.14-1.86-8.49-1.86-15.74,0-9.53.62-14.3,1.86-18.44C413.6,157.64,424.79,150,442,150s28.38,7.66,32.73,21.13c1.25,4.14,1.87,8.91,1.87,18.44,0,7.25-.62,11.6-1.87,15.74-1.86,5.8-5,10.56-9.73,13.46v.42a23.89,23.89,0,0,1,9.73,13.25c1.45,4.56,1.87,8.7,1.87,19.27,0,13.05-.62,17.61-1.87,21.75-4.35,13.46-15.53,21.13-32.73,21.13s-28.38-7.67-32.73-21.13c-1.24-4.14-1.86-8.7-1.86-21.75m42.47-49.09c.62-1.87.82-4.35.82-12.23s-.2-10.15-.82-12c-1.25-3.73-3.73-5.59-7.88-5.59s-6.63,1.86-7.87,5.59c-.62,1.86-.83,4.14-.83,12s.21,10.36.83,12.23c1.24,3.72,3.73,5.59,7.87,5.59s6.63-1.87,7.88-5.59M442,271.78a7.69,7.69,0,0,0,7.88-5.59c.62-1.87.82-3.73.82-14.92s-.2-12.84-.82-14.7a8.34,8.34,0,0,0-15.75,0c-.62,1.86-.83,3.52-.83,14.7s.21,13,.83,14.92a7.68,7.68,0,0,0,7.87,5.59"/><path class="cls-1" d="M509.93,181.26h-.42l-17.6,12.22c-1,.83-2.28.41-2.28-1.24V169.87a3.56,3.56,0,0,1,1.86-3.32l18.23-13.46a5.61,5.61,0,0,1,3.52-1.25h20.51a2,2,0,0,1,2.07,2.08V290.63a2,2,0,0,1-2.07,2.07H512a2,2,0,0,1-2.07-2.07Z"/><path class="cls-1" d="M546.59,251.69c0-10.57.42-14.71,1.87-19.27a24.85,24.85,0,0,1,9.73-13.25v-.42c-4.56-2.9-7.87-7.66-9.73-13.46-1.45-4.14-1.87-8.49-1.87-15.74,0-9.53.62-14.3,1.87-18.44C552.81,157.64,564,150,581.19,150s28.38,7.66,32.73,21.13c1.24,4.14,1.86,8.91,1.86,18.44,0,7.25-.62,11.6-1.86,15.74-1.87,5.8-5,10.56-9.74,13.46v.42a23.91,23.91,0,0,1,9.74,13.25c1.45,4.56,1.86,8.7,1.86,19.27,0,13.05-.62,17.61-1.86,21.75-4.35,13.46-15.54,21.13-32.73,21.13s-28.38-7.67-32.73-21.13c-1.25-4.14-1.87-8.7-1.87-21.75m42.47-49.09c.62-1.87.82-4.35.82-12.23s-.2-10.15-.82-12c-1.25-3.73-3.73-5.59-7.87-5.59s-6.63,1.86-7.88,5.59c-.62,1.86-.82,4.14-.82,12s.2,10.36.82,12.23c1.25,3.72,3.73,5.59,7.88,5.59s6.62-1.87,7.87-5.59m-7.87,69.18a7.69,7.69,0,0,0,7.87-5.59c.62-1.87.82-3.73.82-14.92s-.2-12.84-.82-14.7a8.34,8.34,0,0,0-15.75,0c-.62,1.86-.82,3.52-.82,14.7s.2,13,.82,14.92a7.69,7.69,0,0,0,7.88,5.59"/><path class="cls-2" d="M2,137.83H21.69a1.92,1.92,0,0,0,2-2V56.15h1.21l15,55.13a2.63,2.63,0,0,0,2.64,2H53.71a2.63,2.63,0,0,0,2.64-2l15-55.13h1.22v79.66a1.91,1.91,0,0,0,2,2H94.25a1.91,1.91,0,0,0,2-2V2a1.92,1.92,0,0,0-2-2H72.57c-1.83,0-2.84.61-3.25,2L49.05,74.39h-.81L27.16,2c-.4-1.42-1.42-2-3.24-2H2A1.92,1.92,0,0,0,0,2V135.81a1.91,1.91,0,0,0,2,2"/><path class="cls-2" d="M105,137.83H127.5a2.09,2.09,0,0,0,2.23-2l4.66-24.93h26.15L165,135.81a2.09,2.09,0,0,0,2.23,2h22.5a1.55,1.55,0,0,0,1.63-2L161.75,2a2.21,2.21,0,0,0-2.23-2H135.6c-1.21,0-1.82.81-2.23,2l-30,133.78a1.55,1.55,0,0,0,1.62,2M147.36,42H148l8.71,47.83H138.24Z"/><path class="cls-2" d="M200.47,137.83H223a1.92,1.92,0,0,0,2-2V85.13a1.07,1.07,0,0,1,1.21-1.21h7.7l15.61,52.29a2,2,0,0,0,2.23,1.62h24.33c1,0,1.41-1,1-2L258.24,77.43c9.52-6.49,15.4-17.84,15.4-35.27C273.64,11.55,257.83,0,233.31,0H200.47a1.92,1.92,0,0,0-2,2V135.81a1.91,1.91,0,0,0,2,2M225,24.53a1.07,1.07,0,0,1,1.21-1.22h5.88c10.34,0,14.8,4.46,14.8,18.85,0,14.6-4.46,18.85-14.8,18.85h-5.88A1.07,1.07,0,0,1,225,59.8Z"/><path class="cls-2" d="M288.44,137.83h22.5a1.91,1.91,0,0,0,2-2V2a1.91,1.91,0,0,0-2-2h-22.5a1.92,1.92,0,0,0-2,2V135.81a1.91,1.91,0,0,0,2,2"/><path class="cls-2" d="M329.59,137.83h19.25a1.91,1.91,0,0,0,2-2V49.26h1l23.92,86.55a2.53,2.53,0,0,0,2.84,2H403a1.91,1.91,0,0,0,2-2V2a1.92,1.92,0,0,0-2-2H383.71a1.92,1.92,0,0,0-2,2V88.58h-1L357.76,2a2.53,2.53,0,0,0-2.84-2H329.59a1.92,1.92,0,0,0-2,2V135.81a1.91,1.91,0,0,0,2,2"/><path class="cls-2" d="M500.06,135.81,470.46,2a2.21,2.21,0,0,0-2.23-2H444.32c-1.22,0-1.83.81-2.24,2l-30,133.78a1.54,1.54,0,0,0,1.62,2h22.5a2.09,2.09,0,0,0,2.23-2l4.66-24.94h26.15l4.46,24.94a2.08,2.08,0,0,0,2.23,2h22.5a1.55,1.55,0,0,0,1.62-2M447,89.79,456.07,42h.61l8.72,47.83Z"/><path class="cls-2" d="M37.3,294.53c27.36,0,38.1-14.6,38.1-42.77,0-23.31-7.29-33.45-26.14-40.74L41,207.77c-10.75-4.25-13-7.5-13-17.83,0-9.33,3.45-13.79,10.54-13.79,7.3,0,10.75,5.07,11,15,0,1.22,1,1.83,2.23,1.62l20.67-3.24a2,2,0,0,0,1.83-2.23c-1-21.69-12.37-34.25-36.49-34.25-24.53,0-36.48,13.37-36.48,38.31,0,22.09,6.69,32.43,26.15,39.93l8.3,3.24C46,238.58,48.45,242.84,48.45,255c0,12.57-3.45,16.42-11,16.42-7.91,0-11.55-5.07-12-17.84,0-1.21-.81-1.82-2.23-1.62L1.62,255.41c-1.21.2-1.62,1-1.62,2.23.41,23.71,12.36,36.89,37.3,36.89"/><path class="cls-2" d="M87.77,154.87h22.5a2,2,0,0,1,2,2V290.68a2,2,0,0,1-2,2H87.77a2,2,0,0,1-2-2V156.9A2,2,0,0,1,87.77,154.87Z"/><path class="cls-2" d="M151.41,154.87h-22.5a1.91,1.91,0,0,0-2,2V290.68a1.91,1.91,0,0,0,2,2h60.61a1.91,1.91,0,0,0,2-2V270.81a1.91,1.91,0,0,0-2-2H154.65a1.07,1.07,0,0,1-1.21-1.22V156.9a1.92,1.92,0,0,0-2-2"/><path class="cls-2" d="M209.79,292.7h21.89c1.22,0,1.83-.81,2-2L261.28,156.9c.4-1.22-.21-2-1.62-2h-22.5a2.07,2.07,0,0,0-2.23,2l-13.38,87.16h-.61L207,156.9a2.07,2.07,0,0,0-2.22-2H181.82c-1.42,0-2,.81-1.62,2l27.36,133.78c.41,1.21,1,2,2.23,2"/><path class="cls-2" d="M313,265.75l4.47,24.93a2.08,2.08,0,0,0,2.22,2h22.5a1.54,1.54,0,0,0,1.62-2L314.18,156.9a2.21,2.21,0,0,0-2.23-2H288c-1.21,0-1.82.81-2.23,2l-30,133.78a1.54,1.54,0,0,0,1.62,2h22.5a2.08,2.08,0,0,0,2.22-2l4.67-24.93Zm-13.17-68.92h.61l8.71,47.83H290.67Z"/><path class="cls-2" d="M34.18,357.32A14.53,14.53,0,0,1,32,361.56,2.83,2.83,0,0,1,30,362.77c-.88,0-1.31-.53-1.31-1.59a5.52,5.52,0,0,1,.34-1.86l13.54-49a40.51,40.51,0,0,1-7.5,2.07,53.78,53.78,0,0,1-8.66.76L26,314.57a7.76,7.76,0,0,1,3.63.62,2.17,2.17,0,0,1,1.07,2,7.84,7.84,0,0,1-.35,1.93l-3.1,11.74c-.65-1.56-2.05-2.35-4.22-2.35a17.62,17.62,0,0,0-11.94,4.59A31.51,31.51,0,0,0,2.9,344.3,30.58,30.58,0,0,0,0,356.49q0,4.83,2.28,7.25a7.8,7.8,0,0,0,5.94,2.42,10,10,0,0,0,7-2.7q2.94-2.68,5.56-8.56l-.07.28a18.38,18.38,0,0,0-.82,4.9,7.08,7.08,0,0,0,.55,2.9q1.17,3.18,5.45,3.18a9.8,9.8,0,0,0,5.43-1.59A9.79,9.79,0,0,0,35,359l1.66-5H35.35ZM23.27,345.58a56.09,56.09,0,0,1-3.69,9.18,28.53,28.53,0,0,1-3.91,5.91c-1.24,1.35-2.32,2-3.24,2a1.75,1.75,0,0,1-1.69-1.17,9.28,9.28,0,0,1-.52-3.59,40,40,0,0,1,2.18-12.85,37.47,37.47,0,0,1,5.38-10.73Q21,330.11,24,330.11c1.33,0,2.26.81,2.76,2.42Z"/><path class="cls-2" d="M64,356.9l-1.1-.55a17.5,17.5,0,0,1-5.25,4.32A11.13,11.13,0,0,1,52.82,362a5,5,0,0,1-4-1.52q-1.34-1.51-1.34-5.18a27.52,27.52,0,0,1,.41-4.69A51.62,51.62,0,0,0,62.84,344q6.42-4.28,6.42-10a4.66,4.66,0,0,0-2-4,8.74,8.74,0,0,0-5.18-1.42,20.42,20.42,0,0,0-12.57,4.32,30.85,30.85,0,0,0-9,10.87,28.13,28.13,0,0,0-3.31,12.71,8.85,8.85,0,0,0,3,7.18,11.72,11.72,0,0,0,7.8,2.56,16.9,16.9,0,0,0,9.36-2.7A21.84,21.84,0,0,0,64,356.9M51.31,340A29.85,29.85,0,0,1,56,332.67q2.55-2.84,4.56-2.84a.91.91,0,0,1,.83.49,4.06,4.06,0,0,1,.27,1.79A15.39,15.39,0,0,1,60.08,339a19,19,0,0,1-4.35,5.7,27.4,27.4,0,0,1-7.6,4.63A42.7,42.7,0,0,1,51.31,340"/><path class="cls-2" d="M96.19,328.52A8.73,8.73,0,0,0,90.25,331,24.32,24.32,0,0,0,85,338.88l5.94-21.06a43.71,43.71,0,0,1-10.29,1.93l-.2.83a67.74,67.74,0,0,1-4,8.67,44.78,44.78,0,0,1-4,6q-2,2.46-5,5.77l.75.9a63.44,63.44,0,0,0,6.08-7.08,43.18,43.18,0,0,0,4.42-7.7L66.08,372a6.66,6.66,0,0,1-1.79,3.38,5.71,5.71,0,0,1-3.59.9l-.42,1.45q7.45-.29,9.74-.28c1.52,0,4.62.07,9.32.21l1.59.07.41-1.45a10.9,10.9,0,0,1-4.35-.76,2.66,2.66,0,0,1-1.38-2.63,9.09,9.09,0,0,1,.42-2.48l1.86-6.63a6,6,0,0,0,2.63,1.79,10,10,0,0,0,3.58.63A15.55,15.55,0,0,0,95,361.81a28.91,28.91,0,0,0,7.22-10.67,32.42,32.42,0,0,0,2.52-12c0-3.46-.72-6.09-2.17-7.91a7.68,7.68,0,0,0-6.39-2.73m-3.45,21.1a34.89,34.89,0,0,1-5,10.35q-3.08,4.18-6.32,4.18a4,4,0,0,1-3.17-1.59l4.62-16.22a48.42,48.42,0,0,1,4.84-10.15c1.74-2.67,3.31-4,4.69-4a1.84,1.84,0,0,1,1.69,1.24,11.78,11.78,0,0,1,.59,4.49,39.19,39.19,0,0,1-1.93,11.71"/><path class="cls-2" d="M143.21,328.52a55.22,55.22,0,0,1-10,1l-1,3.86a123.11,123.11,0,0,1-5.07,14.47,61.2,61.2,0,0,1-5.7,10.81c-1.89,2.72-3.52,4.07-4.9,4.07-.88,0-1.31-.53-1.31-1.59a9.91,9.91,0,0,1,.62-3L122,339.5a18.07,18.07,0,0,0,1-5.25c0-3.82-2.1-5.73-6.28-5.73q-6.78,0-9.26,7.11l-1.72,5H107l1.24-3.31a13.22,13.22,0,0,1,2.18-4.28,3,3,0,0,1,2.17-1.17c.88,0,1.31.48,1.31,1.44a6.91,6.91,0,0,1-.41,2l-6.7,20.37a14.84,14.84,0,0,0-.9,4.76,5.46,5.46,0,0,0,1.56,4.21,6.59,6.59,0,0,0,4.66,1.45,11.17,11.17,0,0,0,5.73-1.48,16.57,16.57,0,0,0,5-5.14,58.67,58.67,0,0,0,5.18-10.15l-1.86,7.11a20.27,20.27,0,0,0-.69,4.49,6.17,6.17,0,0,0,.62,2.83,4.14,4.14,0,0,0,1.93,1.72,7.27,7.27,0,0,0,3.18.62,9.64,9.64,0,0,0,5.49-1.65,10.49,10.49,0,0,0,3.76-5.46l1.86-5.25h-1.31l-1.31,3.53a14.16,14.16,0,0,1-2.07,4.21,3,3,0,0,1-2.35,1.24,1,1,0,0,1-1.17-1.17,8.66,8.66,0,0,1,.41-2.28Z"/><path class="cls-2" d="M161.16,356.83a12.86,12.86,0,0,1-2.52,4.46,4.07,4.07,0,0,1-2.93,1.48,2.11,2.11,0,0,1-1.52-.52,2,2,0,0,1-.55-1.55,4.72,4.72,0,0,1,.21-1.38l8.21-28.45h8l.21-1.38h-7.8l3.24-11.26a51,51,0,0,1-10,1l-3,10.29h-6.28l-.35,1.38h6.21l-7,24.31a14.9,14.9,0,0,0-.62,4.14,6.94,6.94,0,0,0,1.76,5,7,7,0,0,0,5.28,1.83q7.66,0,10.36-8.15l1.38-4H162.2Z"/><path class="cls-2" d="M197.07,357.32q-1.86,5.44-4.28,5.45c-.87,0-1.31-.5-1.31-1.52a7.12,7.12,0,0,1,.34-1.93l9.05-30.8a50.55,50.55,0,0,1-10,1l-1,3.38a5.11,5.11,0,0,0-1.35-3.31,4.12,4.12,0,0,0-3-1.11q-4.83,0-9.88,4.63a36.88,36.88,0,0,0-8.31,11.5,30.25,30.25,0,0,0-3.29,13,9.17,9.17,0,0,0,2,6.25,7.27,7.27,0,0,0,5.77,2.25,9.92,9.92,0,0,0,6.32-2.28,19.84,19.84,0,0,0,5.21-7.39,15.87,15.87,0,0,0-.62,4.07,5.43,5.43,0,0,0,1,3.45q1.51,2.14,5.11,2.15a9.44,9.44,0,0,0,5.28-1.63A10.55,10.55,0,0,0,197.9,359l1.73-5h-1.31Zm-7.94-21.69-3,10.85.35-1.66a55.18,55.18,0,0,1-3.21,9.42,25.83,25.83,0,0,1-3.66,6.08c-1.22,1.4-2.34,2.11-3.35,2.11a1.55,1.55,0,0,1-1.49-1,8.68,8.68,0,0,1-.45-3.28,39.17,39.17,0,0,1,2.11-12.3,39.65,39.65,0,0,1,5.11-10.56c2-2.81,3.79-4.21,5.35-4.21a2,2,0,0,1,1.76.89,4.85,4.85,0,0,1,.59,2.63,5.29,5.29,0,0,1-.07,1"/><path class="cls-2" d="M234.36,357.32a14.53,14.53,0,0,1-2.14,4.24,2.83,2.83,0,0,1-2.07,1.21c-.88,0-1.31-.53-1.31-1.59a5.52,5.52,0,0,1,.34-1.86l13.53-49a40.4,40.4,0,0,1-7.49,2.07,53.78,53.78,0,0,1-8.66.76l-.42,1.45a7.76,7.76,0,0,1,3.63.62,2.17,2.17,0,0,1,1.07,2,7.84,7.84,0,0,1-.35,1.93l-3.1,11.74c-.65-1.56-2-2.35-4.22-2.35a17.62,17.62,0,0,0-11.94,4.59,31.51,31.51,0,0,0-8.15,11.19,30.58,30.58,0,0,0-2.9,12.19q0,4.83,2.28,7.25a7.8,7.8,0,0,0,5.94,2.42,10,10,0,0,0,7-2.7q2.94-2.68,5.56-8.56l-.07.28a18.38,18.38,0,0,0-.82,4.9,7.08,7.08,0,0,0,.55,2.9q1.17,3.18,5.45,3.18a9,9,0,0,0,9.12-7.12l1.66-5h-1.32Zm-10.91-11.74a56.09,56.09,0,0,1-3.69,9.18,28.53,28.53,0,0,1-3.91,5.91c-1.24,1.35-2.32,2-3.24,2a1.75,1.75,0,0,1-1.69-1.17,9.28,9.28,0,0,1-.52-3.59,40,40,0,0,1,2.18-12.85A37.22,37.22,0,0,1,218,334.36q3.21-4.25,6.18-4.25c1.33,0,2.26.81,2.76,2.42Z"/><path class="cls-2" d="M273.86,328.52a50.65,50.65,0,0,1-10,1l-1,3.38a5.11,5.11,0,0,0-1.35-3.31,4.12,4.12,0,0,0-3-1.11q-4.84,0-9.88,4.63a37.07,37.07,0,0,0-8.32,11.5,30.37,30.37,0,0,0-3.28,13,9.17,9.17,0,0,0,2,6.25,7.24,7.24,0,0,0,5.77,2.25,9.9,9.9,0,0,0,6.31-2.28,20,20,0,0,0,5.22-7.39,15.45,15.45,0,0,0-.62,4.07,5.49,5.49,0,0,0,1,3.45q1.53,2.14,5.11,2.15a9.44,9.44,0,0,0,5.29-1.63,10.55,10.55,0,0,0,3.83-5.49l1.72-5H271.3l-1.24,3.32q-1.86,5.44-4.28,5.45c-.88,0-1.31-.5-1.31-1.52a7.12,7.12,0,0,1,.34-1.93Zm-11.74,7.11-3,10.85.35-1.66a55.14,55.14,0,0,1-3.22,9.42,25.83,25.83,0,0,1-3.66,6.08c-1.22,1.4-2.33,2.11-3.34,2.11a1.55,1.55,0,0,1-1.49-1,8.68,8.68,0,0,1-.45-3.28,38.89,38.89,0,0,1,2.11-12.3,39.35,39.35,0,0,1,5.11-10.56q3-4.21,5.35-4.21a2,2,0,0,1,1.76.89,4.85,4.85,0,0,1,.59,2.63,6.24,6.24,0,0,1-.07,1"/><path class="cls-2" d="M314.8,329.49h-7.38l1.45-5.32q1.17-4.41,2.07-6.83a8.71,8.71,0,0,1,2.14-3.53,5.42,5.42,0,0,1,3.66-1.38,3.81,3.81,0,0,1,1.38.24,2.49,2.49,0,0,1,1,.66,8.75,8.75,0,0,0-3.87,2.69,6.31,6.31,0,0,0-1.45,4.08,3.38,3.38,0,0,0,1.17,2.76,4.94,4.94,0,0,0,3.25,1,6.1,6.1,0,0,0,4.52-1.87,5.84,5.84,0,0,0-.59-9,11.05,11.05,0,0,0-6.69-1.79,14.82,14.82,0,0,0-9.74,3.18,18.34,18.34,0,0,0-4.56,5.83,46.27,46.27,0,0,0-3.45,9.29H292l-.42,1.38h5.81l-12.71,47.3a51.73,51.73,0,0,1,10-1l12.43-46.33h7.32Z"/><path class="cls-2" d="M334.41,344q6.43-4.28,6.43-10a4.64,4.64,0,0,0-2-4,8.71,8.71,0,0,0-5.17-1.42,20.42,20.42,0,0,0-12.57,4.32,30.85,30.85,0,0,0-9,10.87,28.13,28.13,0,0,0-3.31,12.71,8.85,8.85,0,0,0,3,7.18,11.7,11.7,0,0,0,7.8,2.56,16.84,16.84,0,0,0,9.35-2.7,21.77,21.77,0,0,0,6.67-6.56l-1.11-.55a17.35,17.35,0,0,1-5.24,4.32A11.13,11.13,0,0,1,324.4,362a5,5,0,0,1-4-1.52c-.9-1-1.34-2.74-1.34-5.18a26.54,26.54,0,0,1,.41-4.69A51.56,51.56,0,0,0,334.41,344m-11.53-4a30.16,30.16,0,0,1,4.7-7.35q2.55-2.84,4.56-2.84a.9.9,0,0,1,.82.49,3.89,3.89,0,0,1,.28,1.79,15.27,15.27,0,0,1-1.59,6.87,19,19,0,0,1-4.35,5.7,27.33,27.33,0,0,1-7.59,4.63,43.2,43.2,0,0,1,3.17-9.29"/><path class="cls-2" d="M372.6,357.32a14.53,14.53,0,0,1-2.14,4.24,2.83,2.83,0,0,1-2.07,1.21c-.88,0-1.31-.53-1.31-1.59a5.52,5.52,0,0,1,.34-1.86l13.53-49a40.4,40.4,0,0,1-7.49,2.07,53.78,53.78,0,0,1-8.66.76l-.42,1.45a7.79,7.79,0,0,1,3.63.62,2.17,2.17,0,0,1,1.07,2,7.84,7.84,0,0,1-.35,1.93l-3.1,11.74c-.65-1.56-2.05-2.35-4.22-2.35a17.62,17.62,0,0,0-11.94,4.59,31.51,31.51,0,0,0-8.15,11.19,30.58,30.58,0,0,0-2.9,12.19q0,4.83,2.28,7.25a7.8,7.8,0,0,0,5.94,2.42,10,10,0,0,0,7-2.7q2.94-2.68,5.56-8.56l-.07.28a18.45,18.45,0,0,0-.83,4.9,7.08,7.08,0,0,0,.56,2.9q1.17,3.18,5.45,3.18a9,9,0,0,0,9.12-7.12l1.65-5h-1.31Zm-10.91-11.74a55.19,55.19,0,0,1-3.7,9.18,28.15,28.15,0,0,1-3.9,5.91c-1.24,1.35-2.32,2-3.24,2a1.76,1.76,0,0,1-1.7-1.17,9.51,9.51,0,0,1-.51-3.59,40.26,40.26,0,0,1,2.17-12.85,37.48,37.48,0,0,1,5.39-10.73q3.21-4.25,6.18-4.25c1.33,0,2.26.81,2.76,2.42Z"/><path class="cls-2" d="M401.25,344q6.44-4.28,6.43-10a4.64,4.64,0,0,0-2-4,8.71,8.71,0,0,0-5.17-1.42,20.42,20.42,0,0,0-12.57,4.32,30.85,30.85,0,0,0-9.05,10.87,28.13,28.13,0,0,0-3.31,12.71,8.85,8.85,0,0,0,3,7.18,11.7,11.7,0,0,0,7.8,2.56,16.84,16.84,0,0,0,9.35-2.7,21.77,21.77,0,0,0,6.67-6.56l-1.11-.55a17.35,17.35,0,0,1-5.24,4.32,11.13,11.13,0,0,1-4.84,1.34,5,5,0,0,1-4-1.52c-.9-1-1.34-2.74-1.34-5.18a26.54,26.54,0,0,1,.41-4.69A51.56,51.56,0,0,0,401.25,344m-11.53-4a30.16,30.16,0,0,1,4.7-7.35q2.55-2.84,4.56-2.84a.9.9,0,0,1,.82.49,3.89,3.89,0,0,1,.28,1.79,15.27,15.27,0,0,1-1.59,6.87,19,19,0,0,1-4.35,5.7,27.33,27.33,0,0,1-7.59,4.63,43.2,43.2,0,0,1,3.17-9.29"/><path class="cls-2" d="M439.37,334.11a5.58,5.58,0,0,0-1.48-4,5.4,5.4,0,0,0-4.11-1.56,8.72,8.72,0,0,0-6.39,2.66q-2.65,2.65-5.21,9.22l.55-2.21a15.7,15.7,0,0,0,.55-4.08c0-3.72-1.77-5.59-5.31-5.59q-7,0-9.53,7.11l-1.87,5.25h1.32l1.31-3.52a15,15,0,0,1,2.14-4.21,3,3,0,0,1,2.35-1.24c.73,0,1.1.43,1.1,1.31a7.19,7.19,0,0,1-.35,2.14L406,365.19h9.74l3-11.81q3.79-13.12,7.45-18.23t7.18-5.11a1.7,1.7,0,0,1,.49.1,1.32,1.32,0,0,0,.41.11,7.35,7.35,0,0,0-4.07,2.52,6.6,6.6,0,0,0-1.66,4.38,4.09,4.09,0,0,0,1.11,3.08,4.28,4.28,0,0,0,3.1,1.07,6,6,0,0,0,4.66-2.11,7.28,7.28,0,0,0,1.9-5.08"/><path class="cls-2" d="M466.65,357.32q-1.86,5.44-4.28,5.45c-.88,0-1.32-.5-1.32-1.52a7.2,7.2,0,0,1,.35-1.93l9.05-30.8a50.65,50.65,0,0,1-10,1l-1,3.38a5.11,5.11,0,0,0-1.35-3.31,4.12,4.12,0,0,0-3-1.11q-4.85,0-9.88,4.63a37.07,37.07,0,0,0-8.32,11.5,30.23,30.23,0,0,0-3.28,13,9.17,9.17,0,0,0,2,6.25,7.24,7.24,0,0,0,5.76,2.25,9.9,9.9,0,0,0,6.32-2.28,20,20,0,0,0,5.22-7.39,15.5,15.5,0,0,0-.63,4.07,5.49,5.49,0,0,0,1,3.45c1,1.43,2.72,2.15,5.11,2.15a9.39,9.39,0,0,0,5.28-1.63,10.57,10.57,0,0,0,3.84-5.49l1.72-5h-1.31Zm-7.94-21.69-3,10.85.34-1.66a54.32,54.32,0,0,1-3.21,9.42,25.83,25.83,0,0,1-3.66,6.08c-1.22,1.4-2.34,2.11-3.35,2.11a1.53,1.53,0,0,1-1.48-1,8.68,8.68,0,0,1-.45-3.28,38.89,38.89,0,0,1,2.11-12.3,39.35,39.35,0,0,1,5.11-10.56q3-4.21,5.35-4.21a2,2,0,0,1,1.76.89,4.86,4.86,0,0,1,.58,2.63,6.49,6.49,0,0,1-.06,1"/><path class="cls-2" d="M493.78,310.29a42.73,42.73,0,0,1-7.45,2.07,51.8,51.8,0,0,1-8.57.76l-.48,1.45a7.79,7.79,0,0,1,3.63.62,2.17,2.17,0,0,1,1.07,2,7.84,7.84,0,0,1-.35,1.93l-10.84,36.05A16.65,16.65,0,0,0,470,360a6.18,6.18,0,0,0,1.59,4.52,6.3,6.3,0,0,0,4.7,1.63,9.66,9.66,0,0,0,5.38-1.63,10.09,10.09,0,0,0,3.8-5.49l1.73-5h-1.32l-1.24,3.32c-1.33,3.63-2.72,5.45-4.14,5.45-1,0-1.45-.57-1.45-1.72a6,6,0,0,1,.27-1.73Z"/></g></g></svg>