<svg id="Layer_1" data-name="Layer 1" xmlns="http://www.w3.org/2000/svg" xmlns:xlink="http://www.w3.org/1999/xlink" viewBox="0 0 260 260"><defs><style>.cls-1{fill:none;}.cls-2{clip-path:url(#clip-path);}.cls-3{fill:#7a3f97;}.cls-4{fill:#c22127;}.cls-5{fill:#f48320;}.cls-6{fill:#0090b6;}.cls-7{fill:#ede70b;}.cls-8{fill:#ee5da1;}.cls-9{fill:#ee4523;}.cls-10{fill:#7fc144;}.cls-11{fill:#00b7aa;}.cls-12{fill:#fff;}</style><clipPath id="clip-path"><circle id="SVGID" class="cls-1" cx="130" cy="130" r="124.5"/></clipPath></defs><title>Favicon_OMelhorProRJ</title><g class="cls-2"><rect class="cls-3" x="88.34" y="116.18" width="249" height="27.65" transform="translate(82.84 342.84) rotate(-90)"/><rect class="cls-4" x="-49.89" y="116.18" width="249" height="27.65" transform="translate(-55.39 204.61) rotate(-90)"/><rect class="cls-3" x="5.4" y="116.18" width="249" height="27.65" transform="translate(-0.1 259.9) rotate(-90)"/><rect class="cls-5" x="-105.18" y="116.18" width="249" height="27.65" transform="translate(-110.68 149.32) rotate(-90)"/><rect class="cls-6" x="33.05" y="116.18" width="249" height="27.65" transform="translate(27.55 287.55) rotate(-90)"/><rect class="cls-7" x="115.98" y="116.18" width="249" height="27.65" transform="translate(110.48 370.48) rotate(-90)"/><rect class="cls-8" x="-22.24" y="116.18" width="249" height="27.65" transform="translate(-27.74 232.26) rotate(-90)"/><rect class="cls-9" x="-77.53" y="116.18" width="249" height="27.65" transform="translate(-83.03 176.97) rotate(-90)"/><rect class="cls-5" x="60.69" y="116.18" width="249" height="27.65" transform="translate(55.19 315.19) rotate(-90)"/><rect class="cls-10" x="5.5" y="175.91" width="55.29" height="24.34"/><rect class="cls-4" x="5.5" y="54.19" width="55.29" height="24.34"/><rect class="cls-3" x="5.5" y="102.88" width="55.29" height="24.34"/><rect class="cls-5" x="5.5" y="5.5" width="55.29" height="24.34"/><rect class="cls-6" x="5.5" y="127.22" width="55.29" height="24.34"/><rect class="cls-7" x="5.5" y="200.25" width="55.29" height="24.34"/><rect class="cls-8" x="5.5" y="78.53" width="55.29" height="24.34"/><rect class="cls-9" x="5.5" y="29.84" width="55.29" height="24.34"/><rect class="cls-11" x="5.5" y="151.56" width="55.29" height="24.34"/><rect class="cls-10" x="116.08" y="231.21" width="138.23" height="11.64"/><rect class="cls-4" x="116.08" y="173" width="138.23" height="11.64"/><rect class="cls-3" x="116.08" y="196.28" width="138.23" height="11.64"/><rect class="cls-5" x="116.08" y="149.71" width="138.23" height="11.64"/><rect class="cls-6" x="116.08" y="207.93" width="138.23" height="11.64"/><rect class="cls-7" x="116.08" y="242.86" width="138.23" height="11.64"/><rect class="cls-8" x="116.08" y="184.64" width="138.23" height="11.64"/><rect class="cls-9" x="116.08" y="161.35" width="138.23" height="11.64"/><rect class="cls-11" x="116.08" y="219.57" width="138.23" height="11.64"/><rect class="cls-10" x="143.73" y="53.25" width="55.29" height="6.82"/><rect class="cls-4" x="143.73" y="19.14" width="55.29" height="6.82"/><rect class="cls-3" x="143.73" y="32.79" width="55.29" height="6.82"/><rect class="cls-5" x="143.73" y="5.5" width="55.29" height="6.82"/><rect class="cls-6" x="143.73" y="39.61" width="55.29" height="6.82"/><rect class="cls-10" x="143.73" y="60.07" width="55.29" height="6.82"/><rect class="cls-8" x="143.73" y="25.97" width="55.29" height="6.82"/><rect class="cls-9" x="143.73" y="12.32" width="55.29" height="6.82"/><rect class="cls-11" x="143.73" y="46.43" width="55.29" height="6.82"/><rect class="cls-10" x="5.5" y="43.37" width="27.65" height="5.41"/><rect class="cls-4" x="5.5" y="16.32" width="27.65" height="5.41"/><rect class="cls-3" x="5.5" y="27.14" width="27.65" height="5.41"/><rect class="cls-5" x="5.5" y="5.5" width="27.65" height="5.41"/><rect class="cls-6" x="5.5" y="32.55" width="27.65" height="5.41"/><rect class="cls-7" x="5.5" y="48.78" width="27.65" height="5.41"/><rect class="cls-8" x="5.5" y="21.73" width="27.65" height="5.41"/><rect class="cls-9" x="5.5" y="10.91" width="27.65" height="5.41"/><rect class="cls-11" x="5.5" y="37.96" width="27.65" height="5.41"/><rect class="cls-10" x="5.5" y="129.93" width="27.65" height="10.82"/><rect class="cls-4" x="5.5" y="75.83" width="27.65" height="10.82"/><rect class="cls-3" x="5.5" y="97.47" width="27.65" height="10.82"/><rect class="cls-5" x="5.5" y="54.19" width="27.65" height="10.82"/><rect class="cls-6" x="5.5" y="108.29" width="27.65" height="10.82"/><rect class="cls-7" x="5.5" y="140.74" width="27.65" height="10.82"/><rect class="cls-8" x="5.5" y="86.65" width="27.65" height="10.82"/><rect class="cls-9" x="5.5" y="65.01" width="27.65" height="10.82"/><rect class="cls-11" x="5.5" y="119.11" width="27.65" height="10.82"/><rect class="cls-10" x="226.66" y="185.88" width="27.65" height="6.02"/><rect class="cls-4" x="226.66" y="155.75" width="27.65" height="6.02"/><rect class="cls-3" x="226.66" y="167.8" width="27.65" height="6.02"/><rect class="cls-5" x="226.66" y="143.7" width="27.65" height="6.02"/><rect class="cls-6" x="226.66" y="173.83" width="27.65" height="6.02"/><rect class="cls-7" x="226.66" y="191.9" width="27.65" height="6.02"/><rect class="cls-8" x="226.66" y="161.78" width="27.65" height="6.02"/><rect class="cls-9" x="226.66" y="149.73" width="27.65" height="6.02"/><rect class="cls-11" x="226.66" y="179.85" width="27.65" height="6.02"/><rect class="cls-10" x="226.66" y="241.93" width="27.65" height="6.29"/><rect class="cls-4" x="226.66" y="210.5" width="27.65" height="6.29"/><rect class="cls-3" x="226.66" y="223.07" width="27.65" height="6.29"/><rect class="cls-5" x="226.66" y="197.93" width="27.65" height="6.29"/><rect class="cls-6" x="226.66" y="229.36" width="27.65" height="6.29"/><rect class="cls-7" x="226.66" y="248.21" width="27.65" height="6.29"/><rect class="cls-8" x="226.66" y="216.79" width="27.65" height="6.29"/><rect class="cls-9" x="226.66" y="204.21" width="27.65" height="6.29"/><rect class="cls-11" x="226.66" y="235.64" width="27.65" height="6.29"/><rect class="cls-10" x="-7.99" y="186.55" width="73.05" height="3.07" transform="translate(-159.55 216.63) rotate(-90)"/><rect class="cls-4" x="-23.34" y="186.55" width="73.05" height="3.07" transform="translate(-174.91 201.27) rotate(-90)"/><rect class="cls-3" x="-17.2" y="186.55" width="73.05" height="3.07" transform="translate(-168.76 207.41) rotate(-90)"/><rect class="cls-5" x="-29.49" y="186.55" width="73.05" height="3.07" transform="translate(-181.05 195.12) rotate(-90)"/><rect class="cls-6" x="-14.13" y="186.55" width="73.05" height="3.07" transform="translate(-165.69 210.48) rotate(-90)"/><rect class="cls-7" x="-4.91" y="186.55" width="73.05" height="3.07" transform="translate(-156.48 219.7) rotate(-90)"/><rect class="cls-8" x="-20.27" y="186.55" width="73.05" height="3.07" transform="translate(-171.84 204.34) rotate(-90)"/><rect class="cls-9" x="-26.42" y="186.55" width="73.05" height="3.07" transform="translate(-177.98 198.2) rotate(-90)"/><rect class="cls-11" x="-11.06" y="186.55" width="73.05" height="3.07" transform="translate(-162.62 213.55) rotate(-90)"/><rect class="cls-10" x="226.66" y="12.32" width="27.84" height="6.82" transform="translate(481.16 31.47) rotate(180)"/><rect class="cls-4" x="226.66" y="46.43" width="27.84" height="6.82" transform="translate(481.16 99.68) rotate(180)"/><rect class="cls-3" x="226.66" y="32.79" width="27.84" height="6.82" transform="translate(481.16 72.4) rotate(180)"/><rect class="cls-5" x="226.66" y="60.07" width="27.84" height="6.82" transform="translate(481.16 126.97) rotate(180)"/><rect class="cls-6" x="226.66" y="25.97" width="27.84" height="6.82" transform="translate(481.16 58.75) rotate(180)"/><rect class="cls-7" x="226.66" y="5.5" width="27.84" height="6.82" transform="translate(481.16 17.82) rotate(180)"/><rect class="cls-8" x="226.66" y="39.61" width="27.84" height="6.82" transform="translate(481.16 86.04) rotate(180)"/><rect class="cls-9" x="226.66" y="53.25" width="27.84" height="6.82" transform="translate(481.16 113.33) rotate(180)"/><rect class="cls-11" x="226.66" y="19.14" width="27.84" height="6.82" transform="translate(481.16 45.11) rotate(180)"/><rect class="cls-10" x="219.05" y="145.17" width="6.01" height="3.07" transform="translate(75.35 368.76) rotate(-90)"/><rect class="cls-4" x="203.69" y="145.17" width="6.01" height="3.07" transform="translate(59.99 353.4) rotate(-90)"/><rect class="cls-3" x="209.84" y="145.17" width="6.01" height="3.07" transform="translate(66.13 359.55) rotate(-90)"/><rect class="cls-5" x="197.55" y="145.17" width="6.01" height="3.07" transform="translate(53.85 347.26) rotate(-90)"/><rect class="cls-6" x="212.91" y="145.17" width="6.01" height="3.07" transform="translate(69.21 362.62) rotate(-90)"/><rect class="cls-7" x="222.12" y="145.17" width="6.01" height="3.07" transform="translate(78.42 371.84) rotate(-90)"/><rect class="cls-8" x="206.76" y="145.17" width="6.01" height="3.07" transform="translate(63.06 356.48) rotate(-90)"/><rect class="cls-9" x="200.62" y="145.17" width="6.01" height="3.07" transform="translate(56.92 350.33) rotate(-90)"/><rect class="cls-11" x="215.98" y="145.17" width="6.01" height="3.07" transform="translate(72.28 365.69) rotate(-90)"/><rect class="cls-10" x="46.57" y="18.99" width="19.24" height="3.07" transform="translate(35.66 76.71) rotate(-90)"/><rect class="cls-4" x="31.21" y="18.99" width="19.24" height="3.07" transform="translate(20.3 61.35) rotate(-90)"/><rect class="cls-3" x="37.35" y="18.99" width="19.24" height="3.07" transform="translate(26.44 67.5) rotate(-90)"/><rect class="cls-5" x="25.06" y="18.99" width="19.24" height="3.07" transform="translate(14.15 55.21) rotate(-90)"/><rect class="cls-6" x="40.42" y="18.99" width="19.24" height="3.07" transform="translate(29.51 70.57) rotate(-90)"/><rect class="cls-7" x="49.64" y="18.99" width="19.24" height="3.07" transform="translate(38.73 79.78) rotate(-90)"/><rect class="cls-8" x="34.28" y="18.99" width="19.24" height="3.07" transform="translate(23.37 64.43) rotate(-90)"/><rect class="cls-9" x="28.14" y="18.99" width="19.24" height="3.07" transform="translate(17.23 58.28) rotate(-90)"/><rect class="cls-11" x="43.5" y="18.99" width="19.24" height="3.07" transform="translate(32.59 73.64) rotate(-90)"/><rect class="cls-10" x="230.84" y="234.11" width="37.71" height="3.07" transform="translate(14.06 485.34) rotate(-90)"/><rect class="cls-4" x="215.48" y="234.11" width="37.71" height="3.07" transform="translate(-1.3 469.99) rotate(-90)"/><rect class="cls-3" x="221.63" y="234.11" width="37.71" height="3.07" transform="translate(4.84 476.13) rotate(-90)"/><rect class="cls-5" x="209.34" y="234.11" width="37.71" height="3.07" transform="translate(-7.44 463.84) rotate(-90)"/><rect class="cls-6" x="224.7" y="234.11" width="37.71" height="3.07" transform="translate(7.92 479.2) rotate(-90)"/><rect class="cls-7" x="233.91" y="234.11" width="37.71" height="3.07" transform="translate(17.13 488.42) rotate(-90)"/><rect class="cls-8" x="218.56" y="234.11" width="37.71" height="3.07" transform="translate(1.77 473.06) rotate(-90)"/><rect class="cls-9" x="212.41" y="234.11" width="37.71" height="3.07" transform="translate(-4.37 466.91) rotate(-90)"/><rect class="cls-11" x="227.77" y="234.11" width="37.71" height="3.07" transform="translate(10.99 482.27) rotate(-90)"/></g><path class="cls-12" d="M146.45,151.27H113.81c0-.45-.1-.89-.12-1.34-.08-2.22-3.54-98.09-3.66-100.56,0-.51.16-.62.63-.63,6.61,0,13.23-.05,19.84-.07h19.24c.47,0,.6.09.55.59-.1,1-3.72,99.81-3.79,101.51C146.49,150.92,146.47,151.09,146.45,151.27Z"/><path class="cls-12" d="M155.38,185.94a25.39,25.39,0,1,1-26.86-25.36A25.33,25.33,0,0,1,155.38,185.94Z"/></svg>