<?xml version="1.0" standalone="no"?>
<!DOCTYPE svg PUBLIC "-//W3C//DTD SVG 20010904//EN"
 "http://www.w3.org/TR/2001/REC-SVG-20010904/DTD/svg10.dtd">
<svg version="1.0" xmlns="http://www.w3.org/2000/svg"
 width="700.000000pt" height="700.000000pt" viewBox="0 0 700.000000 700.000000"
 preserveAspectRatio="xMidYMid meet">
<metadata>
Created by potrace 1.14, written by Peter Selinger 2001-2017
</metadata>
<g transform="translate(0.000000,700.000000) scale(0.100000,-0.100000)"
fill="#000000" stroke="none">
<path d="M3195 6839 c-530 -54 -1068 -236 -1482 -502 l-73 -47 0 -50 0 -50
-44 0 c-30 0 -46 5 -48 14 -10 46 -424 -321 -607 -539 -38 -45 -51 -68 -51
-92 0 -28 -4 -33 -24 -33 -27 0 -76 -61 -190 -237 -158 -245 -259 -458 -357
-753 -129 -393 -183 -780 -164 -1183 l7 -157 364 0 364 0 0 -312 c0 -172 3
-532 7 -801 l6 -487 369 0 368 0 0 -325 0 -325 -155 0 c-85 0 -155 -4 -155 -8
0 -11 138 -119 265 -208 429 -301 924 -491 1478 -569 l47 -6 0 145 0 146 903
2 902 3 140 75 c171 92 395 238 535 350 139 111 349 318 469 460 87 104 231
299 231 314 0 3 -44 7 -97 8 l-98 3 -3 78 -3 77 151 0 150 0 21 33 c38 61 168
332 207 432 80 203 157 492 182 685 6 47 13 100 17 118 l5 32 -366 0 -366 0 0
1035 0 1035 140 0 c77 0 140 4 140 8 0 5 -36 64 -81 132 -482 737 -1214 1240
-2089 1435 -218 48 -389 66 -660 70 -146 2 -305 -1 -355 -6z m850 -1296 c-3
-82 -10 -242 -16 -358 -14 -297 -79 -2071 -79 -2172 l0 -83 -445 0 -445 0 0
23 c0 12 -22 629 -50 1371 -27 742 -47 1353 -44 1358 3 4 248 8 545 8 l540 0
-6 -147z m2055 -2493 l0 -80 -40 0 -40 0 0 80 0 80 40 0 40 0 0 -80z m-2469
-384 c154 -33 304 -122 394 -234 57 -71 119 -197 139 -282 20 -84 20 -239 1
-315 -92 -356 -444 -582 -794 -511 -252 51 -439 219 -527 471 -25 74 -31 272
-10 355 36 141 123 284 223 365 167 137 379 192 574 151z"/>
<path d="M200 2915 c0 -22 58 -272 85 -365 101 -345 272 -697 479 -981 l46
-63 0 707 0 707 -305 0 c-168 0 -305 -2 -305 -5z"/>
</g>
</svg>
