<svg xmlns="http://www.w3.org/2000/svg" viewBox="0 0 589.2 188.22"><defs><style>.cls-1{fill:#ffcb05;}.cls-2{fill:#ff2855;}</style></defs><title>logo-marina-versao2</title><g id="Camada_2" data-name="Camada 2"><g id="Camada_1-2" data-name="Camada 1"><path class="cls-1" d="M14.57,85.3V36.36h.75l9.21,33.87a1.62,1.62,0,0,0,1.62,1.25H33a1.62,1.62,0,0,0,1.62-1.25l9.22-33.87h.74V85.3a1.18,1.18,0,0,0,1.25,1.25H57.91a1.17,1.17,0,0,0,1.24-1.25V3.11a1.17,1.17,0,0,0-1.24-1.24H44.58c-1.12,0-1.74.37-2,1.24L30.14,47.57h-.5L16.69,3.11c-.25-.87-.87-1.24-2-1.24H1.24A1.17,1.17,0,0,0,0,3.11V85.3a1.18,1.18,0,0,0,1.24,1.25H13.33a1.18,1.18,0,0,0,1.24-1.25"/><path class="cls-1" d="M64.51,86.55H78.33A1.28,1.28,0,0,0,79.7,85.3L82.57,70H98.63l2.74,15.31a1.29,1.29,0,0,0,1.37,1.25h13.82a1,1,0,0,0,1-1.25L99.38,3.11A1.36,1.36,0,0,0,98,1.86H83.31c-.74,0-1.12.5-1.37,1.25L63.51,85.3a1,1,0,0,0,1,1.25m26-58.91h.37L96.27,57H84.93Z"/><path class="cls-1" d="M123.17,86.55H137a1.17,1.17,0,0,0,1.24-1.25V54.17a.66.66,0,0,1,.75-.75h4.73l9.59,32.13a1.23,1.23,0,0,0,1.37,1h15c.62,0,.87-.62.62-1.25L158.66,49.44c5.85-4,9.46-11,9.46-21.67,0-18.81-9.71-25.91-24.78-25.91H123.17a1.18,1.18,0,0,0-1.25,1.25V85.3a1.18,1.18,0,0,0,1.25,1.25m15.06-69.62a.66.66,0,0,1,.75-.74h3.61c6.35,0,9.09,2.74,9.09,11.58s-2.74,11.58-9.09,11.58H139a.66.66,0,0,1-.75-.75Z"/><path class="cls-1" d="M192.28,85.3V3.11A1.17,1.17,0,0,0,191,1.87H177.21A1.17,1.17,0,0,0,176,3.11V85.3a1.18,1.18,0,0,0,1.24,1.25H191a1.18,1.18,0,0,0,1.24-1.25"/><path class="cls-1" d="M202.49,86.55h11.84a1.18,1.18,0,0,0,1.24-1.25V32.13h.62l14.7,53.17a1.56,1.56,0,0,0,1.74,1.25h15a1.18,1.18,0,0,0,1.24-1.25V3.11a1.18,1.18,0,0,0-1.24-1.25H235.75a1.18,1.18,0,0,0-1.25,1.25V56.29h-.62L219.81,3.11a1.56,1.56,0,0,0-1.75-1.25H202.49a1.18,1.18,0,0,0-1.24,1.25V85.3a1.18,1.18,0,0,0,1.24,1.25"/><path class="cls-1" d="M254.18,86.55H268a1.28,1.28,0,0,0,1.37-1.25L272.24,70H288.3L291,85.3a1.28,1.28,0,0,0,1.37,1.25h13.82a1,1,0,0,0,1-1.25L289.05,3.11a1.37,1.37,0,0,0-1.37-1.25H273c-.74,0-1.12.5-1.37,1.25L253.18,85.3a1,1,0,0,0,1,1.25m26-58.91h.37L285.93,57H274.6Z"/><path class="cls-1" d="M126.28,131.51l-5.11-2c-6.6-2.62-8-4.61-8-11,0-5.73,2.12-8.47,6.48-8.47s6.6,3.12,6.73,9.22c0,.75.62,1.12,1.37,1l12.7-2a1.25,1.25,0,0,0,1.12-1.37c-.62-13.32-7.6-21-22.42-21-15.07,0-22.41,8.21-22.41,23.53,0,13.58,4.11,19.93,16.06,24.53l5.11,2c6.35,2.49,7.84,5.1,7.84,12.58,0,7.72-2.11,10.08-6.72,10.08-4.86,0-7.1-3.11-7.35-11,0-.74-.5-1.12-1.37-1L97,158.79c-.75.12-1,.62-1,1.36.25,14.58,7.59,22.67,22.91,22.67,16.82,0,23.42-9,23.42-26.28,0-14.32-4.49-20.55-16.07-25"/><path class="cls-1" d="M163.77,97H149.94a1.17,1.17,0,0,0-1.24,1.24v82.19a1.17,1.17,0,0,0,1.24,1.25h13.83a1.18,1.18,0,0,0,1.24-1.25V98.26A1.17,1.17,0,0,0,163.77,97"/><path class="cls-1" d="M189,97H175.22A1.17,1.17,0,0,0,174,98.26v82.19a1.17,1.17,0,0,0,1.24,1.25h37.24a1.17,1.17,0,0,0,1.24-1.25v-12.2a1.17,1.17,0,0,0-1.24-1.25H191a.66.66,0,0,1-.75-.74v-68A1.17,1.17,0,0,0,189,97"/><path class="cls-1" d="M224.91,181.7h13.45c.75,0,1.12-.5,1.25-1.25l16.93-82.19c.25-.75-.12-1.24-1-1.24H241.73a1.28,1.28,0,0,0-1.38,1.24l-8.21,53.55h-.38l-8.59-53.55A1.27,1.27,0,0,0,221.8,97H207.73c-.87,0-1.25.49-1,1.24l16.81,82.19c.25.75.63,1.25,1.37,1.25"/><path class="cls-1" d="M271.61,98.26l-18.43,82.19a1,1,0,0,0,1,1.25H268a1.28,1.28,0,0,0,1.37-1.25l2.87-15.31H288.3L291,180.45a1.29,1.29,0,0,0,1.37,1.25h13.82a1,1,0,0,0,1-1.25L289.05,98.26A1.35,1.35,0,0,0,287.68,97H273c-.74,0-1.12.49-1.37,1.24m8.6,24.53h.37l5.36,29.39H274.6Z"/><path class="cls-2" d="M336.11,31.67h-.42L317.86,44.05c-1.05.84-2.31.42-2.31-1.26V20.14a3.6,3.6,0,0,1,1.89-3.36L335.9,3.15a5.7,5.7,0,0,1,3.57-1.26h20.76a2,2,0,0,1,2.1,2.1V142.43a2,2,0,0,1-2.1,2.1h-22a2,2,0,0,1-2.1-2.1Z"/><path class="cls-2" d="M377.44,103c0-10.69.41-14.89,1.88-19.5a25.26,25.26,0,0,1,9.86-13.43v-.42c-4.61-2.93-8-7.76-9.86-13.63-1.47-4.2-1.88-8.6-1.88-15.94,0-9.65.62-14.48,1.88-18.67C383.73,7.76,395.06,0,412.47,0s28.73,7.76,33.14,21.4c1.26,4.19,1.89,9,1.89,18.67,0,7.34-.63,11.74-1.89,15.94-1.89,5.87-5,10.7-9.86,13.63v.42a24.19,24.19,0,0,1,9.86,13.43c1.47,4.61,1.89,8.81,1.89,19.5,0,13.22-.63,17.83-1.89,22-4.41,13.63-15.73,21.4-33.14,21.4s-28.74-7.77-33.15-21.4c-1.26-4.2-1.88-8.81-1.88-22m43-49.71c.63-1.89.84-4.4.84-12.38s-.21-10.27-.84-12.16c-1.26-3.78-3.78-5.66-8-5.66s-6.72,1.88-8,5.66c-.62,1.89-.83,4.19-.83,12.16s.21,10.49.83,12.38c1.26,3.78,3.78,5.66,8,5.66s6.71-1.88,8-5.66m-8,70.06a7.77,7.77,0,0,0,8-5.66c.63-1.89.84-3.78.84-15.1s-.21-13-.84-14.9a8.45,8.45,0,0,0-15.95,0c-.62,1.89-.83,3.57-.83,14.9s.21,13.21.83,15.1a7.78,7.78,0,0,0,8,5.66"/><path class="cls-2" d="M481.27,31.67h-.42L463,44.05c-1,.84-2.31.42-2.31-1.26V20.14a3.6,3.6,0,0,1,1.89-3.36L481.06,3.15a5.7,5.7,0,0,1,3.57-1.26h20.76a2,2,0,0,1,2.1,2.1V142.43a2,2,0,0,1-2.1,2.1h-22a2,2,0,0,1-2.1-2.1Z"/><path class="cls-2" d="M518.4,103c0-10.69.42-14.89,1.89-19.5a25.16,25.16,0,0,1,9.86-13.43v-.42c-4.62-2.93-8-7.76-9.86-13.63-1.47-4.2-1.89-8.6-1.89-15.94,0-9.65.63-14.48,1.89-18.67C524.69,7.76,536,0,553.43,0s28.74,7.76,33.14,21.4c1.26,4.19,1.89,9,1.89,18.67,0,7.34-.63,11.74-1.89,15.94-1.88,5.87-5,10.7-9.86,13.63v.42a24.15,24.15,0,0,1,9.86,13.43c1.47,4.61,1.89,8.81,1.89,19.5,0,13.22-.63,17.83-1.89,22-4.4,13.63-15.73,21.4-33.14,21.4s-28.74-7.77-33.14-21.4c-1.26-4.2-1.89-8.81-1.89-22m43-49.71c.63-1.89.84-4.4.84-12.38s-.21-10.27-.84-12.16c-1.26-3.78-3.78-5.66-8-5.66s-6.71,1.88-8,5.66c-.63,1.89-.84,4.19-.84,12.16s.21,10.49.84,12.38c1.26,3.78,3.77,5.66,8,5.66s6.71-1.88,8-5.66m-8,70.06a7.77,7.77,0,0,0,8-5.66c.63-1.89.84-3.78.84-15.1s-.21-13-.84-14.9a8.44,8.44,0,0,0-15.94,0c-.63,1.89-.84,3.57-.84,14.9s.21,13.21.84,15.1a7.77,7.77,0,0,0,8,5.66"/><path class="cls-1" d="M337.92,176.82a8.12,8.12,0,0,1-1.17,2.32,1.57,1.57,0,0,1-1.14.66c-.47,0-.71-.29-.71-.87a2.91,2.91,0,0,1,.19-1l7.4-26.8a22.36,22.36,0,0,1-4.1,1.13,29.37,29.37,0,0,1-4.74.41l-.22.8a4.15,4.15,0,0,1,2,.34,1.16,1.16,0,0,1,.58,1.09,4.09,4.09,0,0,1-.19,1.06l-1.69,6.42a2.23,2.23,0,0,0-2.31-1.29,9.65,9.65,0,0,0-6.53,2.51,17.26,17.26,0,0,0-4.45,6.12,16.6,16.6,0,0,0-1.59,6.66,5.59,5.59,0,0,0,1.25,4,4.25,4.25,0,0,0,3.24,1.32,5.46,5.46,0,0,0,3.83-1.47,14.32,14.32,0,0,0,3-4.68l0,.15a9.75,9.75,0,0,0-.46,2.68,3.71,3.71,0,0,0,.31,1.58c.42,1.16,1.42,1.74,3,1.74a4.93,4.93,0,0,0,5-3.89l.91-2.76h-.72Zm-6-6.42a29.73,29.73,0,0,1-2,5,15.51,15.51,0,0,1-2.13,3.23,2.74,2.74,0,0,1-1.77,1.11,1,1,0,0,1-.93-.64,5.11,5.11,0,0,1-.28-2,21.85,21.85,0,0,1,1.19-7,20.5,20.5,0,0,1,2.94-5.87c1.17-1.54,2.3-2.32,3.38-2.32.73,0,1.23.44,1.51,1.32Z"/><path class="cls-1" d="M354.23,176.59l-.61-.3a9.49,9.49,0,0,1-2.87,2.36,6,6,0,0,1-2.64.73,2.72,2.72,0,0,1-2.17-.83,4.25,4.25,0,0,1-.74-2.83,15,15,0,0,1,.23-2.57,27.84,27.84,0,0,0,8.15-3.62q3.53-2.34,3.52-5.47a2.54,2.54,0,0,0-1.1-2.21,4.76,4.76,0,0,0-2.83-.78,11.19,11.19,0,0,0-6.87,2.36,16.94,16.94,0,0,0-4.95,5.95,15.35,15.35,0,0,0-1.81,7,4.86,4.86,0,0,0,1.66,3.92,6.42,6.42,0,0,0,4.27,1.4,9.22,9.22,0,0,0,5.11-1.47,11.92,11.92,0,0,0,3.65-3.59m-7-9.23a16.49,16.49,0,0,1,2.57-4,3.76,3.76,0,0,1,2.49-1.55.48.48,0,0,1,.45.27,2.17,2.17,0,0,1,.15,1,8.45,8.45,0,0,1-.86,3.75,10.53,10.53,0,0,1-2.38,3.12,15.06,15.06,0,0,1-4.16,2.53,23.66,23.66,0,0,1,1.74-5.08"/><path class="cls-1" d="M371.82,161.07a4.82,4.82,0,0,0-3.25,1.36,13.42,13.42,0,0,0-2.87,4.31L369,155.22a23.64,23.64,0,0,1-5.63,1.06l-.11.45a37,37,0,0,1-2.21,4.74,23.55,23.55,0,0,1-2.21,3.28c-.73.9-1.64,1.95-2.75,3.16l.41.49a36.47,36.47,0,0,0,3.33-3.87,24,24,0,0,0,2.41-4.21l-6.83,24.5a3.6,3.6,0,0,1-1,1.85,3.11,3.11,0,0,1-2,.49l-.22.79c2.72-.1,4.49-.15,5.32-.15s2.53,0,5.1.12l.87,0,.22-.79a6.1,6.1,0,0,1-2.38-.41,1.47,1.47,0,0,1-.75-1.44,4.76,4.76,0,0,1,.23-1.36l1-3.62a3.32,3.32,0,0,0,1.43,1,5.46,5.46,0,0,0,2,.34,8.49,8.49,0,0,0,6-2.38,15.88,15.88,0,0,0,3.94-5.83,17.72,17.72,0,0,0,1.38-6.55,6.85,6.85,0,0,0-1.19-4.33,4.21,4.21,0,0,0-3.49-1.49m-1.89,11.54a19,19,0,0,1-2.74,5.66q-1.68,2.28-3.45,2.28a2.19,2.19,0,0,1-1.74-.87l2.53-8.87a26.67,26.67,0,0,1,2.65-5.55c.95-1.45,1.81-2.19,2.56-2.19a1,1,0,0,1,.93.68,6.58,6.58,0,0,1,.32,2.46,21.35,21.35,0,0,1-1.06,6.4"/><path class="cls-1" d="M397.53,161.07a29.54,29.54,0,0,1-5.48.53l-.56,2.12a67.79,67.79,0,0,1-2.78,7.91,33.21,33.21,0,0,1-3.11,5.9c-1,1.49-1.93,2.23-2.68,2.23q-.72,0-.72-.87a5.37,5.37,0,0,1,.34-1.62l3.4-10.19a10.12,10.12,0,0,0,.53-2.87q0-3.14-3.44-3.14c-2.47,0-4.15,1.3-5.06,3.89l-.94,2.76h.72l.68-1.81a7.08,7.08,0,0,1,1.18-2.34,1.66,1.66,0,0,1,1.19-.65c.48,0,.72.27.72.8a3.72,3.72,0,0,1-.23,1.09L377.63,176a8.27,8.27,0,0,0-.49,2.6,3,3,0,0,0,.85,2.31,3.67,3.67,0,0,0,2.55.79,6.11,6.11,0,0,0,3.13-.81,9.05,9.05,0,0,0,2.76-2.82,31.21,31.21,0,0,0,2.83-5.55l-1,3.89a11.63,11.63,0,0,0-.38,2.46,3.45,3.45,0,0,0,.34,1.54,2.3,2.3,0,0,0,1.06.95,4,4,0,0,0,1.74.34,5.22,5.22,0,0,0,3-.91,5.71,5.71,0,0,0,2.06-3l1-2.87h-.72l-.72,1.93a7.72,7.72,0,0,1-1.13,2.3,1.67,1.67,0,0,1-1.29.68.57.57,0,0,1-.64-.64,5,5,0,0,1,.23-1.25Z"/><path class="cls-1" d="M407.34,176.55A7.22,7.22,0,0,1,406,179a2.26,2.26,0,0,1-1.61.81,1.21,1.21,0,0,1-.83-.28,1.13,1.13,0,0,1-.3-.85,2.85,2.85,0,0,1,.11-.76l4.49-15.55h4.38l.12-.76h-4.27l1.78-6.15a28,28,0,0,1-5.48.53l-1.62,5.62H399.3l-.19.76h3.4l-3.81,13.29a8,8,0,0,0-.34,2.26,3.42,3.42,0,0,0,3.85,3.74q4.19,0,5.66-4.46l.76-2.19h-.72Z"/><path class="cls-1" d="M427,176.82c-.67,2-1.46,3-2.34,3-.47,0-.71-.28-.71-.83a3.77,3.77,0,0,1,.19-1.06l4.94-16.84a26.79,26.79,0,0,1-5.47.57l-.53,1.85a2.78,2.78,0,0,0-.74-1.81,2.22,2.22,0,0,0-1.64-.61,8.18,8.18,0,0,0-5.4,2.53,20.28,20.28,0,0,0-4.55,6.29,16.63,16.63,0,0,0-1.79,7.12,5,5,0,0,0,1.07,3.41,4,4,0,0,0,3.16,1.23,5.41,5.41,0,0,0,3.45-1.25,10.69,10.69,0,0,0,2.85-4,8.9,8.9,0,0,0-.34,2.23,3,3,0,0,0,.53,1.89,3.19,3.19,0,0,0,2.79,1.17,5.13,5.13,0,0,0,2.89-.89,5.76,5.76,0,0,0,2.1-3l.94-2.76h-.72ZM422.63,165,421,170.89l.19-.91a30.39,30.39,0,0,1-1.75,5.16,14.36,14.36,0,0,1-2,3.32,2.64,2.64,0,0,1-1.83,1.15.83.83,0,0,1-.81-.55,4.8,4.8,0,0,1-.24-1.79,21.19,21.19,0,0,1,1.15-6.72,21.91,21.91,0,0,1,2.79-5.78c1.1-1.53,2.07-2.3,2.93-2.3a1.06,1.06,0,0,1,1,.49,2.7,2.7,0,0,1,.32,1.44,2.61,2.61,0,0,1,0,.56"/><path class="cls-1" d="M447.36,176.82a7.87,7.87,0,0,1-1.17,2.32,1.55,1.55,0,0,1-1.13.66q-.72,0-.72-.87a2.91,2.91,0,0,1,.19-1l7.4-26.8a22.14,22.14,0,0,1-4.1,1.13,29.35,29.35,0,0,1-4.73.41l-.23.8a4.15,4.15,0,0,1,2,.34,1.16,1.16,0,0,1,.59,1.09,4.58,4.58,0,0,1-.19,1.06l-1.7,6.42a2.21,2.21,0,0,0-2.3-1.29,9.68,9.68,0,0,0-6.54,2.51,17.39,17.39,0,0,0-4.45,6.12,16.6,16.6,0,0,0-1.59,6.66,5.59,5.59,0,0,0,1.25,4,4.26,4.26,0,0,0,3.25,1.32,5.48,5.48,0,0,0,3.83-1.47,14.48,14.48,0,0,0,3-4.68l0,.15a10.08,10.08,0,0,0-.45,2.68,3.87,3.87,0,0,0,.3,1.58c.43,1.16,1.42,1.74,3,1.74a4.93,4.93,0,0,0,5-3.89l.91-2.76H448Zm-6-6.42a30.59,30.59,0,0,1-2,5,15.9,15.9,0,0,1-2.14,3.23,2.74,2.74,0,0,1-1.77,1.11,1,1,0,0,1-.93-.64,5.31,5.31,0,0,1-.28-2,22.13,22.13,0,0,1,1.19-7,20.51,20.51,0,0,1,2.95-5.87c1.17-1.54,2.29-2.32,3.37-2.32.73,0,1.24.44,1.51,1.32Z"/><path class="cls-1" d="M469,161.07a26.82,26.82,0,0,1-5.48.57l-.53,1.85a2.77,2.77,0,0,0-.73-1.81,2.23,2.23,0,0,0-1.64-.61,8.14,8.14,0,0,0-5.4,2.53,20.12,20.12,0,0,0-4.55,6.29,16.51,16.51,0,0,0-1.8,7.12,5,5,0,0,0,1.08,3.41,4,4,0,0,0,3.15,1.23,5.45,5.45,0,0,0,3.46-1.25,10.92,10.92,0,0,0,2.85-4,8.47,8.47,0,0,0-.34,2.23,3,3,0,0,0,.53,1.89,3.18,3.18,0,0,0,2.79,1.17,5.15,5.15,0,0,0,2.89-.89,5.75,5.75,0,0,0,2.09-3l.95-2.76h-.72l-.68,1.82c-.68,2-1.46,3-2.34,3-.48,0-.72-.28-.72-.83a4.18,4.18,0,0,1,.19-1.06ZM462.54,165l-1.66,5.93.19-.91a30.35,30.35,0,0,1-1.76,5.16,14.37,14.37,0,0,1-2,3.32,2.68,2.68,0,0,1-1.83,1.15.82.82,0,0,1-.81-.55,4.56,4.56,0,0,1-.25-1.79,23.58,23.58,0,0,1,3.95-12.5c1.09-1.53,2.07-2.3,2.92-2.3a1.08,1.08,0,0,1,1,.49,2.7,2.7,0,0,1,.32,1.44,3.5,3.5,0,0,1,0,.56"/><path class="cls-1" d="M491.34,161.6h-4l.8-2.91c.42-1.61.8-2.85,1.13-3.73A4.83,4.83,0,0,1,490.4,153a3,3,0,0,1,2-.75,2.06,2.06,0,0,1,.76.13,1.27,1.27,0,0,1,.52.36,4.77,4.77,0,0,0-2.11,1.47,3.44,3.44,0,0,0-.79,2.23,1.84,1.84,0,0,0,.64,1.51,2.73,2.73,0,0,0,1.77.53,3.33,3.33,0,0,0,2.48-1,3.21,3.21,0,0,0,1-2.27,3.1,3.1,0,0,0-1.33-2.64,6,6,0,0,0-3.66-1,8.14,8.14,0,0,0-5.32,1.73,10,10,0,0,0-2.49,3.19A25,25,0,0,0,482,161.6h-3.13l-.23.76h3.17l-6.94,25.86a27.54,27.54,0,0,1,5.47-.53l6.79-25.33h4Z"/><path class="cls-1" d="M502.06,169.53q3.53-2.34,3.52-5.47a2.54,2.54,0,0,0-1.1-2.21,4.76,4.76,0,0,0-2.83-.78,11.19,11.19,0,0,0-6.87,2.36,16.94,16.94,0,0,0-4.95,5.95,15.35,15.35,0,0,0-1.81,7,4.86,4.86,0,0,0,1.66,3.92,6.42,6.42,0,0,0,4.27,1.4,9.22,9.22,0,0,0,5.11-1.47,11.92,11.92,0,0,0,3.65-3.59l-.61-.3a9.49,9.49,0,0,1-2.87,2.36,6,6,0,0,1-2.64.73,2.72,2.72,0,0,1-2.17-.83,4.25,4.25,0,0,1-.74-2.83,15,15,0,0,1,.23-2.57,27.84,27.84,0,0,0,8.15-3.62m-6.3-2.17a16.49,16.49,0,0,1,2.57-4,3.76,3.76,0,0,1,2.49-1.55.48.48,0,0,1,.45.27,2.17,2.17,0,0,1,.15,1,8.45,8.45,0,0,1-.86,3.75,10.53,10.53,0,0,1-2.38,3.12,15.06,15.06,0,0,1-4.16,2.53,23.66,23.66,0,0,1,1.74-5.08"/><path class="cls-1" d="M522.94,176.82a7.87,7.87,0,0,1-1.17,2.32,1.55,1.55,0,0,1-1.13.66q-.72,0-.72-.87a2.91,2.91,0,0,1,.19-1l7.4-26.8a22.14,22.14,0,0,1-4.1,1.13,29.35,29.35,0,0,1-4.73.41l-.23.8a4.15,4.15,0,0,1,2,.34,1.16,1.16,0,0,1,.59,1.09,4.58,4.58,0,0,1-.19,1.06l-1.7,6.42a2.21,2.21,0,0,0-2.3-1.29,9.68,9.68,0,0,0-6.54,2.51,17.39,17.39,0,0,0-4.45,6.12,16.6,16.6,0,0,0-1.59,6.66,5.59,5.59,0,0,0,1.25,4,4.26,4.26,0,0,0,3.25,1.32,5.48,5.48,0,0,0,3.83-1.47,14.48,14.48,0,0,0,3-4.68l0,.15a10.08,10.08,0,0,0-.45,2.68,3.87,3.87,0,0,0,.3,1.58c.43,1.16,1.42,1.74,3,1.74a4.93,4.93,0,0,0,5-3.89l.91-2.76h-.72Zm-6-6.42a30.59,30.59,0,0,1-2,5,15.9,15.9,0,0,1-2.14,3.23,2.74,2.74,0,0,1-1.77,1.11,1,1,0,0,1-.93-.64,5.31,5.31,0,0,1-.28-2,22.13,22.13,0,0,1,1.19-7,20.51,20.51,0,0,1,3-5.87c1.17-1.54,2.29-2.32,3.37-2.32.73,0,1.24.44,1.51,1.32Z"/><path class="cls-1" d="M538.61,169.53q3.51-2.34,3.51-5.47a2.53,2.53,0,0,0-1.09-2.21,4.79,4.79,0,0,0-2.84-.78,11.19,11.19,0,0,0-6.87,2.36,16.91,16.91,0,0,0-4.94,5.95,15.35,15.35,0,0,0-1.81,7,4.83,4.83,0,0,0,1.66,3.92,6.39,6.39,0,0,0,4.26,1.4,9.25,9.25,0,0,0,5.12-1.47,11.88,11.88,0,0,0,3.64-3.59l-.6-.3a9.49,9.49,0,0,1-2.87,2.36,6,6,0,0,1-2.65.73,2.73,2.73,0,0,1-2.17-.83,4.26,4.26,0,0,1-.73-2.83,15,15,0,0,1,.22-2.57,27.9,27.9,0,0,0,8.16-3.62m-6.31-2.17a16.49,16.49,0,0,1,2.57-4,3.76,3.76,0,0,1,2.49-1.55.5.5,0,0,1,.46.27,2.17,2.17,0,0,1,.15,1,8.33,8.33,0,0,1-.87,3.75,10.37,10.37,0,0,1-2.38,3.12,15.14,15.14,0,0,1-4.15,2.53,23.62,23.62,0,0,1,1.73-5.08"/><path class="cls-1" d="M559.45,164.13a3.09,3.09,0,0,0-.81-2.21,3,3,0,0,0-2.25-.85,4.76,4.76,0,0,0-3.49,1.46,15,15,0,0,0-2.85,5l.3-1.21a8.72,8.72,0,0,0,.3-2.23c0-2-1-3.06-2.9-3.06-2.55,0-4.28,1.3-5.21,3.89l-1,2.87h.71l.72-1.92a8.2,8.2,0,0,1,1.17-2.31,1.67,1.67,0,0,1,1.29-.68q.6,0,.6.72a3.76,3.76,0,0,1-.19,1.17l-4.61,16.31h5.33l1.66-6.46q2.07-7.17,4.08-10c1.33-1.86,2.64-2.8,3.92-2.8a.74.74,0,0,1,.27.06.66.66,0,0,0,.22.06,4,4,0,0,0-2.22,1.38,3.57,3.57,0,0,0-.91,2.39,2.24,2.24,0,0,0,.6,1.68,2.36,2.36,0,0,0,1.7.59,3.32,3.32,0,0,0,2.55-1.15,4,4,0,0,0,1-2.78"/><path class="cls-1" d="M574.36,176.82c-.68,2-1.46,3-2.34,3-.48,0-.72-.28-.72-.83a4.18,4.18,0,0,1,.19-1.06l5-16.84a26.82,26.82,0,0,1-5.48.57l-.52,1.85a2.83,2.83,0,0,0-.74-1.81,2.23,2.23,0,0,0-1.64-.61,8.14,8.14,0,0,0-5.4,2.53,20.12,20.12,0,0,0-4.55,6.29,16.48,16.48,0,0,0-1.79,7.12,5,5,0,0,0,1.07,3.41,4,4,0,0,0,3.15,1.23A5.45,5.45,0,0,0,564,180.4a10.92,10.92,0,0,0,2.85-4,8.47,8.47,0,0,0-.34,2.23,3,3,0,0,0,.53,1.89,3.18,3.18,0,0,0,2.79,1.17,5.15,5.15,0,0,0,2.89-.89,5.75,5.75,0,0,0,2.09-3l1-2.76H575ZM570,165l-1.66,5.93.19-.91a30.35,30.35,0,0,1-1.76,5.16,14,14,0,0,1-2,3.32,2.68,2.68,0,0,1-1.83,1.15.82.82,0,0,1-.81-.55,4.56,4.56,0,0,1-.25-1.79,23.58,23.58,0,0,1,4-12.5c1.09-1.53,2.07-2.3,2.92-2.3a1.08,1.08,0,0,1,1,.49,2.7,2.7,0,0,1,.32,1.44,3.5,3.5,0,0,1,0,.56"/><path class="cls-1" d="M584.18,176.82c-.73,2-1.49,3-2.27,3-.53,0-.79-.32-.79-.94a3.24,3.24,0,0,1,.15-1l7.93-26.8a23.54,23.54,0,0,1-4.08,1.13,28.2,28.2,0,0,1-4.68.41l-.26.8a4.15,4.15,0,0,1,2,.34,1.16,1.16,0,0,1,.58,1.09,4.09,4.09,0,0,1-.19,1.06l-5.92,19.71a8.84,8.84,0,0,0-.46,2.64,3.37,3.37,0,0,0,.87,2.47,3.46,3.46,0,0,0,2.57.89,5.26,5.26,0,0,0,2.94-.89,5.53,5.53,0,0,0,2.08-3l.94-2.76h-.71Z"/></g></g></svg>