<svg xmlns="http://www.w3.org/2000/svg" viewBox="0 0 256 256"><defs><style>.cls-1{fill:#004b41;}.cls-2{fill:#ffcb05;}</style></defs><title>favicon</title><g id="Camada_2" data-name="Camada 2"><g id="Camada_1-2" data-name="Camada 1"><rect class="cls-1" width="256" height="256"/><path class="cls-2" d="M43.61,97.76H43.3l-13,9c-.76.61-1.68.3-1.68-.92V89.36A2.63,2.63,0,0,1,30,86.91L43.46,77a4.11,4.11,0,0,1,2.59-.91H61.17a1.44,1.44,0,0,1,1.53,1.52V178.41a1.44,1.44,0,0,1-1.53,1.52h-16a1.44,1.44,0,0,1-1.53-1.52Z"/><path class="cls-2" d="M73.7,149.69c0-7.79.3-10.85,1.37-14.21a18.45,18.45,0,0,1,7.18-9.77v-.31a18,18,0,0,1-7.18-9.92c-1.07-3.06-1.37-6.27-1.37-11.61,0-7,.46-10.54,1.37-13.6,3.21-9.93,11.46-15.58,24.14-15.58s20.92,5.65,24.13,15.58c.92,3.06,1.38,6.57,1.38,13.6a38,38,0,0,1-1.38,11.61c-1.37,4.27-3.66,7.79-7.18,9.92v.31a17.62,17.62,0,0,1,7.18,9.77c1.07,3.36,1.38,6.42,1.38,14.21,0,9.62-.46,13-1.38,16-3.21,9.93-11.45,15.58-24.13,15.58s-20.93-5.65-24.14-15.58c-.91-3.06-1.37-6.42-1.37-16M105,113.49c.46-1.38.61-3.21.61-9s-.15-7.49-.61-8.86a6.14,6.14,0,0,0-11.61,0c-.45,1.37-.61,3-.61,8.86s.16,7.63.61,9a6.15,6.15,0,0,0,11.61,0m-5.8,51a5.66,5.66,0,0,0,5.8-4.13c.46-1.37.61-2.75.61-11s-.15-9.47-.61-10.84a6.15,6.15,0,0,0-11.61,0c-.45,1.37-.61,2.6-.61,10.84s.16,9.63.61,11a5.67,5.67,0,0,0,5.81,4.13"/><path class="cls-2" d="M149.31,97.76H149l-13,9c-.76.61-1.68.3-1.68-.92V89.36a2.62,2.62,0,0,1,1.37-2.45L149.15,77a4.16,4.16,0,0,1,2.6-.91h15.12a1.44,1.44,0,0,1,1.53,1.52V178.41a1.44,1.44,0,0,1-1.53,1.52h-16a1.44,1.44,0,0,1-1.52-1.52Z"/><path class="cls-2" d="M176.34,149.69c0-7.79.31-10.85,1.38-14.21a18.35,18.35,0,0,1,7.18-9.77v-.31a18,18,0,0,1-7.18-9.92c-1.07-3.06-1.38-6.27-1.38-11.61,0-7,.46-10.54,1.38-13.6,3.21-9.93,11.45-15.58,24.13-15.58S222.78,80.34,226,90.27c.91,3.06,1.37,6.57,1.37,13.6A38.39,38.39,0,0,1,226,115.48c-1.38,4.27-3.67,7.79-7.18,9.92v.31a17.67,17.67,0,0,1,7.18,9.77c1.07,3.36,1.37,6.42,1.37,14.21,0,9.62-.46,13-1.37,16-3.21,9.93-11.46,15.58-24.14,15.58s-20.92-5.65-24.13-15.58c-.92-3.06-1.38-6.42-1.38-16m31.32-36.2c.45-1.38.61-3.21.61-9s-.16-7.49-.61-8.86a6.14,6.14,0,0,0-11.61,0c-.46,1.37-.61,3-.61,8.86s.15,7.63.61,9a6.15,6.15,0,0,0,11.61,0m-5.81,51a5.67,5.67,0,0,0,5.81-4.13c.45-1.37.61-2.75.61-11s-.16-9.47-.61-10.84a6.15,6.15,0,0,0-11.61,0c-.46,1.37-.61,2.6-.61,10.84s.15,9.63.61,11a5.66,5.66,0,0,0,5.8,4.13"/></g></g></svg>