<?xml version="1.0" standalone="no"?>
<!DOCTYPE svg PUBLIC "-//W3C//DTD SVG 20010904//EN"
 "http://www.w3.org/TR/2001/REC-SVG-20010904/DTD/svg10.dtd">
<svg version="1.0" xmlns="http://www.w3.org/2000/svg"
 width="700.000000pt" height="700.000000pt" viewBox="0 0 700.000000 700.000000"
 preserveAspectRatio="xMidYMid meet">
<metadata>
Created by potrace 1.14, written by Peter Selinger 2001-2017
</metadata>
<g transform="translate(0.000000,700.000000) scale(0.100000,-0.100000)"
fill="#000000" stroke="none">
<path d="M0 3500 l0 -3500 3500 0 3500 0 0 3500 0 3500 -3500 0 -3500 0 0
-3500z m2837 1450 c295 -40 486 -205 550 -477 26 -112 26 -464 0 -576 -31
-130 -94 -236 -183 -306 l-26 -20 64 -63 c71 -71 117 -155 145 -264 26 -104
26 -604 0 -717 -51 -218 -196 -378 -399 -442 -99 -31 -241 -48 -338 -40 -276
24 -463 136 -557 335 -65 136 -68 156 -68 515 l0 320 28 79 c34 97 83 172 149
230 l50 43 -46 38 c-63 51 -119 138 -153 237 -28 83 -28 84 -28 338 0 216 3
265 18 320 92 327 401 502 794 450z m2909 -20 c110 -28 194 -72 266 -138 127
-118 181 -244 199 -466 28 -341 -29 -581 -170 -707 l-58 -53 64 -59 c74 -69
125 -164 148 -272 21 -102 29 -365 16 -543 -17 -237 -67 -360 -194 -478 -103
-96 -222 -145 -402 -164 -232 -25 -448 33 -587 159 -168 152 -219 347 -205
786 9 278 50 399 172 514 l63 58 -48 41 c-143 123 -200 320 -186 643 7 177 25
270 71 364 95 197 267 307 525 339 71 8 250 -5 326 -24z m-4052 -16 c15 -6 16
-139 16 -1414 0 -1275 -1 -1408 -16 -1414 -9 -3 -121 -6 -249 -6 -176 0 -236
3 -242 13 -4 6 -10 512 -13 1123 l-5 1112 -188 -130 c-155 -107 -190 -128
-202 -118 -12 10 -15 54 -15 256 0 238 0 243 23 268 24 26 393 299 417 309 20
7 454 9 474 1z m2890 0 c15 -6 16 -139 16 -1414 0 -1275 -1 -1408 -16 -1414
-9 -3 -121 -6 -249 -6 -176 0 -236 3 -242 13 -4 6 -10 512 -13 1123 l-5 1111
-188 -130 c-155 -107 -190 -127 -202 -117 -13 10 -15 53 -15 256 0 238 0 243
23 268 24 26 393 299 417 309 20 7 454 9 474 1z"/>
<path d="M2644 4481 c-93 -43 -107 -90 -102 -365 3 -200 4 -213 26 -248 62
-100 199 -109 275 -18 15 17 30 47 34 68 10 49 10 396 0 445 -11 50 -69 114
-115 127 -51 14 -71 12 -118 -9z"/>
<path d="M2631 3303 c-18 -9 -45 -34 -60 -56 l-26 -40 -3 -268 c-4 -304 1
-334 57 -390 81 -82 217 -56 263 49 19 42 22 71 26 257 2 116 -1 246 -6 289
-11 86 -28 117 -82 154 -40 27 -119 30 -169 5z"/>
<path d="M5455 4481 c-95 -43 -108 -85 -109 -341 0 -199 1 -207 24 -255 28
-56 60 -83 113 -95 78 -17 148 17 185 92 22 44 23 57 23 257 0 186 -2 216 -19
253 -23 51 -54 81 -101 97 -46 15 -69 14 -116 -8z"/>
<path d="M5429 3297 c-61 -40 -76 -87 -84 -259 -4 -84 -3 -215 3 -290 11 -159
26 -193 96 -227 54 -26 98 -27 152 -1 87 42 95 78 95 401 0 253 -1 263 -23
308 -32 64 -76 91 -148 91 -43 0 -66 -6 -91 -23z"/>
</g>
</svg>
