<?xml version="1.0" standalone="no"?>
<!DOCTYPE svg PUBLIC "-//W3C//DTD SVG 20010904//EN"
 "http://www.w3.org/TR/2001/REC-SVG-20010904/DTD/svg10.dtd">
<svg version="1.0" xmlns="http://www.w3.org/2000/svg"
 width="1465.000000pt" height="1465.000000pt" viewBox="0 0 1465.000000 1465.000000"
 preserveAspectRatio="xMidYMid meet">
<metadata>
Created by potrace 1.11, written by Peter Selinger 2001-2013
</metadata>
<g transform="translate(0.000000,1465.000000) scale(0.100000,-0.100000)"
fill="#000000" stroke="none">
<path d="M12180 14640 c-582 -27 -1090 -63 -1387 -100 -115 -14 -163 -25 -200
-44 -55 -27 -112 -85 -142 -144 -18 -36 -515 -1384 -691 -1877 -257 -719 -415
-1196 -661 -2000 -83 -269 -154 -501 -158 -515 -8 -24 -8 -24 -18 10 -5 19
-279 1043 -608 2275 -329 1232 -599 2241 -600 2242 -1 2 -364 3 -808 3 -905 0
-897 1 -1043 -70 -142 -69 -231 -190 -269 -364 -30 -137 -10 -412 111 -1456
135 -1176 351 -2719 524 -3735 41 -243 42 -250 396 -1494 74 -261 131 -478
127 -481 -17 -15 -1430 -503 -1468 -507 -52 -5 -103 22 -126 68 -10 19 -161
633 -335 1364 l-318 1330 0 115 c-1 95 3 127 22 183 30 85 93 180 146 219 89
65 678 407 881 511 l50 26 -40 0 c-64 1 -298 -27 -455 -54 -319 -55 -887 -218
-990 -283 -90 -57 -138 -133 -166 -260 -42 -195 -22 -806 46 -1362 69 -559
221 -1296 393 -1905 19 -66 34 -121 33 -122 0 0 -334 -108 -741 -238 -808
-260 -814 -261 -877 -213 -19 14 -42 43 -51 65 -28 64 -507 2488 -507 2564 0
38 8 94 20 130 33 107 74 157 217 260 192 140 455 313 678 448 109 67 191 121
181 121 -31 0 -304 -69 -496 -125 -315 -92 -654 -215 -873 -318 -109 -52 -173
-114 -217 -210 -50 -110 -54 -156 -47 -531 21 -1095 171 -2764 323 -3586 40
-216 66 -255 168 -255 68 0 132 26 300 124 49 28 90 50 92 49 1 -2 138 -503
303 -1113 294 -1082 303 -1113 360 -1230 95 -192 235 -346 383 -421 26 -13
244 -93 485 -178 643 -226 1234 -436 2823 -1001 784 -279 1463 -516 1510 -526
304 -68 589 -10 767 157 22 21 144 152 270 289 232 254 1407 1531 2458 2669
319 346 599 654 623 684 146 188 271 471 324 733 19 96 23 144 22 304 -1 327
-46 484 -260 915 -155 311 -235 453 -454 810 -168 274 -221 344 -335 443 -47
39 -85 80 -85 90 0 21 60 553 176 1547 294 2542 567 4671 703 5490 l29 175
-45 66 c-72 107 -146 201 -173 221 -34 24 -84 27 -300 18z m-4 -427 c-4 -16
-292 -1506 -641 -3313 -349 -1807 -637 -3296 -640 -3309 -7 -28 10 -32 -215
54 -530 202 -1161 383 -1773 511 -150 31 -187 42 -184 54 8 32 2100 5628 2121
5675 25 56 72 107 120 132 25 13 1137 219 1199 222 15 1 17 -4 13 -26z m-4313
-3191 c351 -1522 638 -2770 637 -2773 0 -4 -33 0 -72 7 -406 80 -1311 218
-1385 212 -97 -8 -94 -5 -422 -451 l-108 -148 -6 58 c-16 151 -469 5655 -465
5658 3 3 1139 201 1173 204 6 0 297 -1244 648 -2767z m-189 -4796 c487 -351
885 -641 883 -643 -2 -2 -509 -142 -1126 -312 -617 -169 -1124 -310 -1127
-313 -3 -3 29 -412 70 -909 116 -1392 147 -1781 144 -1784 -5 -4 -3247 2679
-3248 2688 0 4 53 51 117 104 336 275 708 632 997 956 37 42 72 75 76 72 4 -3
11 -17 14 -32 4 -16 63 -208 131 -428 68 -220 132 -428 141 -463 12 -44 26
-71 47 -88 51 -43 84 -32 265 92 548 374 1015 832 1567 1537 90 115 142 174
150 169 7 -4 411 -295 899 -646z"/>
</g>
</svg>
