<?xml version="1.0" standalone="no"?>
<!DOCTYPE svg PUBLIC "-//W3C//DTD SVG 20010904//EN"
 "http://www.w3.org/TR/2001/REC-SVG-20010904/DTD/svg10.dtd">
<svg version="1.0" xmlns="http://www.w3.org/2000/svg"
 width="1768.000000pt" height="1768.000000pt" viewBox="0 0 1768.000000 1768.000000"
 preserveAspectRatio="xMidYMid meet">
<metadata>
Created by potrace 1.14, written by Peter Selinger 2001-2017
</metadata>
<g transform="translate(0.000000,1768.000000) scale(0.100000,-0.100000)"
fill="#000000" stroke="none">
<path d="M17555 12033 c-16 -2 -811 -57 -1765 -123 -1815 -126 -6055 -421
-9125 -635 -990 -69 -2641 -184 -3670 -255 -1029 -72 -2030 -142 -2225 -155
-195 -14 -425 -30 -510 -35 -85 -6 -179 -13 -207 -16 l-53 -5 0 -2565 0 -2564
29 0 c28 0 993 67 5056 350 2087 145 5294 368 9275 645 2780 194 3045 212
3200 223 l95 7 3 2568 2 2567 -37 -2 c-21 0 -51 -3 -68 -5z m-1318 -898 c147
-19 298 -56 429 -105 83 -31 159 -64 172 -75 3 -2 -285 -765 -291 -772 -3 -2
-40 14 -83 35 -188 94 -356 136 -554 137 -157 0 -248 -22 -322 -78 -72 -55
-102 -107 -106 -186 -5 -83 19 -138 77 -177 57 -37 108 -50 362 -89 359 -55
465 -83 624 -161 211 -104 347 -268 407 -489 29 -109 31 -359 4 -485 -102
-479 -509 -846 -1101 -994 -425 -107 -1004 -70 -1502 95 -102 34 -121 43 -116
57 4 9 50 62 102 118 150 158 267 333 353 529 22 50 41 91 43 93 2 2 34 -12
71 -31 175 -88 350 -131 534 -131 175 0 278 30 378 111 115 94 129 272 27 362
-58 51 -130 70 -369 96 -248 28 -347 45 -455 77 l-73 22 6 100 c12 192 -24
471 -85 659 -54 165 -161 367 -256 485 l-35 42 25 43 c218 372 707 657 1227
716 126 14 381 12 507 -4z m-2847 -340 c358 -59 647 -196 874 -416 170 -163
282 -342 355 -565 64 -195 76 -285 75 -544 0 -204 -2 -236 -27 -351 -155 -731
-726 -1272 -1502 -1423 -457 -88 -892 -39 -1262 145 l-123 60 0 455 c0 425 -1
454 -17 454 -10 0 -152 -9 -317 -21 -165 -11 -302 -17 -307 -12 -24 24 -59
284 -59 437 0 615 281 1134 797 1473 264 173 608 286 998 327 84 9 423 -4 515
-19z m-2770 -1313 l0 -1107 453 32 c248 17 473 32 500 32 l47 1 0 -445 0 -445
-25 0 c-34 0 -1885 -128 -1957 -135 l-58 -6 0 184 0 185 39 78 c77 158 130
352 151 553 6 64 10 483 10 1112 0 555 1 1010 3 1010 5 3 745 57 790 58 l47 1
0 -1108z m-1013 -34 c-3 -1057 -4 -1074 -25 -1172 -63 -288 -171 -496 -349
-667 -214 -206 -487 -332 -848 -393 -408 -68 -805 -39 -1090 80 -174 73 -341
209 -436 357 l-39 60 21 33 c108 176 207 465 240 704 19 139 17 430 -5 565
-48 297 -155 544 -333 772 l-73 94 0 214 c0 118 1 215 3 216 9 4 1034 75 1040
72 4 -2 7 -439 7 -971 1 -1048 2 -1069 55 -1178 55 -111 170 -174 320 -174
193 0 335 71 400 200 60 119 58 83 64 1180 l6 1005 505 36 c278 20 513 37 523
38 17 1 18 -46 14 -1071z m-3967 802 c587 -102 1035 -463 1214 -979 69 -197
80 -276 81 -551 0 -217 -3 -258 -23 -359 -150 -742 -734 -1273 -1556 -1415
-564 -98 -1127 23 -1503 322 l-52 42 30 80 c87 239 76 548 -27 753 -40 79
-107 169 -166 222 -59 54 -170 128 -223 151 -19 8 -35 18 -35 22 1 4 24 25 52
46 113 88 214 245 263 411 37 123 45 309 21 454 l-17 101 29 38 c55 68 226
228 311 291 290 214 645 349 1026 390 144 16 430 6 575 -19z m-2790 -235 c143
-20 264 -55 369 -107 111 -53 231 -170 279 -270 116 -239 104 -563 -29 -783
-53 -88 -158 -181 -256 -227 l-83 -39 0 -68 0 -68 74 -21 c267 -78 453 -258
513 -497 25 -103 22 -304 -6 -410 -82 -307 -312 -521 -690 -645 -210 -68 -264
-74 -1221 -140 -399 -27 -755 -52 -792 -56 l-68 -6 0 1626 0 1626 28 1 c15 0
326 22 692 48 738 54 1004 62 1190 36z"/>
<path d="M12841 9890 c-262 -36 -471 -182 -581 -405 -63 -130 -75 -186 -74
-370 0 -146 2 -167 27 -240 100 -301 366 -476 684 -451 312 25 564 218 664
508 71 209 57 448 -38 631 -47 91 -163 210 -250 255 -115 60 -295 90 -432 72z"/>
<path d="M5048 9300 c-310 -56 -550 -294 -614 -610 -20 -100 -15 -283 10 -375
67 -241 243 -411 480 -462 101 -21 297 -13 391 17 258 82 436 267 507 528 31
113 31 317 0 427 -31 108 -83 202 -153 279 -76 83 -152 133 -259 169 -71 25
-104 30 -200 33 -63 2 -136 -1 -162 -6z"/>
<path d="M2105 9343 c-22 -1 -68 -6 -102 -9 l-63 -6 0 -315 0 -316 131 7 c234
12 359 49 437 129 63 64 85 125 85 229 0 77 -3 95 -29 145 -35 69 -97 116
-174 132 -47 10 -188 12 -285 4z"/>
<path d="M2105 8143 c-22 -1 -68 -6 -102 -9 l-63 -6 0 -360 0 -360 98 6 c382
27 512 63 612 173 62 67 84 131 84 238 0 164 -88 270 -256 310 -58 14 -254 18
-373 8z"/>
</g>
</svg>
