<?xml version="1.0" encoding="UTF-8" standalone="no"?><!DOCTYPE svg PUBLIC "-//W3C//DTD SVG 1.1//EN" "http://www.w3.org/Graphics/SVG/1.1/DTD/svg11.dtd"><svg width="100%" height="100%" viewBox="0 0 442 219" version="1.1" xmlns="http://www.w3.org/2000/svg" xmlns:xlink="http://www.w3.org/1999/xlink" xml:space="preserve" xmlns:serif="http://www.serif.com/" style="fill-rule:evenodd;clip-rule:evenodd;stroke-linejoin:round;stroke-miterlimit:2;"><path d="M0,30.715l0,128.381l32.213,-2.242c6.749,-5.624 22.355,-17.167 37.816,-18.165c20.341,-1.313 24.757,8.851 25.709,13.745l303.811,-21.141l1.928,-9.389c0.924,-4.504 5.325,-7.405 9.828,-6.481l1.619,0.332c4.503,0.925 7.404,5.325 6.48,9.828l-0.901,4.392l22.898,-1.594l-0,-128.381l-441.401,30.715Z" style="fill:#fff;fill-rule:nonzero;"/><path d="M0,30.715l0,128.381l32.213,-2.242c6.749,-5.624 22.355,-17.167 37.816,-18.165c20.341,-1.313 24.757,8.851 25.709,13.745l303.811,-21.141l1.928,-9.389c0.924,-4.504 5.325,-7.405 9.828,-6.481l1.619,0.332c4.503,0.925 7.404,5.325 6.48,9.828l-0.901,4.392l22.898,-1.594l-0,-128.381l-441.401,30.715Z" style="fill:#1d1d1b;fill-rule:nonzero;"/><path d="M385.164,88.479c-6.462,0.449 -12.567,-1.847 -17.857,-5.095c0.868,-2.719 1.491,-5.569 1.844,-8.534c3.191,1.39 6.787,2.263 10.565,2.663l6.514,0.716c2.963,0.379 7.241,0.432 7.241,4.409c0,3.977 -5.109,5.619 -8.307,5.841m-62.878,0.027c-9.854,0.686 -15.97,-6.448 -15.97,-15.473c0,-9.702 6.569,-16.816 15.97,-17.469c9.402,-0.655 15.971,5.544 15.971,15.247c0,9.025 -6.116,17.01 -15.971,17.695m-193.951,14.624c-9.401,0.654 -15.971,-5.545 -15.971,-15.247c-0,-9.025 6.116,-17.01 15.971,-17.695c9.855,-0.687 15.971,6.447 15.971,15.472c-0,9.703 -6.569,16.815 -15.971,17.47m-48.188,-15.599c0.361,-0.139 0.705,-0.298 1.048,-0.458c-0.024,0.475 -0.041,0.954 -0.052,1.436c-0.328,-0.105 -0.659,-0.207 -0.996,-0.302l-0,-0.676Zm-26.137,25.968l-3.525,0.245l-0,-14.229l3.071,-0.213c5.003,-0.349 12.963,-1.015 12.963,6.155c-0,7.057 -7.391,7.686 -12.509,8.042m-3.525,-43.993l2.162,-0.151c4.549,-0.316 10.35,-1.17 10.35,5.099c-0,5.819 -5.118,6.623 -9.668,6.94l-2.844,0.198l-0,-12.086Zm352.224,-15.348l-7.343,-1.127c-2.489,-0.411 -6.531,-0.598 -6.531,-3.873c0,-3.626 4.161,-4.967 7.005,-5.165c6.988,-0.487 13.264,2 18.83,5.356l8.764,-23.168c-8.764,-4.649 -18.12,-6.452 -28.304,-5.743c-14.638,1.019 -29.195,8.659 -35.495,21.304c-8.64,-9.442 -22.163,-14.06 -37.349,-13.004c-26.042,1.813 -47.205,19.629 -47.205,46.92c0,4.764 0.679,9.181 1.937,13.217l-9.644,0.671l-0,-55.446l-24.949,1.736l0,-0.043l-30.568,2.127l-0,46.583c-0,6.544 -0.224,12.326 -8.379,12.894c-8.155,0.568 -8.378,-5.185 -8.378,-11.728l-0,-46.583l-30.569,2.128l-0,13.359c-8.682,-8.835 -21.712,-13.346 -36.196,-12.338c-15.558,1.083 -29.438,8.3 -38.055,19.672c-4.009,-12.562 -18.322,-14.414 -32.401,-13.434l-36.238,2.522l-0,85.049l42.377,-2.949c11.27,-0.784 23.307,-5 28.591,-14.479c8.66,8.318 21.461,12.332 35.726,11.338c16.769,-1.166 31.514,-8.97 39.889,-21.665c5.898,11.592 18.512,16.323 35.254,15.158c15.683,-1.092 27.742,-6.854 34.054,-17.781l-0,12.15l54.903,-3.821l-0,-4.674c8.153,5.355 18.561,7.923 29.851,7.138c12.415,-0.865 23.761,-5.635 32.218,-13.304l-1.199,3.083c10.068,4.323 23.096,6.455 34.346,5.672c19.321,-1.344 38.744,-13.096 38.744,-34.137c-0,-14.971 -9.948,-21.53 -23.686,-23.615" style="fill:#fff;fill-rule:nonzero;"/><path d="M128.202,101.218c-4.023,0.28 -7.474,-0.806 -9.977,-3.141c-2.58,-2.407 -3.944,-5.932 -3.944,-10.194c0,-7.352 4.873,-15.135 14.187,-15.783c3.906,-0.273 7.295,0.816 9.794,3.148c2.661,2.482 4.127,6.181 4.127,10.413c0,8.714 -5.701,14.966 -14.187,15.557m12.675,-28.774c-3.296,-3.075 -7.679,-4.517 -12.675,-4.169c-10.288,0.716 -17.755,8.963 -17.755,19.608c0,5.276 1.833,9.891 5.163,12.997c2.939,2.742 6.95,4.214 11.412,4.213c0.477,-0 0.96,-0.016 1.446,-0.051c10.454,-0.727 17.755,-8.697 17.755,-19.381c0,-5.307 -1.899,-10.001 -5.346,-13.217" style="fill:#1d1d1b;fill-rule:nonzero;"/><path d="M387.518,109.997c-10.305,0.717 -22.279,-1.12 -31.744,-4.82l0.363,-0.934c0.269,-0.25 0.545,-0.491 0.808,-0.746c5.103,-4.934 8.948,-10.827 11.388,-17.309c5.799,3.167 11.489,4.588 16.964,4.203c4.86,-0.338 10.091,-2.908 10.091,-7.754c-0,-5.305 -5.237,-5.892 -8.05,-6.209c-0.297,-0.033 -0.587,-0.065 -0.899,-0.105l-6.521,-0.717c-2.216,-0.234 -5.434,-0.777 -8.715,-2.016c0.135,-1.486 0.206,-2.988 0.206,-4.503c-0,-10.882 -3.261,-20.341 -9.468,-27.628c2.212,-3.987 5.111,-7.035 7.753,-9.235c6.742,-5.614 16.061,-9.213 25.568,-9.874c9.426,-0.656 17.876,0.901 25.772,4.758l-7.361,19.458c-6.271,-3.421 -12.175,-4.887 -17.966,-4.487c-4.374,0.305 -8.789,2.612 -8.789,7.078c-0,4.576 4.755,5.268 7.309,5.639c0.288,0.043 0.566,0.083 0.848,0.129l7.347,1.128c14.841,2.252 22.056,9.357 22.056,21.72c-0,20.373 -19.159,30.985 -36.96,32.224m-16.826,-32.489c2.657,0.921 5.6,1.57 8.815,1.91l6.48,0.712c0.296,0.038 0.606,0.073 0.923,0.108c3.732,0.419 4.644,0.891 4.644,2.399c-0,2.627 -4.395,3.782 -6.523,3.929c-4.922,0.343 -10.115,-1.039 -15.474,-4.087c0.464,-1.628 0.844,-3.286 1.135,-4.971m-48.539,37.038c-10.451,0.725 -20.054,-1.485 -27.757,-6.263l0,-22.584l-15.971,1.112c-0.937,-3.496 -1.427,-7.224 -1.427,-11.154c0,-12.487 4.578,-23.422 13.238,-31.622c8.192,-7.757 19.622,-12.511 32.184,-13.384c1.393,-0.098 2.769,-0.145 4.127,-0.145c11.91,0 22.37,3.701 29.776,10.609c7.361,6.867 11.252,16.54 11.252,27.972c-0,24.509 -19.102,43.627 -45.422,45.459m-31.68,-2.381l-50.979,3.547l-0,-9.16c3.32,-5.865 5.035,-12.999 5.035,-21.293l-0,-47.603l20.884,-1.454l-0,55.446l25.06,-1.744l-0,22.261Zm-60.12,-0.823c-6.292,5.83 -15.383,9.195 -27.021,10.005c-6.203,0.433 -11.753,0.023 -16.496,-1.217c-4.761,-1.244 -8.742,-3.337 -11.834,-6.221c-1.765,-1.647 -3.247,-3.567 -4.454,-5.742c4.441,-7.237 6.909,-15.776 6.909,-25.132c0,-11.459 -3.737,-21.427 -10.822,-29.025l0,-10.835l26.361,-1.834l0,44.328c0,4.178 0,8.915 2.995,11.709c1.778,1.658 4.274,2.352 7.634,2.118c10.336,-0.72 10.336,-8.97 10.336,-14.994l0,-44.62l26.36,-1.834l0,47.211c0,11.179 -3.354,19.955 -9.968,26.083m-69.967,3.315c-8.192,7.758 -19.622,12.511 -32.184,13.385c-13.241,0.92 -24.982,-2.58 -33.206,-9.853c1.458,-3.093 2.285,-6.663 2.285,-10.756c0,-9.341 -4.607,-16.271 -13.07,-19.839c5.621,-3.658 9.093,-10.324 9.093,-17.913c0,-2.673 -0.303,-5.129 -0.903,-7.362c8.095,-10.291 20.875,-17.115 36.067,-18.172c13.282,-0.927 25.209,2.87 33.585,10.683c7.569,7.061 11.57,16.814 11.57,28.205c0,12.488 -4.576,23.422 -13.237,31.622m-76.158,10.2c-5.127,3.523 -12.352,5.769 -20.344,6.326l-40.327,2.805l0,-81.206l34.454,-2.397c12.79,-0.89 21.419,0.927 26.38,5.554c3.418,3.189 5.08,7.684 5.08,13.742c-0,5.628 -2.623,13.212 -10.013,16.061l-1.228,0.473l0,3.443l1.397,0.394c6.305,1.774 13.82,6.23 13.82,17.381c0,7.359 -3.101,13.221 -9.219,17.424m318.772,-72.594l-7.322,-1.124c-0.282,-0.047 -0.585,-0.091 -0.899,-0.136c-3.086,-0.45 -4.027,-0.88 -4.027,-1.846c0,-2.857 5.008,-3.238 5.221,-3.253c5.664,-0.394 11.298,1.221 17.707,5.086l1.97,1.187l10.175,-26.899l-1.493,-0.791c-8.975,-4.761 -18.57,-6.71 -29.336,-5.962c-10.292,0.716 -20.408,4.636 -27.755,10.753c-3.322,2.766 -6.007,5.884 -8.051,9.281c-0.086,-0.081 -0.165,-0.167 -0.252,-0.248c-9.035,-8.428 -22.092,-12.506 -36.785,-11.485c-28.844,2.007 -48.989,22.088 -48.989,48.831c0,4.004 0.462,7.823 1.357,11.425l-5.186,0.361l0,-55.446l-24.806,1.727l0,-0.187l-34.777,2.42l0,48.545c0,7.353 -0.58,10.389 -6.42,10.796c-2.129,0.15 -3.593,-0.178 -4.47,-0.998c-1.535,-1.432 -1.658,-4.617 -1.658,-8.631l0,-48.839l-34.777,2.42l0,10.839c-8.975,-7.229 -21.004,-10.687 -34.225,-9.767c-13.301,0.926 -25.563,6.208 -34.526,14.873c-0.999,0.967 -1.945,1.974 -2.847,3.011c-0.983,-1.918 -2.259,-3.611 -3.823,-5.07c-5.781,-5.393 -15.352,-7.544 -29.26,-6.576l-38.022,2.646l0,88.892l44.427,-3.091c11.136,-0.775 22.797,-4.801 28.872,-13.442c8.015,6.813 18.854,10.456 31.051,10.456c1.446,0 2.913,-0.051 4.394,-0.155c16.917,-1.177 30.839,-8.572 39.463,-19.881c1.204,1.839 2.602,3.51 4.201,5.002c6.226,5.808 15.115,8.738 26.471,8.738c1.623,0 3.298,-0.06 5.022,-0.18c14.251,-0.992 25.035,-5.63 31.946,-13.488l0,7.861l58.825,-4.094l0,-3.094c6.927,3.788 15.072,5.787 23.864,5.786c1.372,0 2.76,-0.049 4.159,-0.146l0.001,0c10.968,-0.763 21.224,-4.495 29.512,-10.637l0.617,0.265c8.948,3.843 19.966,5.991 30.317,5.991c1.66,0 3.305,-0.055 4.918,-0.168c10.526,-0.732 20.353,-4.315 27.672,-10.089c8.41,-6.635 12.856,-15.612 12.856,-25.959c0,-14.379 -8.517,-22.962 -25.312,-25.51" style="fill:#1d1d1b;fill-rule:nonzero;"/><path d="M52.402,79.536l0,-8.242l0.377,-0.026c0.287,-0.02 0.578,-0.042 0.873,-0.065c2.421,-0.183 5.434,-0.411 6.642,0.708c0.194,0.18 0.786,0.729 0.786,2.543c0,3.349 -1.99,4.617 -7.885,5.027l-0.793,0.055Zm12.512,-5.082c0,-2.314 -0.678,-4.116 -2.013,-5.354c-2.435,-2.257 -6.208,-1.971 -9.538,-1.72c-0.287,0.022 -0.571,0.044 -0.85,0.063l-3.945,0.275l0,15.928l4.894,-0.34c3.427,-0.239 11.452,-0.797 11.452,-8.852" style="fill:#1d1d1b;fill-rule:nonzero;"/><path d="M53.877,111.586l-1.475,0.103l-0,-10.386l1.516,-0.105c3.062,-0.215 7.688,-0.538 9.628,1.27c0.711,0.663 1.057,1.641 1.057,2.988c-0,4.526 -3.77,5.646 -10.726,6.13m-0.226,-14.213l-5.083,0.354l-0,18.072l5.575,-0.389c4.64,-0.322 14.293,-0.994 14.293,-9.954c-0,-2.435 -0.765,-4.383 -2.275,-5.792c-3.159,-2.945 -8.563,-2.567 -12.51,-2.291" style="fill:#1d1d1b;fill-rule:nonzero;"/><path d="M322.154,86.593l-0.001,0c-3.904,0.273 -7.294,-0.817 -9.793,-3.148c-2.661,-2.482 -4.127,-6.18 -4.127,-10.412c-0,-8.716 5.701,-14.968 14.187,-15.558c0.414,-0.029 0.822,-0.043 1.223,-0.043c3.5,0 6.509,1.089 8.754,3.184c2.58,2.407 3.944,5.932 3.944,10.193c-0,7.353 -4.873,15.136 -14.187,15.784m12.858,-28.78c-3.253,-3.035 -7.822,-4.51 -12.858,-4.163c-10.454,0.727 -17.755,8.698 -17.755,19.383c-0,5.306 1.899,10 5.346,13.216c2.975,2.774 6.834,4.219 11.23,4.219c0.476,0.001 0.958,-0.017 1.445,-0.05l-0.001,-0.001c10.289,-0.715 17.756,-8.961 17.756,-19.608c-0,-5.274 -1.834,-9.889 -5.163,-12.995" style="fill:#1d1d1b;fill-rule:nonzero;"/><path d="M71.072,185.537c-0,-0 0.102,-0.007 0.102,-0.109c0.101,-0.007 0.101,-0.213 -0,-0.205c1.425,-0.918 2.851,-2.144 3.971,-3.245c6.823,-6.618 14.563,-15.14 14.563,-24.965c-0,-1.126 -1.019,-7.911 -3.361,-7.747l-0.102,0.007l0.306,0.388c-0.204,0.014 -0.509,-0.271 -0.713,-0.36l0.102,-0.109l-0.509,-0.374c0.102,0.095 0.102,0.198 -0,0.205c-0.102,0.007 -0.102,-0.3 -0,-0.308l-0.408,-0.277c-0,-0 0.102,-0.008 0.102,-0.11c0.102,-0.007 0.102,-0.212 -0,-0.204c-0.102,0.007 -0.102,0.211 -0,0.204l-0.102,-0.095c-0.101,0.006 -0.101,0.212 -0,0.205c-0.712,-0.36 -1.527,-0.61 -1.934,-1.195l0.101,-0.008c0.102,-0.007 0.408,0.074 0.509,0.169c-2.138,-2.92 -10.183,-3.176 -13.034,-2.977c-11.203,0.783 -21.386,7.329 -29.431,15.26c-2.037,2.496 -4.379,5.115 -6.722,7.428c-1.425,1.84 -2.342,6.406 -4.277,7.77l-0,0.511c-0,0.307 0.102,0.607 0.204,1.009l-0,-0.204c0.102,-0.008 0.102,0.3 -0,0.307c0.611,1.901 2.75,4.207 4.583,4.08c0.509,-0.036 1.833,-0.538 1.833,-1.152c-0,-0.614 -0.51,-0.373 -0.713,-0.769l-0.102,0.11l-0.102,0.007c-0.509,0.035 -1.12,-0.842 -1.12,-1.252c-0,-0.102 -0.102,-0.71 -0.102,-0.812c-0,-1.841 1.019,-4.574 2.444,-5.696c2.953,-4.198 6.314,-8.015 10.286,-11.363c0.102,-0.007 0.305,-0.226 0.407,-0.335l2.444,-1.911l-0,0.205c-0,0.614 -0.916,1.496 -1.12,2.33l-10.184,23.123l-2.953,8.495c-0.102,0.52 -0.305,1.147 -0.611,1.578l-1.528,7.066c-1.12,1.613 -0.916,6.204 -0.916,7.739c-0,3.479 0.204,10.731 5.295,10.374c2.139,-0.149 1.324,-3.264 2.241,-3.942c0.305,-1.454 -0,-3.48 0.713,-4.859c0.509,-3.208 1.527,-7.476 2.342,-10.398l2.037,-6.282l0.102,-0.008c1.323,1.545 2.342,1.986 4.48,1.836l1.324,-0.092c2.75,-1.012 9.98,-4.382 12.424,-4.553c0.204,-0.015 0.306,-0.021 0.204,0.19c0.509,-0.343 1.324,-0.604 1.629,-1.137l-0.203,-0.089l0.102,-0.109l0.101,-0.007l0.102,0.095l0.102,-0.006c0.102,-0.008 0.204,-0.117 0.204,-0.22c-0.102,0.008 -0.102,-0.197 -0.102,-0.3c-0.306,0.227 -0.713,0.357 -1.12,0.386l-0.102,0.007l0.102,-0.109c0.407,-0.336 2.24,-1.283 3.055,-1.851c0.407,-0.233 1.324,-0.707 1.425,-0.714l0.204,0.19c-0.611,0.452 -1.018,0.379 -1.629,1.035l0.102,-0.007c0.305,-0.021 2.24,-1.078 2.647,-1.72l-0.101,0.007c-0.306,0.021 -0.51,0.445 -0.815,0.466c-0.102,0.008 -0.204,0.015 -0.204,-0.087c0.509,-0.241 1.019,-0.481 1.528,-0.824c-0.102,0.007 -0.102,0.11 -0.102,0.212l-0,-0.102c-0.102,0.007 -0.102,0.212 -0,0.204m5.193,-36.077c-0.101,0.006 -0.101,-0.198 -0,-0.206c0.102,-0.006 0.102,0.198 -0,0.206l1.121,0.228c-0,-0 0.102,-0.109 0.203,-0.117c-0,-0 0.102,0.095 -0,0.205c3.056,0.708 5.805,2.357 5.805,5.529c-0,7.266 -8.758,12.689 -12.729,17.571l-5.194,4.457l-12.017,8.924l-4.175,2.441c-0.408,0.234 -1.63,0.831 -1.731,0.838l-0.51,0.035c-0,-2.967 2.546,-7.136 3.768,-9.882c-0.305,-1.104 1.528,-2.871 1.528,-4.099l0.102,-0.108c-0,-0 0.102,-0.11 0.102,-0.212l7.535,-18.538c0.815,-0.672 1.019,-1.299 1.019,-2.323c-0,-0.41 -3.157,-1.315 -3.463,-1.395l-0,-0.205c-0,-0.819 2.648,-1.617 5.601,-2.233c-0.101,0.007 -0.101,-0.301 0.102,-0.315c0.102,-0.007 0.102,0.3 -0,0.307c2.852,-0.608 6.009,-1.034 6.925,-1.098l2.852,-0.2c0.916,0.039 2.036,0.063 3.156,0.19m31.468,19.289l-0.102,0.007l-0,0.103c-0.102,0.007 -0.102,-0.301 -0,-0.308l-0,0.103c-0,-0.103 -0,-0.205 0.102,-0.212l0.102,-0.007c-0.204,0.014 -0.306,-0.081 -0.408,-0.177l0.102,-0.108c-0.102,-0.198 -0.305,-0.082 -0.305,-0.286l0.203,-0.014c-0,-0 -0.101,-0.403 -0.203,-0.395l-0.204,0.116l-0.102,0.007l-0,-0.307c-0.203,-0.088 -0.611,-0.06 -0.611,-0.367l-0.102,0.11l-0.102,0.007l0.102,-0.212c-0.102,-0.198 -1.018,-0.747 -0.916,-0.754c-0.102,0.007 -0.102,0.007 -0.102,-0.095c-0,0.102 -0.102,0.108 -0.102,0.108c-0.102,0.008 -0.102,-0.196 -0,-0.204c-1.222,-1.245 -3.157,-1.314 -4.888,-1.193c-4.786,0.335 -9.369,3.111 -13.239,6.043c-0.509,0.24 -2.138,0.66 -1.833,1.356l-3.055,2.772l-0.611,0.042l-0,0.205c0.407,0.38 1.63,1.319 1.731,1.926c0.102,0.095 -0,0.307 -0.101,0.314c-3.361,7.501 -7.536,16.286 -7.536,24.473c-0,1.842 0.611,6.506 3.36,6.314c0.917,-0.064 1.324,-0.502 1.833,-1.253l2.037,-3.111l-0,-0.102l-0.102,-0.095c-0.509,0.035 -0.916,0.78 -1.527,0.823c-0,-0.716 1.222,-5.407 1.731,-5.443l0.102,-0.006c0.102,0.095 0.407,0.278 0.509,0.271c0.305,-0.021 1.731,-0.428 1.833,-0.742c0.815,-0.364 1.018,-0.378 1.629,-0.421c2.037,-0.142 4.176,0.527 6.009,1.217c3.564,1.797 8.859,5.008 13.34,4.696c1.833,-0.129 3.055,-0.828 4.074,-2.434c-0,-0.103 -1.833,-0.179 -2.037,-0.37l-13.442,-6.53c-0.51,-0.374 -1.935,-0.581 -1.935,-1.195l1.527,-1.232c3.768,-3.027 7.332,-7.267 9.98,-11.137c1.935,-1.567 4.583,-5.744 4.583,-8.2c-0,-0.102 -0.102,-0.095 -0.102,-0.198l-0,-0.204l0.102,-0.621l-0,-0.102c-0,-0.103 -0.102,-0.096 -0.102,-0.198l0.102,-0.211l-0,-0.103c-0,-0.819 -0.408,-2.428 -1.018,-2.897c-0,0.103 -0.103,0.11 -0.103,0.11l-0.101,0.007c0.101,0.095 -0,0.307 -0.102,0.314m-5.499,1.715c-0.102,0.007 -0.102,-0.198 -0,-0.205c0.102,-0.007 0.102,0.198 -0,0.205l0.713,-0.05c-0,5.015 -8.249,12.345 -11.61,15.139c-1.425,1.225 -5.193,4.149 -5.295,4.157l-0.204,0.013l4.481,-12.797c0.916,-2.418 5.499,-3.966 7.434,-4.92c-0.102,-0.096 -0.204,-0.191 -0.204,-0.293l-0,-0.103c0.102,0.198 0.204,0.293 0.408,0.279l0.102,-0.007l-0.102,-0.095l0.305,-0.022l-0.102,-0.095l0.306,-0.021l-0.102,-0.096c0.509,0.067 0.815,-0.261 1.324,-0.502c-0.102,0.007 -0.204,-0.087 -0.204,-0.19l0.102,-0.007c0.204,-0.015 0.509,0.067 0.713,0.052l0.204,-0.014c0.407,-0.131 1.323,-0.399 1.323,-0.399l-0,-0.103c-0,-0 0.102,-0.007 0.204,0.088l0.204,-0.014Zm4.786,12.867l-0.102,0.007l-0.815,2.104l0.102,-0.008c0.102,-0.008 0.102,0.198 -0,0.205l-0.203,0.014l-1.222,3.156c-0,0.102 -0.204,0.832 -0.306,1.044l-0,0.103l0.102,-0.008c-0,0.103 0.102,0.301 -0.102,0.314c-0.102,0.008 -0.204,-0.088 -0.204,-0.088l-0,0.512l-0.305,-0.081c0.102,0.198 -0,0.511 -0.102,0.724c0.102,-0.008 0.102,0.198 -0,0.204l-0,-0.102c-0,0.102 -0.102,0.11 -0.102,0.11c0.102,-0.008 0.102,0.197 -0,0.204l-0,0.103l-0.203,0.013c-0,0.206 0.101,0.301 0.203,0.498l-0,-0.102c0.102,-0.008 0.102,0.197 -0,0.204c0.306,0.388 0.713,0.77 0.917,0.754l-0,0.513l0.102,-0.11c-0,0.307 0.203,0.498 0.509,0.681l-0.306,-0.491l0.408,0.381l0.102,-0.006l-0,-0.307l0.712,0.563c-0,-0.101 0.102,-0.109 0.102,-0.006c-0,0.101 -0.102,0.109 -0.102,0.109c0.917,0.652 2.037,1.393 3.259,1.307c0.102,-0.007 0.306,-0.124 0.306,-0.124c-0,-0.204 0.203,-0.219 0.305,-0.226c0.204,-0.014 0.204,0.089 0.306,0.081c0.509,-0.035 0.814,-0.875 0.712,-1.278c0.102,-0.006 0.102,0.096 0.204,0.089l0.102,-0.008c-0,-0.102 0.815,-4.56 1.324,-4.595l0.916,-0.064c-0,-0.204 0.51,-0.138 0.51,-0.138l-0.204,-0.088l0.815,-0.057c-0,-0.102 0.102,-0.212 0.102,-0.212l0.611,-0.042l-0.306,-0.081c0.102,-0.008 0.509,-0.241 0.611,-0.248l0.102,-0.007l0.102,0.197c0.611,0.162 0.305,-0.123 0.305,-0.226c0.408,-0.028 0.408,0.074 0.713,-0.151l-0.102,-0.096c0.408,-0.028 0.713,-0.254 1.018,-0.173l-0.101,-0.096c1.222,0.12 2.953,-1.843 3.462,-2.8l-0,0.614c-0,1.125 -0.407,10.671 -0.407,11.797l-0,0.102c-0,1.023 1.528,4.703 1.222,5.543l2.138,1.795c-0,-0.103 -0.101,-0.198 -0.101,-0.198l-0,-0.204c0.101,0.197 0.305,0.285 0.509,0.271l-0,-0.205c0.305,-0.021 0.204,-0.321 0.509,-0.444l-0,0.306c0.204,-0.423 1.629,-0.728 1.629,-1.546l-0.101,0.007c-0.102,0.007 -0.204,-0.191 -0.306,-0.183l-0.102,0.007c0.102,-0.007 0.102,0.197 0.102,0.197l-0,0.103l-0.204,-0.089l0.102,0.198l-0,0.103c-0,0.102 -0.102,0.211 -0.102,0.314l-0.102,0.007c-0,-0.102 -0.203,-0.088 -0.203,-0.191l0.102,0.403c-0.408,-0.177 -0.204,-0.498 -0.204,-0.703c0.407,-0.028 0.611,-0.758 0.815,-1.08l0.102,0.3l-0.204,0.014c-0,0.103 0.102,0.095 0.102,0.198c-0,-0 -0,0.102 0.102,0.197c0.101,-0.11 0.101,-0.211 0.101,-0.314c-0,-0.307 -0.101,-0.504 -0.101,-0.709c-0,0.306 0.203,0.599 0.305,1.002l-0,-0.819c-0.102,0.007 -0.102,-0.095 -0.102,-0.197l-0,-0.103l0.204,0.191c0.204,-1.038 0.814,-1.797 0.713,-2.813l0.101,0.198c0.103,-0.212 0.103,-0.315 0.103,-0.52l-0,-0.204l-0.103,-0.095c-0,-0.103 0.103,-0.212 0.103,-0.314l0.101,0.299c0.204,-0.73 0.306,-1.556 0.204,-2.265l0.305,0.183l-0,-0.409c-0,-0.41 0.408,-4.224 0.408,-4.634l-0,-0.306l0.305,-5.446l0.204,-3.903l-0.102,0.007c-0.102,0.008 -0.102,-0.197 -0,-0.204c0.102,-0.007 0.102,0.095 0.102,0.197l0.204,-2.47l-0,-1.228c-0,-0.102 -0,-2.66 -0.102,-2.756l-0.204,-0.088c0.204,-1.243 -0.102,-0.504 -0.102,-1.119l0.306,0.081l-0.204,-0.19c-0,-0.307 -0.509,-4.774 -1.731,-4.689l0.203,0.293l-0.101,0.109c0.305,0.287 0.713,0.769 0.713,1.179l-0.102,0.11c-0.102,-0.096 -0.306,-0.798 -0.407,-0.791l-0.204,0.117l-0.306,0.021c-0,-0.409 -0.102,-0.709 -0.611,-0.776l0.204,-0.219l-0,-0.102l-0.509,-0.271l-0.102,-0.096c-0,-0 0.102,-0.008 0.102,-0.109c0.102,0.197 0.203,0.19 0.305,0.183l0.204,-0.014c-0.407,-0.074 -0.509,-0.885 -0.917,-0.857l-0.102,0.007l0.102,0.095c-0.203,0.015 -0.407,-0.688 -0.611,-0.775c-0,0.102 0.204,0.395 0.204,0.395l-0,0.204l-0.611,-0.572l0.204,-0.218c-0,-0.102 -0.306,-0.388 -0.408,-0.483l-0.101,0.007c0.203,0.088 0.203,0.19 0.203,0.395l-0,0.102c-0.102,0.007 -0.203,-0.088 -0.305,-0.183c0.102,-0.008 0.102,-0.314 -0,-0.307c-0.102,0.007 -0.102,0.314 -0,0.307c-0.51,-0.271 -0.917,-0.857 -1.426,-0.821l-0.102,0.007c0.509,0.169 0.713,0.359 0.713,0.973l-0.102,0.008c-0,-0.103 -0.102,-0.505 -0.102,-0.607l-0.102,-0.096l-0,0.205c-0.101,-0.3 -0.713,0.152 -0.61,-0.264l0.305,-0.022l-0.408,-0.176l0.103,-0.109c-0.204,0.013 -0.306,-0.081 -0.408,-0.177c0.102,-0.007 0.102,0.3 -0,0.308c-0.102,0.007 -0.102,-0.3 -0,-0.308c-0.713,-0.154 -1.324,-0.214 -2.037,-0.164c-0.509,0.035 -1.12,-0.024 -1.527,0.311l0.102,0.096l-0.408,0.028c-3.258,0.227 -9.98,12.364 -10.795,14.365l-0.916,2.316c0.204,-0.015 0.204,0.191 -0,0.205m12.933,-8.58c0.408,-0.745 0.815,-1.08 1.324,-1.627l0.102,-0.008c0.407,-0.028 0.306,2.844 0.306,2.844l-0,1.433c-0.102,1.747 -0.204,5.643 -0.204,5.643l-0.509,0.137l-5.601,1.21l-0.713,0.051c0.611,-1.578 1.425,-3.17 2.24,-4.659c-0.102,-0.096 0.204,-0.322 0.204,-0.322c0.713,-1.176 2.342,-2.926 2.342,-4.053c-0,-0 -0.102,-0.299 -0.204,-0.292l0.306,0.183l0.204,-0.219l-0,-0.103l-0.204,-0.19l0.306,-0.021l-0.102,-0.198l0.203,0.191Zm42.772,23.002c0.101,-0.007 0.101,-0.211 -0,-0.205c0.101,-0.006 0.101,-0.212 0.305,-0.226l-0,0.205l0.102,-0.007c-0,-0.204 -0,-0.615 0.305,-0.738l-0,0.307c0.102,-0.007 0.102,-0.109 0.306,-0.124l-0,-0.409c-0,-0 -0,-0.102 0.102,-0.109l0.102,0.095c0.713,-0.152 0.305,-0.635 0.814,-1.182c0.306,-0.022 -0,0.409 0.306,0.387c0.102,-0.007 0.203,-0.014 0.203,-0.116l-0.101,-0.095c-0,-0.103 -0.102,-0.198 -0.102,-0.198l0.713,-0.766c-0.102,-0.095 -0,-0.205 0.102,-0.212l0.407,-0.029c-0.102,-0.198 -0.102,-0.198 -0.102,-0.402c-0,-0.819 1.833,-1.663 1.833,-2.482c0.102,-0.006 0.102,0.095 0.204,-0.116c0.407,-0.54 5.805,-8.797 5.805,-8.9c-0,-0.102 -0.102,-0.197 -0.102,-0.197l0.102,-0.11l0.203,0.089c-0,-0 0.102,-0.11 0.102,-0.212l-0,-0.103l-0.102,-0.095c1.121,-0.181 2.75,-3.364 2.852,-3.474c-0,-0.102 0.102,-0.212 0.102,-0.212l-0,-0.205l-0.51,0.65l-13.544,11.795c-1.833,1.56 -5.397,4.573 -8.045,4.758l-0.306,0.021l-0.814,-0.762l-0.102,0.007c-0,-0.306 0.102,-0.518 0.102,-0.826c-0,-0.818 -0.408,-1.403 -0.408,-2.324l0.102,-0.008c-0,-0.306 -0,-0.613 0.204,-0.832l-0,0.307c-0,-0.614 0.305,-1.557 0.204,-2.164l0.305,0.081l-0,-0.613c-0,0.101 0.102,0.196 0.204,0.292c-0.102,-0.3 0.203,-0.526 0.203,-0.833l-0,-0.102c-0.101,0.109 -0.101,0.211 -0.101,0.211l-0.102,0.007l-0.204,-0.087l-0.101,0.007c-0,-0.102 0.203,-0.526 0.407,-0.541c-0,-0.511 0.305,-0.43 0.407,-0.846c1.12,-3.763 3.055,-8.606 4.481,-12.083c0.203,-0.321 0.407,-0.744 0.407,-1.153c0.509,-0.957 1.222,-2.133 2.037,-2.804l0.102,-0.007c0.407,-0.029 0.407,0.279 0.611,0.264c-0,0.615 0.305,1.207 0.305,1.924c-0,1.636 -0.204,5.335 -2.342,5.791c0.713,0.77 1.935,0.786 2.444,1.467l0.102,-0.212l1.935,-0.135c-0.102,0.007 -0.102,-0.198 -0,-0.204c0.101,-0.008 0.101,0.196 -0,0.204l0.101,-0.008c-0,-0 0.103,-0.108 0.204,-0.116c0.102,-0.109 0.306,-0.123 0.509,-0.036l-0.101,-0.095c0.305,-0.123 0.712,-0.459 0.916,-0.677l0.204,0.088l-0.102,-0.198l0.102,-0.212l0.102,-0.007c0.102,-0.007 0.102,0.197 0.102,0.197c0.101,-0.007 0.101,-0.109 0.101,-0.109l0.102,-0.11l-0.102,0.008c0.408,-0.028 0.815,-1.797 0.713,-2.097l0.204,0.089c-0,-0.205 -0.102,-0.403 -0.204,-0.601l0.204,0.088c0.815,-1.285 1.018,-3.959 1.018,-5.29c-0,-0.409 -0,-0.921 -0.305,-0.9c-0,-1.023 -0.306,-1.717 -1.019,-2.282l0.102,-0.007l0.306,0.081l0.203,-0.014c-0.305,-0.388 -1.018,-0.543 -1.222,-1.041l0.204,-0.218l-0.204,-0.191l0.204,-0.014l-0.305,-0.183c-0,0.102 0.101,0.095 0.101,0.197c-0.305,-0.081 -0.713,-0.052 -0.814,-0.352l0.203,-0.219c-0.102,0.007 -0.407,-0.073 -0.814,-0.046c0.101,-0.006 -0,0.102 -0,0.102c-0.102,0.008 -0.102,-0.094 -0.102,-0.094l-0.815,-0.148c0.102,-0.008 0.102,0.198 -0,0.205c-0.102,0.007 -0.102,-0.198 -0,-0.205c-1.018,-0.032 -2.037,-0.164 -1.935,-0.377l-1.527,0.108c-0,-0.205 -0.306,-0.286 -0.51,-0.17l0.102,-0.11l-0.102,0.008c-0.61,0.043 -1.527,0.619 -2.138,0.968c0.204,0.088 0.102,0.096 0.102,0.198l-0.306,0.021c-0,-0.102 -0.102,-0.402 0.102,-0.519l-0.204,0.015c-0.102,0.109 -0.305,0.225 -0.407,0.233c-0,-0.102 -0.102,-0.198 -0.102,-0.3c0.306,0.081 0.611,-0.146 0.713,-0.254l-0.204,-0.191l-0.102,0.007c-0.203,0.015 -0.407,0.233 -0.611,0.247c-0,1.023 -3.258,3.913 -3.869,5.081l-4.277,8.588c-1.528,3.893 -3.055,7.786 -3.055,11.88c-0,7.47 7.23,9.523 7.332,10.13c0.102,-0.11 0.203,-0.22 0.102,-0.315c0.204,0.191 0.611,0.367 0.814,0.353c0.102,-0.008 0.102,-0.109 0.102,-0.109l0.102,0.095c0.203,-0.014 0.713,0.052 0.815,0.045c0.101,-0.212 0.407,-0.13 0.509,-0.138l0.713,-0.152c0.102,-0.007 0.305,0.081 0.407,0.074l0.204,-0.22c0.101,0.096 0.203,-0.013 0.305,-0.021c-0,0.205 0.102,0.198 -0.102,0.314l0.102,-0.006c0.407,-0.029 1.12,-0.693 1.426,-0.612c1.12,-0.59 2.138,-1.275 3.157,-2.063l0.102,-0.007c-0.102,0.007 -0.102,0.212 -0,0.205m18.839,-22.193c0.102,-0.008 0.102,-0.212 -0,-0.205l0.204,-0.015l-0,-0.511c0.204,-0.424 1.222,-2.746 1.528,-3.279c-0,-0 0.101,-0.212 0.101,-0.315l-0,-0.102c-0,-0.103 -0.101,-0.198 -0.101,-0.198l-0.102,0.008c-0.102,0.007 -0.102,0.109 -0.306,0.124l-0.203,0.014c-0,-0.103 0.101,-0.315 0.101,-0.417l0.102,-0.109c-0,-0.716 -1.222,-0.324 -1.222,-0.631l-0,-0.205l0.611,-0.043c-0.203,-0.293 -1.018,-0.133 -1.324,-0.316l-0,0.102c-0.407,0.029 -0.407,-0.176 -1.018,-0.133l-0.102,0.007l0.51,0.169l-0.204,0.014c-0.408,0.028 -0.713,0.049 -0.815,-0.352c-0.407,0.13 -0.815,0.159 -1.12,0.18l-0.509,0.036l-0.102,-0.198c-0,-0 -0.713,0.255 -0.917,0.372l-0.102,0.007l-0.305,-0.082l-0.102,0.007c-0.713,0.051 -3.87,9.482 -4.277,10.635c-0.407,3.508 -1.018,6.417 -1.018,10.1l-0.204,0.015c-0,1.33 0.916,4.439 2.749,4.31l0.306,-0.123l0.204,-0.014l-0.102,-0.095l0.509,-0.548l-0,0.511c1.222,-0.085 1.731,-3.395 1.731,-4.214l-0.102,-0.197c-0.101,0.416 -0.916,1.701 -1.018,1.708c-0,-1.023 1.629,-2.877 1.324,-3.571l0.204,0.087l-0,-0.102c-0,-0.205 0.203,-0.628 0.203,-0.731l3.564,-7.924l-0,-0.307c-0.407,0.643 -1.018,1.504 -1.018,2.118l-0.102,0.007c-0,0.307 -0.203,0.628 -0.305,0.84l-0.204,-0.088c0.306,0.695 -1.324,2.037 -1.018,2.834c-0.204,0.014 -0.204,-0.088 -0.204,-0.19c-0,-0.716 1.12,-4.172 1.833,-4.222l-0,-0.409l0.102,-0.007c0.102,-0.008 1.833,-4.12 1.935,-4.229l0.102,-0.11l0.102,0.198l-0,-0.41l0.101,-0.006c-0.101,0.006 -0.101,0.212 -0,0.205m5.092,-17.753c0.408,-0.029 1.12,-0.385 1.12,-0.898l-0,-1.944c-0,-0 -0.101,-0.198 -0.101,-0.3c-0.815,-1.478 -2.852,-2.87 -4.685,-2.742c-0,2.456 0.407,6.111 3.666,5.884m-3.573,47.324c-0.093,0.006 -0.093,-0.301 -0,-0.308c0.102,-0.007 0.102,0.3 -0,0.308c0.102,-0.008 0.204,0.087 0.612,0.264l0.101,-0.11l0.204,0.088c0.102,-0.007 0.102,-0.109 0.102,-0.109l0.102,0.095l0.102,-0.007c0.305,-0.021 0.61,-0.452 0.916,-0.474c0.204,-0.014 0.306,0.184 0.509,0.169c0.314,-0.022 0.408,-0.335 0.509,-0.24c1.528,-1.744 2.343,-4.666 2.445,-6.822l1.841,-9.237l-0,-0.307c-0,-2.047 0.603,-4.647 1.01,-6.825c0.203,-1.549 0.916,-5.283 1.018,-5.29l0.102,-0.11l-0.102,-0.095l0.204,-0.116c-0.102,0.007 -0.102,-0.198 -0.102,-0.198c-0,-0.102 0.306,-0.533 0.407,-0.642l-0.101,-0.096c-0,-0.102 0.203,-0.116 0.305,-0.123l-0,-0.205l-0.407,0.029c0.305,-0.124 0.305,-0.84 0.203,-0.935l0.204,0.087c0.102,-0.006 0.102,-0.109 0.102,-0.109l0.306,0.183l-0,-0.102c-0,-0.102 -0.408,-0.688 -0.51,-0.783l0.102,-0.008c0.102,-0.006 0.102,0.198 0.102,0.198l-0,-1.023l0.204,-0.116l-0,0.818c0.305,-0.942 0.713,-2.097 0.713,-3.017c0.203,-0.015 0.101,-0.11 0.407,0.073l-0.102,-1.118c-0.102,-0.402 0.611,-1.066 0.509,-1.776c0.102,0.198 0.204,0.396 0.204,0.6c0.204,-0.424 0.102,-0.314 0.102,-0.723c-0,-0 0.102,0.095 0.203,-0.015c-0,-0 -0,-0.204 0.111,-0.212l-0,0.103c-0,2.558 -0.416,5.452 -0.314,8.004l-0.815,8.039c-0.305,0.635 -0.407,1.051 -0.407,1.665c-0,0.409 -0,0.614 0.611,0.776l0.101,-0.007c0.111,0.095 0.408,0.176 0.408,0.176l0.102,-0.109l0.102,0.095c-0,0.103 -0,0.307 -0.204,0.322l-0.204,-0.089c0.204,0.191 0.408,0.279 0.713,0.36c-0.093,0.006 -0.093,-0.198 -0,-0.205c0.102,-0.007 0.102,0.198 -0,0.205l0.407,0.278c-0,0.205 0.102,0.403 0.204,0.395l-0,-0.102c0.408,-0.028 0.509,-0.035 0.509,0.271l-0.204,0.015c-0,0.102 0.103,0.095 0.103,0.095l0.305,0.183c0.204,-0.116 0.102,-0.006 0.102,-0.212c0.407,-0.028 -0.102,-0.504 0.611,0.367l0.203,-0.116c0.102,0.197 0.204,0.599 0.51,0.578c-0,-0.102 -0.102,-0.197 -0.204,-0.19l0.306,-0.022c0.203,-0.014 0.407,-0.131 0.509,0.067l-0,-0.103l0.712,-0.766l-0,0.307c0.102,-0.007 0.204,-0.117 0.204,-0.117l0.102,-0.006c-0,0.102 0.102,0.197 0.102,0.197l0.204,-0.219l0.203,0.191c0.611,-0.35 0.204,-0.219 0.204,-0.526l0.204,-0.014l1.018,-3.448l-0,-0.512l0.102,-0.008l0.713,-2.096l0.203,-0.526l-0,-0.205l0.111,-0.007c-0,-0 0.297,-0.737 0.5,-1.058c0.212,-0.629 0.713,-1.278 1.019,-1.914c-0.102,-0.095 -0.102,-0.198 -0,-0.307l0.101,-0.109l-0.101,-0.198l0.203,0.191l-0,-0.102l-0.102,-0.199l-0,-0.102l0.306,-0.021l-0,-0.102l0.102,-0.008l-0,-0.102c-0,-0.102 -0.204,-0.293 -0.204,-0.395l-0,-0.102l0.204,0.088l-0,-0.205c0.203,0.088 -0,0.205 0.203,0.293c0.102,-0.008 0.102,-0.212 0.102,-0.212c0.102,-0.007 0.102,-0.007 0.102,-0.11c-0.204,0.015 -0.305,-0.08 -0.305,-0.182l0.305,-0.022c-0,-0.307 0.306,-1.352 0.815,-1.694c-0.102,0.007 -0.102,0.212 -0,0.204c0.102,-0.006 0.102,-0.211 -0,-0.204c0.102,-0.007 0.203,-0.117 0.305,-0.124l0.212,0.087l-0.212,-0.394l0.306,-0.021c-0,-0 -0.094,-0.301 -0.094,-0.404c-0,-0 0.094,-0.005 0.094,-0.108l0.102,-0.007c0.102,-0.11 0.102,-0.314 0.305,-0.431c0.102,-0.007 0.212,0.088 0.306,0.081c-0.094,0.007 -0.204,-0.292 -0.204,-0.292c-0,-0.103 0.11,-0.213 0.204,-0.322l0.204,0.293l-0,-0.102c-0,-0.103 -0.102,-0.199 -0.102,-0.3c-0,-0 -0,-0.103 0.102,-0.11c-0,0.102 0.101,0.198 0.203,0.19l-0,-0.409l0.204,-0.014c-0,-0.103 0.305,-0.738 0.509,-0.854l0.204,0.088l-0.102,-0.198l-0,-0.102l0.203,-0.014c-0.101,0.007 -0.101,0.211 -0,0.205c0.102,-0.008 0.102,-0.212 -0,-0.205l0.102,-0.007l-0,-0.205l0.204,-0.014c-0,-0.103 -0.102,-0.3 -0.102,-0.402l-0,-0.103l0.204,-0.014l-0,-0.205l0.407,-0.028l-0.102,-0.198l0.612,-0.759l0.101,-0.007l-0,0.205c0.102,-0.007 0.102,-0.007 0.204,-0.117l-0,-0.102c-0.102,0.006 -0.102,-0.3 -0.204,-0.293c0.306,0.183 0.823,-0.876 0.917,-0.883l0.102,-0.007c-0.102,0.007 -0.102,0.211 -0,0.205l-0.102,-0.095c-0.094,0.006 -0.094,0.211 -0,0.204c-0,-0 0.102,-0.007 0.102,-0.109c0.101,-0.007 0.203,-0.117 0.101,-0.212l0.102,-0.007l-0.203,-0.19c0.203,-0.015 0.305,-0.227 0.517,-0.242l-0,-0.102l0.196,0.089c-0,-0.102 -0.102,-0.197 -0.102,-0.3l-0,-0.102l0.102,0.3l-0,1.432l-1.019,5.802c0.204,1.623 -0.407,4.327 -0.407,5.964c-0,2.968 1.731,10.829 5.906,10.537c0.408,-0.029 1.121,-0.18 1.121,-0.692c-0,-1.638 -1.426,-3.789 -1.426,-5.836l-0,-0.103l0.203,0.498c-0.093,-0.505 -0.093,-1.017 -0,-1.637c-0,0.102 -0.093,0.211 -0.093,0.313l-0.11,-0.197l-0,-1.535c0.11,-0.008 0.203,-0.423 0.203,-0.628c-0,0.205 0.102,0.505 0.102,0.709c-0,-0.512 0.102,-0.928 0.102,-1.44c-0.102,0.007 -0.102,-0.095 -0,-0.102l-0,-0.614l0.204,-0.014c0.102,-0.008 0.509,-4.129 0.407,-4.327l0.102,0.198l-0,-0.921c0.204,-0.117 0.407,-0.847 0.407,-1.053l-0,-0.101l-0.101,0.109l-0,-0.307l0.101,-0.007l0.204,0.088l-0.102,-0.3l0.102,-0.109l-0,-0.41l-0.102,0.007l-0,-0.307c0.102,-0.006 0.102,-0.211 0.204,0.19l-0,-0.511l0.203,0.089c-0.102,-0.3 -0.203,-0.293 -0.203,-0.498l0.101,-0.007c-0,-0.103 -0,-0.205 -0.101,-0.198c0.305,-0.123 0.305,-0.533 0.305,-0.84l-0,-1.023l0.102,-0.008l-0,-1.023l0.306,-0.226l-0.102,-0.811l-0,0.716c-0,-0.102 -0.102,-0.811 -0,-0.921c-0,-0.102 -0,-0.614 0.102,-1.03l-0,1.023l0.101,-1.952c-0.713,-0.461 0.306,-1.761 -0.611,-2.106l-0.203,-0.088c0.203,0.293 0.305,0.695 0.305,1.104l-0,0.205c-0.102,-0.197 -0.509,-0.169 -0.509,-0.476c-0,0.102 0.204,0.088 0.305,0.081c-0,-0.717 -1.018,-1.259 -1.221,-1.961c-0,0.102 -0.102,0.314 -0.306,0.328c-0.102,0.007 -0.297,-0.184 -0.407,-0.177l0.11,-0.109c-0.11,-0.095 -0.212,-0.087 -0.212,-0.19c0.102,-0.007 0.102,-0.314 -0,-0.307c-0.102,0.007 -0.102,0.212 -0.102,0.314c-0.102,-0.095 -0,-0 -0.305,-0.49c-0.094,0.006 -0.204,-0.089 -0.306,-0.081c0.212,0.087 -0.204,0.219 -0.306,0.226c-0.203,0.014 -0.407,-0.074 -0.611,-0.059l-0.203,0.014l0.305,0.081l-0.203,0.014c-0.204,0.014 -0.408,-0.176 -0.611,-0.264l0.102,-0.11l-0.408,0.029c-3.36,0.234 -5.397,3.651 -7.638,5.753l-5.702,7.664l-0,-0.716l-0.204,0.526l-0,-0.409c-0,-0.308 0.102,-0.314 0.102,-0.52l-0.102,-0.095c-0,-0.102 -0.102,-0.197 -0.102,-0.197c-0,-0.102 0.102,-0.622 0.102,-0.724l-0,-1.33c-0,-2.047 -0.204,-7.047 -3.462,-6.819c-0,-0.818 0.407,-1.563 0.305,-2.375l0.204,0.19l-0.102,-0.401l0.102,-0.008c0.509,-0.752 0.509,-1.877 0.509,-2.696c-0,-1.126 -1.018,-1.771 -2.241,-1.993c0.111,0.095 0.111,0.198 -0,0.205c-0.203,0.015 -0.203,-0.19 -0.101,-0.3c-0.815,-0.147 -1.63,-0.193 -2.139,-0.157c-1.222,0.085 -1.833,0.742 -2.13,1.991l-8.249,27.183l-1.536,6.965l-0,0.102l-1.528,7.782c-0.101,0.723 -0.101,0.928 -0.101,1.542c-0,1.023 -0.102,2.053 0.814,2.604c0.306,-0.124 0.51,0.066 0.713,0.359l-0.407,-0.279l-0.102,0.007c0.306,0.388 1.12,0.843 1.528,0.917c-0,-0 -0,-0.102 0.101,-0.109l0.102,-0.008l0.509,0.375Zm37.782,-29.761l-0.102,0.007l-0.815,2.104l0.102,-0.008c0.102,-0.007 0.102,0.198 -0,0.205l-0.203,0.015l-1.223,3.155c-0,0.102 -0.203,0.832 -0.305,1.044l-0,0.103l0.102,-0.007c-0,0.102 0.101,0.3 -0.102,0.313c-0.102,0.008 -0.204,-0.087 -0.204,-0.087l-0,0.511l-0.305,-0.08c0.102,0.197 -0,0.511 -0.102,0.723c0.102,-0.007 0.102,0.198 -0,0.204l-0,-0.102c-0,0.102 -0.102,0.11 -0.102,0.11c0.102,-0.008 0.102,0.197 -0,0.204l-0,0.103l-0.204,0.014c-0,0.205 0.102,0.3 0.204,0.498l-0,-0.103c0.102,-0.007 0.102,0.198 -0,0.205c0.306,0.388 0.713,0.769 0.916,0.755l-0,0.511l0.102,-0.11c-0,0.307 0.204,0.497 0.51,0.682l-0.306,-0.491l0.407,0.38l0.102,-0.006l-0,-0.307l0.713,0.563c-0,-0.101 0.102,-0.109 0.102,-0.006c-0,0.101 -0.102,0.109 -0.102,0.109c0.917,0.653 2.037,1.392 3.259,1.307c0.102,-0.007 0.305,-0.123 0.305,-0.123c-0,-0.205 0.204,-0.219 0.306,-0.227c0.204,-0.013 0.204,0.089 0.306,0.082c0.509,-0.036 0.814,-0.876 0.712,-1.278c0.102,-0.007 0.102,0.095 0.204,0.088l0.102,-0.008c-0,-0.102 0.815,-4.559 1.324,-4.595l0.916,-0.064c-0,-0.204 0.51,-0.137 0.51,-0.137l-0.204,-0.089l0.814,-0.057c-0,-0.102 0.102,-0.211 0.102,-0.211l0.611,-0.043l-0.305,-0.081c0.102,-0.008 0.509,-0.241 0.611,-0.247l0.102,-0.008l0.102,0.198c0.61,0.161 0.305,-0.124 0.305,-0.227c0.408,-0.028 0.408,0.074 0.713,-0.151l-0.102,-0.096c0.407,-0.028 0.713,-0.254 1.018,-0.173l-0.101,-0.095c1.221,0.119 2.953,-1.844 3.462,-2.801l-0,0.614c-0,1.125 -0.407,10.672 -0.407,11.797l-0,0.103c-0,1.022 1.527,4.702 1.221,5.542l2.139,1.795c-0,-0.102 -0.101,-0.198 -0.101,-0.198l-0,-0.204c0.101,0.198 0.305,0.285 0.508,0.271l-0,-0.205c0.306,-0.021 0.204,-0.321 0.51,-0.444l-0,0.306c0.203,-0.423 1.629,-0.727 1.629,-1.546l-0.101,0.007c-0.103,0.007 -0.205,-0.19 -0.306,-0.183l-0.102,0.007c0.102,-0.007 0.102,0.197 0.102,0.197l-0,0.103l-0.204,-0.088l0.102,0.197l-0,0.103c-0,0.102 -0.102,0.211 -0.102,0.314l-0.102,0.007c-0,-0.102 -0.203,-0.088 -0.203,-0.19l0.102,0.402c-0.408,-0.176 -0.204,-0.498 -0.204,-0.702c0.407,-0.029 0.611,-0.759 0.814,-1.081l0.103,0.3l-0.205,0.014c-0,0.103 0.102,0.096 0.102,0.198c-0,-0 -0,0.103 0.103,0.198c0.101,-0.111 0.101,-0.212 0.101,-0.315c-0,-0.306 -0.101,-0.504 -0.101,-0.709c-0,0.308 0.203,0.6 0.305,1.002l-0,-0.818c-0.102,0.007 -0.102,-0.096 -0.102,-0.198l-0,-0.103l0.204,0.191c0.203,-1.037 0.814,-1.797 0.713,-2.813l0.101,0.198c0.102,-0.212 0.102,-0.315 0.102,-0.52l-0,-0.204l-0.102,-0.095c-0,-0.102 0.102,-0.212 0.102,-0.314l0.102,0.299c0.204,-0.73 0.305,-1.555 0.204,-2.265l0.305,0.183l-0,-0.409c-0,-0.409 0.407,-4.224 0.407,-4.634l-0,-0.307l0.306,-5.445l0.204,-3.902l-0.102,0.007c-0.102,0.007 -0.102,-0.198 -0,-0.205c0.102,-0.007 0.102,0.096 0.102,0.198l0.203,-2.471l-0,-1.228c-0,-0.102 -0,-2.661 -0.101,-2.755l-0.204,-0.088c0.204,-1.244 -0.102,-0.505 -0.102,-1.119l0.306,0.081l-0.204,-0.19c-0,-0.308 -0.509,-4.775 -1.731,-4.689l0.203,0.293l-0.101,0.108c0.305,0.287 0.713,0.77 0.713,1.179l-0.103,0.11c-0.101,-0.096 -0.305,-0.798 -0.407,-0.79l-0.203,0.116l-0.306,0.021c-0,-0.409 -0.102,-0.709 -0.611,-0.776l0.204,-0.218l-0,-0.103l-0.51,-0.272l-0.102,-0.095c-0,-0 0.102,-0.006 0.102,-0.109c0.103,0.198 0.204,0.19 0.306,0.183l0.204,-0.014c-0.407,-0.074 -0.51,-0.885 -0.917,-0.857l-0.102,0.007l0.102,0.095c-0.203,0.014 -0.407,-0.688 -0.611,-0.775c-0,0.102 0.204,0.395 0.204,0.395l-0,0.204l-0.611,-0.572l0.203,-0.218c-0,-0.102 -0.305,-0.388 -0.407,-0.483l-0.102,0.007c0.204,0.088 0.204,0.191 0.204,0.395l-0,0.103c-0.102,0.006 -0.204,-0.089 -0.306,-0.184c0.102,-0.007 0.102,-0.314 -0,-0.307c-0.102,0.007 -0.102,0.314 -0,0.307c-0.509,-0.271 -0.916,-0.857 -1.425,-0.821l-0.102,0.007c0.509,0.169 0.713,0.36 0.713,0.973l-0.102,0.008c-0,-0.103 -0.102,-0.505 -0.102,-0.607l-0.102,-0.096l-0,0.205c-0.102,-0.3 -0.713,0.152 -0.611,-0.264l0.306,-0.022l-0.408,-0.176l0.102,-0.109c-0.204,0.014 -0.305,-0.082 -0.407,-0.176c0.102,-0.008 0.102,0.3 -0,0.307c-0.102,0.007 -0.102,-0.3 -0,-0.307c-0.713,-0.156 -1.324,-0.215 -2.037,-0.165c-0.509,0.036 -1.12,-0.024 -1.528,0.311l0.102,0.096l-0.407,0.029c-3.259,0.227 -9.98,12.363 -10.795,14.364l-0.916,2.316c0.203,-0.014 0.203,0.191 -0,0.205m12.933,-8.58c0.408,-0.745 0.815,-1.08 1.324,-1.627l0.102,-0.008c0.407,-0.028 0.305,2.844 0.305,2.844l-0,1.433c-0.102,1.747 -0.203,5.643 -0.203,5.643l-0.51,0.138l-5.601,1.209l-0.713,0.051c0.612,-1.578 1.426,-3.17 2.241,-4.659c-0.102,-0.096 0.204,-0.322 0.204,-0.322c0.713,-1.175 2.342,-2.926 2.342,-4.052c-0,-0 -0.102,-0.3 -0.204,-0.293l0.306,0.184l0.203,-0.22l-0,-0.102l-0.203,-0.191l0.305,-0.021l-0.102,-0.197l0.204,0.19Zm34.93,11.679c0.102,-0.006 0.102,-0.109 -0,-0.204c0.306,-0.943 0.407,-1.666 0.509,-1.98c0.102,0.096 0.204,-0.321 0.305,-0.43l-0.101,-0.096c-0,-1.739 1.527,-3.484 1.833,-5.245l0.102,-0.007l0.102,0.096l0.102,-0.11c-0.102,0.007 -0.102,-0.197 -0.102,-0.3c-0,-0.307 0.203,-0.526 0.305,-0.84l0.102,0.198l-0,-0.614l0.305,-0.022c-0.101,-0.095 -0.101,-0.095 -0.101,-0.197l-0.102,0.007l0.203,-0.424c-0,-0 -0,-0.103 0.102,-0.109c0.204,-0.424 0.611,-0.861 0.815,-0.978l-0,0.102c-0.102,0.11 -0.204,0.628 -0.306,0.738l-0,0.204c0.306,-0.635 0.612,-1.27 1.019,-1.913c-0.102,-0.3 0.713,-1.073 1.018,-0.992l-0.102,-0.095c0.102,-0.212 0.408,-0.336 0.713,-0.562c-0,-0 -0,0.103 0.102,0.096c0.102,-0.008 0.102,-0.11 -0,-0.103l-0.102,0.007c0.306,-0.226 0.509,-0.343 0.509,-0.649l0.204,-0.014l0.509,-0.548l-0,-0.205l-0.102,-0.197l0.204,-0.219l0.102,0.096c-0.204,0.116 -0.102,0.108 -0.102,0.211c0.306,-0.021 0.815,-0.262 0.815,-0.568l-0.102,-0.096l0.305,-0.021l-0.102,-0.095l-0,-0.103c-0,-0.204 0.205,-0.321 0.306,-0.328c0.204,-0.014 0.204,0.087 0.306,0.081c0.916,-0.064 1.833,-1.561 2.647,-1.619l-0,-0.101l0.204,-0.014l0.102,-0.11l-0.204,-0.396l0.204,-0.013c-0,0.102 0.203,0.19 0.203,0.293c0.103,-0.315 0.713,-0.664 1.324,-0.911l-0,-0.103c-0,-0.205 0.612,-0.248 0.713,-0.459l-0.814,0.057l-0,-0.102c-0,-0 0.407,-0.131 0.61,-0.146l0.103,-0.007c0.101,-0.007 0.101,0.096 0.203,0.088l0.102,-0.007l-0.102,-0.197c0.102,-0.11 0.204,-0.118 0.407,-0.131l0.102,-0.008l-0.203,0.117c-0.102,0.314 -0.204,0.526 -0.408,0.643l0.815,-0.364l-0.306,-0.082c0.306,-0.123 0.408,-0.233 0.408,-0.437c-0,-0.102 -0.102,-0.197 -0.204,-0.191l-0.102,0.007c-0.102,0.008 -1.222,0.495 -1.324,0.503l-0.101,0.006l-0.102,-0.095c-0,-0 0.611,-0.452 0.509,-0.649c0.102,0.095 0.203,0.088 0.306,0.08c0.509,-0.035 1.222,-0.596 1.425,-0.61l0.102,0.196c0.102,-0.211 0.407,-0.335 0.611,-0.349c-0,-0 0.407,0.074 0.509,0.067l0.102,0.095l0.102,-0.007c0.204,-0.014 0.102,-0.212 0.305,-0.226c0.306,-0.021 0.713,-0.05 0.612,0.367c-0.612,0.144 -0.204,0.116 -0.204,0.218l0.712,-0.049c-0,-0.205 -0.407,-0.074 -0.407,-0.483c1.324,-0.094 2.546,0.333 2.546,1.766c-0,10.438 -13.952,20.112 -21.589,25.047c-0.102,0.007 -0.51,0.24 -0.611,0.247l-0.102,0.007c-0.204,0.014 -0.204,0.014 -0.305,-0.183c0.101,-0.11 0.101,-0.11 0.101,-0.212c-0,-0.205 -0,-0.307 -0.101,-0.402l0.203,-0.117l-0,-0.102l-0.102,-0.095c0.612,-0.248 -0.101,-1.016 0.407,-1.154l-0,-0.922c0.205,-0.116 0.713,-1.176 1.019,-2.323m26.478,2.959l-0.103,0.007c0.204,0.702 0.306,1.309 0.306,1.412c0.815,1.579 1.63,2.546 2.852,3.177c-0,-0.102 -0,-0.205 0.101,-0.211l-0,0.204c0.306,0.183 0.612,0.366 1.019,0.441c-0.102,0.006 -0.102,0.212 -0,0.204c0.102,-0.008 0.102,-0.212 -0,-0.204l0.916,0.242c-0,0.307 1.12,0.741 1.426,0.72l0.102,-0.11l0.204,-0.014c0.203,-0.015 0.305,-0.021 0.305,0.183l-0.102,0.007c-0.102,0.007 -0.203,-0.088 -0.203,-0.088c-0,0.103 0.101,0.402 0.203,0.395l0.102,-0.007c-0,-0.102 0.204,-0.219 0.204,-0.219c0.102,0.095 0.203,0.19 0.203,0.293c0.204,-0.014 1.222,0.017 1.426,0.002l0.204,-0.014l-0.102,-0.095c1.019,-0.071 1.222,-0.29 2.037,-0.348c-0,-0 -0.102,-0.095 -0.102,-0.196c0.204,-0.015 1.12,-0.386 1.324,-0.503l0.101,-0.007l0.102,0.198c0.204,-0.117 0.102,-0.212 0.102,-0.314l0.306,-0.021l-0.204,0.116l0.204,-0.015c0.305,-0.021 0.713,-0.254 0.815,-0.568l-0.408,0.029c0.102,-0.11 1.324,-1.014 1.528,-1.028l0.101,0.095c-0,-0 0.102,-0.007 0.102,0.095c-0.102,0.008 -0.611,0.35 -0.713,0.459l-0.102,0.11c0.408,-0.029 1.426,-0.714 1.426,-1.123l0.306,-0.022c-0,-0 0.509,-0.444 0.713,-0.663c1.425,-1.431 2.749,-3.16 3.869,-4.773c0.204,-1.345 1.528,-2.768 2.343,-3.746c-0.713,-1.895 4.582,-5.847 4.582,-7.893l-0.101,0.006c-2.037,2.496 -5.704,4.186 -7.536,6.667c-2.953,2.458 -9.268,8.631 -14.156,8.972c-0.916,0.064 -0.611,-1.594 -0.611,-2.003c-0,-0.512 -0.102,-3.166 0.51,-3.209l0.101,-0.006c-0.101,0.006 -0.101,-0.198 0.102,-0.212c0.102,-0.007 0.102,0.197 -0,0.204c0.102,-0.007 0.204,0.088 0.306,0.081c-0.102,0.007 -0.102,-0.197 -0,-0.205c0.101,-0.006 0.101,0.199 -0,0.205c0.101,0.096 0.305,0.081 0.509,0.17c-0.102,0.007 -0.102,-0.198 -0,-0.205c0.204,-0.015 0.204,0.19 -0,0.205l0.611,0.263c-0,-0.102 -0,-0.204 0.102,-0.211c0.102,-0.007 0.102,0.198 -0,0.307c0.305,0.081 0.611,0.162 1.018,0.133c2.24,-0.156 4.583,-2.162 6.008,-3.797l-0,-0.204l-0.102,-0.096c1.935,0.683 6.518,-9.666 6.518,-12.838c-0,-1.535 -0.611,-2.822 -1.629,-3.774c-0,0.101 -0.306,0.123 -0.306,0.021l0.306,-0.021c-1.324,-1.238 -3.259,-1.819 -5.194,-1.684l-0,0.205l-1.629,0.114l-0.102,-0.198c0.203,0.088 0.407,-0.028 0.407,-0.233l-0.102,-0.095c-0.509,0.035 -0.916,0.473 -1.323,0.604c-0.102,0.007 -0.408,-0.074 -0.51,-0.169c0.204,-0.014 0.815,-0.057 0.815,-0.365l-0.204,0.015c-0.101,0.007 -0.611,0.145 -0.713,0.152c-4.073,3.662 -6.822,8.357 -9.063,13.426c-0.305,1.76 -1.426,5.319 -2.24,7.013l-0,2.456c0.102,0.198 0.407,1.199 0.61,2.106c-0,-0.102 -0,-0.102 0.103,-0.109c0.101,-0.008 0.101,0.095 -0,0.102m10.183,-15.039l3.259,-3.605c0.204,-0.218 0.814,-0.773 1.12,-0.795c0.204,-0.014 0.306,0.183 0.306,0.388c-0,0.717 -0.51,1.469 -0.51,2.185c-0,0.204 -0,0.41 0.102,0.505l-0.204,-0.089c-1.425,3.273 -4.073,6.016 -6.415,8.636c-0.407,0.335 -1.12,0.692 -1.426,1.122l-0.101,-0.095c-0,-1.637 1.73,-3.804 2.036,-5.258l1.833,-2.994Zm22.812,-17.764c-0,0.205 0.101,0.3 0.101,0.505c-0,0.511 -0.509,1.468 -0.814,1.796l-5.194,11.313c-0.61,1.782 -1.222,4.282 -2.24,5.99l-2.852,8.693c-0.101,0.519 -0.407,2.382 -0.611,2.806c-0.102,0.212 -0.203,1.651 -0.305,1.863c-0,0.102 -0.102,0.314 -0.102,0.417l-0,3.991c-0,3.479 2.444,5.457 5.193,6.595l-0,0.103l0.102,-0.008l1.222,0.427l-0.203,-0.191l0.407,0.074c-0.101,0.007 -0.204,0.117 -0.204,0.219c0.816,-0.057 1.834,-0.128 2.546,0.129l-1.12,0.078c0.713,0.053 1.12,0.126 1.833,0.077c1.222,-0.085 4.481,-1.542 5.092,-2.505l-0.102,-0.198c0.611,-0.042 0.204,-0.014 0.204,-0.218c0.611,-0.043 0.509,-0.651 1.018,-1.095c0.815,-0.773 4.481,-4.304 5.296,-4.975l6.415,-7.51l-0.203,0.014c-1.833,1.458 -9.267,4.639 -9.98,6.019l-6.722,3.745c-0.712,0.357 -1.323,0.809 -2.138,0.866c-0.713,0.05 -0.611,-2.209 -0.611,-2.618c-0,-4.4 3.259,-8.619 3.259,-12.61l0.203,-0.015c-0,-0.102 -0,-0.307 -0.203,-0.292l0.305,-0.021c-0.102,-0.096 -0.102,-0.403 -0.305,-0.491c0.611,0.162 0.611,-0.964 0.814,-1.285l0.204,0.088c-0,-0 -0.102,-0.197 -0.102,-0.3l-0,-0.102l0.102,-0.11c0.102,-0.007 0.204,0.089 0.305,0.081c-0.203,-0.191 -0.203,-0.395 -0.203,-0.6l-0,-0.409l0.306,0.081c-0.204,-0.497 0.509,-1.161 0.61,-1.68c-0,-0 -0,-0.205 -0.101,-0.197c0.407,-0.745 1.222,-2.133 1.222,-2.951l0.102,-0.008c-0,-3.683 4.48,-8.602 4.48,-12.695l-0,-0.307c-0,-0.409 -0.102,-1.221 -0.102,-1.221l-0.712,-0.564l-3.259,-1.308l0.407,0.382c-0.305,-0.081 -0.713,-0.667 -0.916,-0.653c-0.102,0.007 -0.408,0.131 -0.306,0.329l-0.407,-0.074l0.305,-0.328l-0.814,0.056l0.101,-0.109l-0.101,0.007c-0.509,0.036 -1.222,0.392 -1.222,0.904m10.59,29.756l-0.101,0.006c0.204,0.702 0.305,1.309 0.305,1.412c0.815,1.58 1.629,2.546 2.852,3.177c-0,-0.102 -0,-0.205 0.102,-0.211l-0,0.204c0.305,0.183 0.611,0.367 1.018,0.44c-0.102,0.008 -0.102,0.213 -0,0.205c0.102,-0.007 0.102,-0.212 -0,-0.205l0.916,0.243c-0,0.308 1.12,0.741 1.426,0.72l0.102,-0.11l0.204,-0.014c0.203,-0.014 0.305,-0.021 0.305,0.183l-0.102,0.008c-0.102,0.006 -0.203,-0.089 -0.203,-0.089c-0,0.102 0.101,0.403 0.203,0.395l0.102,-0.007c-0,-0.102 0.204,-0.219 0.204,-0.219c0.102,0.095 0.204,0.191 0.204,0.293c0.203,-0.015 1.221,0.017 1.425,0.002l0.204,-0.014l-0.102,-0.095c1.019,-0.072 1.222,-0.29 2.037,-0.347c-0,-0 -0.102,-0.096 -0.102,-0.197c0.204,-0.015 1.12,-0.386 1.324,-0.502l0.102,-0.007l0.101,0.197c0.204,-0.117 0.102,-0.212 0.102,-0.314l0.306,-0.021l-0.204,0.117l0.204,-0.015c0.305,-0.022 0.712,-0.255 0.815,-0.569l-0.408,0.029c0.102,-0.11 1.324,-1.014 1.528,-1.029l0.102,0.096c-0,-0 0.101,-0.007 0.101,0.095c-0.101,0.007 -0.611,0.35 -0.713,0.46l-0.101,0.109c0.407,-0.029 1.426,-0.714 1.426,-1.123l0.305,-0.021c-0,-0 0.509,-0.445 0.713,-0.664c1.425,-1.431 2.749,-3.16 3.87,-4.773c0.203,-1.345 1.527,-2.768 2.342,-3.746c-0.713,-1.895 4.583,-5.847 4.583,-7.893l-0.102,0.007c-2.037,2.496 -5.703,4.185 -7.536,6.667c-2.954,2.458 -9.268,8.63 -14.155,8.972c-0.917,0.064 -0.612,-1.595 -0.612,-2.004c-0,-0.512 -0.101,-3.165 0.51,-3.208l0.102,-0.007c-0.102,0.007 -0.102,-0.197 0.101,-0.213c0.102,-0.006 0.102,0.198 -0,0.206c0.102,-0.008 0.204,0.087 0.306,0.081c-0.102,0.006 -0.102,-0.198 -0,-0.205c0.101,-0.007 0.101,0.198 -0,0.205c0.101,0.095 0.305,0.081 0.509,0.169c-0.102,0.007 -0.102,-0.198 -0,-0.206c0.204,-0.013 0.204,0.191 -0,0.206l0.611,0.264c-0,-0.102 -0,-0.204 0.102,-0.212c0.102,-0.008 0.102,0.198 -0,0.307c0.305,0.081 0.611,0.162 1.018,0.133c2.24,-0.156 4.583,-2.162 6.008,-3.797l-0,-0.204l-0.101,-0.096c1.934,0.684 6.517,-9.666 6.517,-12.838c-0,-1.535 -0.611,-2.823 -1.629,-3.774c-0,0.102 -0.305,0.123 -0.305,0.021l0.305,-0.021c-1.324,-1.239 -3.258,-1.819 -5.194,-1.684l-0,0.204l-1.629,0.115l-0.102,-0.198c0.204,0.088 0.407,-0.029 0.407,-0.233l-0.102,-0.095c-0.508,0.035 -0.916,0.473 -1.323,0.604c-0.102,0.007 -0.408,-0.074 -0.51,-0.169c0.204,-0.014 0.815,-0.057 0.815,-0.365l-0.204,0.016c-0.101,0.006 -0.611,0.144 -0.713,0.151c-4.073,3.662 -6.822,8.357 -9.063,13.426c-0.305,1.76 -1.425,5.319 -2.24,7.013l-0,2.456c0.102,0.197 0.407,1.2 0.611,2.106c-0,-0.102 -0,-0.102 0.101,-0.109c0.103,-0.007 0.103,0.095 -0,0.103m10.185,-15.04l3.258,-3.605c0.203,-0.219 0.815,-0.773 1.12,-0.794c0.204,-0.015 0.306,0.183 0.306,0.388c-0,0.716 -0.51,1.467 -0.51,2.184c-0,0.205 -0,0.41 0.102,0.505l-0.203,-0.089c-1.426,3.272 -4.073,6.016 -6.416,8.636c-0.407,0.336 -1.12,0.692 -1.426,1.123l-0.101,-0.095c-0,-1.638 1.73,-3.805 2.036,-5.259l1.834,-2.994Zm16.904,-8.346l-0.102,0.008l-0,0.102c-0.102,0.007 -0.102,-0.3 -0,-0.307l-0,0.205l-0,-0.205c-0.407,0.233 -1.12,0.897 -1.12,0.999l-0,0.103l-0.203,0.014c-0,-0 -0.815,0.774 -1.121,1.102c-0.407,0.438 -0.407,0.438 -0.407,0.54c-0,-0 -0,-0.102 0.102,-0.11c0.101,-0.007 0.101,0.198 -0,0.206c-1.63,0.113 -3.666,4.041 -3.87,5.898l-0,-0.204c-0.102,0.211 -0.204,0.321 -0.204,0.526l-0,0.101l0.102,-0.109l0.102,0.096c-0,0.102 -0,0.204 -0.204,0.218l-0.203,-0.088l-0,0.819c-0,0.717 0.203,1.418 0.203,2.033l-0,0.102c-0.203,-0.293 -0.203,-0.805 -0.305,-1.105l-0,0.308c-0,0.307 0.305,0.797 0.203,1.111c0.306,0.593 0.713,1.28 1.222,1.961l-0,-0.205l0.51,0.682c-0.102,-0.096 -0.306,-0.185 -0.306,-0.286c0.713,0.973 1.731,1.823 2.851,1.744c0.306,-0.02 0.408,-0.13 0.713,-0.151c-0.101,0.007 -0.101,-0.199 -0,-0.205c0.102,-0.007 0.102,0.197 -0,0.205l0.102,-0.008l4.277,-1.22c2.241,-1.078 6.823,-2.523 9.064,-2.885l-0,-0.103c1.425,-0.099 2.749,-0.396 4.073,-0.489c0.306,-0.021 2.037,-0.245 3.056,-0.111c-0,-0 -0,-0.103 0.101,-0.11c0.102,-0.007 0.102,0.096 0.102,0.198c0.306,0.081 0.509,0.169 0.509,0.374c-0,5.014 -15.479,14.59 -20.469,14.939c-0.611,0.043 -2.851,-1.54 -2.851,-1.54l-0.102,0.109c0.102,0.198 0.407,0.177 0.407,0.586c-0.611,0.043 -1.12,-1.253 -1.222,-1.859l-0.102,0.007c-0.407,0.95 -0.814,1.388 -0.814,2.513c-0,0.512 0.203,0.907 0.101,1.528l0.917,2.084c1.222,2.679 5.703,2.468 8.046,2.304c1.425,-0.1 5.397,-1.913 6.313,-1.67c0.713,-0.356 2.75,-1.113 2.75,-2.136l0.101,-0.007c-0.101,0.007 -0.101,-0.198 -0,-0.205c0.102,-0.007 0.102,0.197 -0,0.205c1.324,-0.093 2.75,-1.421 3.768,-2.106c2.037,0.165 10.184,-9.206 9.675,-11.115l0.305,0.184c-0.101,-0.096 -0.101,-0.403 -0.101,-0.505l-0,-0.102l0.101,-1.031l-0.101,0.212c-0,-0.614 -0.204,-2.339 -0.815,-2.809l-0,0.615c-0.102,-0.3 -0.102,-0.403 -0.102,-0.607c-0,-0.103 -0.102,-0.3 0.102,-0.314l-0.407,-0.279l-0,0.205c0.101,0.095 0.101,0.3 0.203,0.293l-0.203,0.014l-0.204,-0.6l0.101,-0.109c0.204,-0.219 -0.713,-0.871 -1.425,-1.436l-0.102,0.007c-0.306,-0.285 -0.713,-0.564 -0.713,-0.666l0.306,-0.021c-2.445,-1.774 -5.805,-2.153 -8.86,-1.939c-4.175,0.292 -8.249,1.293 -12.322,2.397l-0.713,0.049c1.63,-1.444 2.647,-3.459 4.379,-4.911c3.157,-2.574 10.591,-9.44 14.97,-9.745l3.463,-0.242c-0.103,0.007 -0.103,0.314 -0,0.307c0.101,-0.007 0.101,-0.315 -0,-0.307c0.407,-0.029 0.814,0.147 1.017,0.44l-0,-0.102c-0,-0.103 -0.101,-0.3 -0.101,-0.403l0.101,-0.007c0.408,-0.028 1.121,0.536 1.426,0.822c-0,-0.307 -0.611,-0.776 -0.713,-0.872c0.713,0.156 0.713,0.258 1.528,0.2c-0.102,0.008 -0.102,-0.299 0.102,-0.314c0.102,-0.006 0.102,0.3 -0,0.308l0.102,-0.008c-0,-1.228 -0.713,-2.303 -1.528,-3.27c0.102,0.095 0.102,0.198 -0,0.205c-0.102,0.007 -0.102,-0.3 -0,-0.307c-0.611,-0.572 -1.12,-1.15 -1.731,-1.619c-0,0.103 -0,0.103 -0.102,0.11c-0.101,0.007 -0.101,-0.3 -0,-0.307c-0.407,-0.074 -0.815,-0.66 -1.324,-0.624l0.102,-0.109c-0.204,-0.293 -0.611,-0.572 -1.018,-0.748c-0,-0 0.101,-0.007 0.101,-0.109c0.102,-0.007 0.102,-0.315 -0,-0.307c-0.101,0.007 -0.101,0.211 -0.101,0.314l-0,-0.103c-0.102,0.008 -0.102,0.212 -0,0.205c-0.204,-0.088 -0.408,-0.074 -0.51,-0.169l0.306,-0.021l-0.916,-0.755c0.101,-0.007 0.101,-0.212 -0,-0.205c-0.103,0.007 -0.103,0.11 -0.103,0.213c-0,-0.103 -0,-0.103 -0.101,-0.096c0.101,-0.11 0.101,-0.315 -0,-0.307c-0.102,0.007 -0.102,0.109 -0.102,0.212c-0.305,-0.184 -0.713,-0.36 -1.018,-0.339c-0.204,0.015 -0.408,0.336 -0.612,0.452c-0.305,0.124 -1.833,1.05 -2.138,1.276c-0,-0 -0.102,0.11 -0.204,0.116l-3.259,2.07c-0.203,0.117 -0.101,0.007 -0.101,0.212l-0.306,0.022l-0,0.101c-0.203,0.015 -0.203,-0.087 -0.407,0.132l-4.175,3.055c-0.306,0.123 -0.611,0.247 -0.611,0.554l-0.204,0.014l-6.925,5.601l0.102,0.095l-0.204,0.015c0.102,-0.007 0.102,0.3 -0,0.306m-101.056,36.463c1.876,0.338 3.386,-0.109 4.311,-0.532c0.102,-0.007 0.815,-0.261 0.917,-0.269l0.102,-0.007c-0.102,0.007 -0.102,0.211 -0,0.205c0.101,-0.007 0.101,-0.212 -0,-0.205l0.203,-0.014c0.306,-0.021 0.51,0.066 0.713,0.053c0.611,-0.043 1.63,-0.319 2.241,-0.566l0.102,0.299c-0.612,-0.059 -1.121,0.284 -1.732,0.326l-0,0.103l0.204,0.088l0.102,-0.007c0.203,-0.015 0.509,-0.138 0.713,-0.153l-0,0.102c-0,-0 -0.408,0.336 -0.611,0.351c-0.204,0.116 -0.408,0.13 -0.509,0.341l0.101,-0.006c0.509,-0.036 2.037,-0.654 2.037,-1.268c0.713,-0.05 2.648,-1.311 2.953,-1.844l-0.509,0.035c-0,0.307 -0.713,0.46 -0.916,0.474c-0.204,0.014 -0.102,-0.095 -0.102,-0.198c0.407,-0.028 0.814,-0.568 1.12,-0.59c0.204,-0.014 0.407,0.177 0.611,0.163c0.102,-0.11 0.306,-0.329 0.407,-0.336l-0.101,-0.198l0.305,-0.328l0.102,-0.008l-0.102,0.213c0.305,-0.022 0.305,-0.329 0.408,-0.438l0.101,-0.008c0.102,-0.006 0.204,0.089 0.306,0.082l-0.102,-0.198c0.203,0.088 0.611,-0.759 0.916,-0.781l0.102,-0.006l0.204,0.088l0.101,-0.11l-0.101,-0.198l0.101,-0.006l0.205,0.087c0.101,-0.006 0.508,-0.342 0.305,-0.635l0.203,0.19c0.204,-0.014 0.815,-0.773 1.019,-0.889l-0.306,-0.184c0.102,-0.109 0.204,-0.116 0.204,-0.116c0.102,-0.007 0.305,-0.022 0.305,0.285c0.306,-0.43 0.204,-0.321 0.204,-0.628l0.102,-0.007c-0.102,0.007 -0.102,0.212 -0,0.205c0.102,-0.007 0.102,-0.212 -0,-0.205c0.204,0.088 0.102,0.198 0.509,-0.241c-0.203,-0.087 -0.102,-0.095 -0.102,-0.196l0.102,-0.008l0.204,0.088c0.305,-0.226 0.204,-0.423 0.204,-0.628c0.407,-0.029 0.509,0.067 0.509,-0.446l0.305,-0.021c1.833,-0.127 8.249,-9.07 9.471,-11.612l-0,-0.101l-0.102,-0.096l0.102,-0.11c0.102,-0.006 0.204,0.089 0.204,0.089c0.305,-0.431 1.222,-1.519 1.222,-2.133c-0.306,0.022 -0.204,0.22 -0.408,0.336l-0.101,-0.095c-0,-0 0.509,-0.957 0.407,-1.154c0.204,0.087 0.306,0.285 0.306,0.49c0.203,-0.321 0.508,-0.752 0.508,-1.059l-0,-0.204c-0.203,0.218 -0.305,0.532 -0.407,0.744c-0.203,0.014 -0.101,-0.3 -0.101,-0.402l0.101,-0.008c-0,-0.511 0.51,-0.956 0.611,-1.372l0.204,-0.014c-0,0.102 0.102,0.095 0.204,0.19c-0,-0.102 -0.102,-0.3 -0.102,-0.403l-0,-0.511c-0.102,0.007 -0.102,-0.198 -0,-0.102c-0,-0.103 -0,-0.205 0.102,-0.417c-0.102,0.007 -0.102,-0.095 -0,-0.102l-0,0.102c-0,-0.102 -0,-0.204 0.101,-0.314l-0,-0.205c0.102,-0.109 0.102,-0.313 0.102,-0.416l-0,-0.102l0.102,-0.417l-0,0.41c0.204,-0.731 0.408,-1.564 0.306,-2.375l0.203,-0.117l-0,0.92c0.102,-0.621 0.204,-1.343 0.204,-1.958l-0,-0.102c-0,-0.205 -0.204,-1.009 -0.204,-1.419l-0,1.535c-0.305,-0.285 -0.305,-1.002 -0.407,-1.403c-0,0.101 -0.204,0.218 -0.204,0.321l-0.102,0.007l0.102,-0.724l0.102,0.198l0.102,-0.212l-0,-0.102l-0.102,0.007l-0.204,-0.088l-0.101,0.109l-0.102,-0.095c-0,-0.204 -0.102,-1.732 -0.51,-1.909l-0,0.921l-0.101,0.11c0.101,0.402 0.101,1.118 -0.204,1.549c-0.305,-0.183 -0,-0.716 -0.305,-1.002l0.102,-0.008c-0,-0.102 0.101,-0.62 0.101,-0.723c-0,-0.102 0.102,-0.211 0.102,-0.314c-0,-0.204 -0.203,-0.497 -0.509,-0.476l-0,1.126c-0,-0.205 -0.102,-0.504 -0.204,-0.702c-0.102,0.007 -0.102,-0.198 -0,-0.205c-0.203,-0.395 -0.305,-0.695 -0.305,-0.9l0.203,-0.014c-0,-0.204 0.102,-0.723 -0.203,-0.907l-0,0.615l-0.102,0.109c-0.102,-0.505 -0.509,-0.784 -0.408,-1.2l-0.305,0.329l-0.305,-0.388l0.101,-0.007c-0,-0 0.204,0.088 0.204,0.189l-0,-0.204l-0.713,-0.667c-0,-0 -0.305,0.022 -0.509,-0.168c0.102,-0.007 0.102,0.198 -0,0.205c-0.102,0.006 -0.102,-0.198 -0,-0.205c-0.916,-0.448 -2.953,-1.534 -3.666,-1.483l-1.222,0.085c-2.953,0.207 -5.907,1.129 -8.453,2.74l-0.101,0.007c-0,-1.125 0.814,-2.411 0.814,-3.536c-0,-0.205 -0.101,-0.3 -0.203,-0.498l-0,0.615c-0.204,-0.6 -0.51,-1.193 -1.018,-1.669l-0,0.102l-0.205,-0.088l-0,-0.103c-0,-0 0.102,-0.006 0.102,0.096c-0.814,-0.659 -1.935,-0.99 -2.953,-0.919l-0.611,0.042l0.102,0.096l-0.102,0.007c-0.102,0.007 -0.407,-0.074 -0.509,-0.067l-0.102,0.007c-1.018,0.072 -2.138,2.299 -2.138,3.118l-3.157,6.974l-0,0.307l-3.666,8.443c-0,0.308 -0.204,0.526 -0.306,0.84c-0.611,1.681 -2.953,8.496 -3.259,10.769c-0,-0 -3.513,10.854 3.734,12.147" style="fill:#1d1d1b;fill-rule:nonzero;"/><path d="M398.487,181.935c0.203,-0.116 0.203,-0.321 0.203,-0.424c-0.814,0.058 -2.953,1.128 -3.768,1.492l0.102,0.095l-0.102,0.11c-0.101,-0.096 -0.101,-0.096 -0.203,-0.089l-0.102,0.008l0.102,0.095c-0.509,-0.067 -1.12,0.078 -1.12,0.59l-0.204,0.014c-0.203,0.015 -0.407,1.359 -0.407,1.461c0,3.377 2.444,5.151 5.702,4.923l0.612,-0.043c1.221,-1.006 1.934,-1.363 1.934,-3.103c0,-1.74 -1.629,-2.547 -1.527,-4.089c-0.509,-0.067 -1.019,-0.645 -1.222,-1.04" style="fill:#1d1d1b;fill-rule:nonzero;"/><path d="M412.745,121.38l-0.062,-0.057c0.013,0.034 0.033,0.059 0.062,0.057" style="fill:#1d1d1b;fill-rule:nonzero;"/><path d="M414.577,125.242c0,-0.307 0.305,-0.84 0.305,-1.249c0,-1.024 -0.508,-1.397 -0.815,-2.399c-0.203,0.014 -0.712,-0.258 -1.221,-0.426c0.101,0.095 0,0.204 -0.102,0.211c0,0.103 -0.102,0.11 -0.102,0.11c-0.101,0.007 -0.101,-0.198 0,-0.205l0.041,0.038c-0.032,-0.087 -0.012,-0.245 0.061,-0.25l-0.51,-0.374l0,-0.102c0,-0.204 0.307,-0.328 0.307,-0.533c-0.51,0.036 -1.019,0.071 -1.528,0.004c0.101,-0.006 0.101,0.301 0,0.308c-0.102,0.007 -0.102,-0.3 0,-0.308c-0.611,-0.059 -1.222,-0.119 -1.833,-0.076c-1.019,0.072 -1.833,0.742 -2.343,1.494c0,0.102 -0.102,0.212 -0.102,0.212c0,0.307 0.205,0.6 0.205,0.907l0,0.307l-8.657,37.446l0,0.102c0,0.205 -0.305,1.965 -0.305,2.17l0,0.103c-0.306,2.682 -0.713,5.473 -0.713,8.236c0,1.74 0.102,2.552 0.407,4.884c0,0 0,0.307 0.102,0.3c0.509,-0.036 2.24,-5.888 2.953,-6.756c2.954,-4.096 5.194,-9.369 7.129,-14.007c-0.102,-0.095 -0.102,-0.402 0.101,-0.519c0.407,-1.563 0.612,-3.01 1.019,-4.574c-0.102,0.008 -0.102,-0.197 0,-0.102c0,-0.205 0.101,-0.417 0.204,-0.731l0.102,-0.109l2.342,-9.886c0.305,-1.044 1.222,-2.336 1.222,-3.36c0,-0.102 -0.102,-0.095 -0.102,-0.095c0,0 0,-0.102 -0.102,-0.095l0.305,-0.124l0,-0.818l0.204,0.088l0,-0.103c0,-0.102 -0.102,-0.197 -0.204,-0.19l0.102,-0.11c0,-0.102 0.102,-0.518 0.102,-0.621l0.204,0.088l0,-0.102c0,-0.102 0,-0.205 -0.102,-0.197l0.306,-1.045l0.101,-0.008c0.102,-0.006 0.102,-0.211 0,-0.204c0.51,-1.673 0.917,-3.646 0.815,-5.276l0.102,-0.212c0,-0.512 0,-1.125 0.102,-1.644l-0.101,-0.096l-0,-0.102Z" style="fill:#1d1d1b;fill-rule:nonzero;"/></svg>