<?xml version="1.0" encoding="UTF-8" standalone="no"?><!DOCTYPE svg PUBLIC "-//W3C//DTD SVG 1.1//EN" "http://www.w3.org/Graphics/SVG/1.1/DTD/svg11.dtd"><svg width="100%" height="100%" viewBox="0 0 442 160" version="1.1" xmlns="http://www.w3.org/2000/svg" xmlns:xlink="http://www.w3.org/1999/xlink" xml:space="preserve" xmlns:serif="http://www.serif.com/" style="fill-rule:evenodd;clip-rule:evenodd;stroke-linejoin:round;stroke-miterlimit:2;"><path d="M-0,30.714l-0,128.38l441.4,-30.714l-0,-128.38l-441.4,30.714Z" style="fill:#fff;fill-rule:nonzero;"/><path d="M-0,30.714l-0,128.38l441.4,-30.714l-0,-128.38l-441.4,30.714Z" style="fill:#8200ba;fill-rule:nonzero;"/><path d="M385.164,88.478c-6.462,0.449 -12.567,-1.847 -17.857,-5.095c0.868,-2.719 1.491,-5.569 1.844,-8.534c3.191,1.39 6.787,2.263 10.565,2.663l6.514,0.716c2.963,0.379 7.241,0.432 7.241,4.409c-0,3.977 -5.109,5.619 -8.307,5.841m-62.878,0.027c-9.854,0.686 -15.97,-6.448 -15.97,-15.473c-0,-9.702 6.569,-16.816 15.97,-17.469c9.402,-0.655 15.971,5.544 15.971,15.247c-0,9.025 -6.116,17.01 -15.971,17.695m-193.951,14.624c-9.401,0.654 -15.971,-5.545 -15.971,-15.247c-0,-9.025 6.116,-17.01 15.971,-17.695c9.855,-0.687 15.971,6.447 15.971,15.472c-0,9.703 -6.569,16.816 -15.971,17.47m-48.188,-15.599c0.361,-0.139 0.705,-0.298 1.048,-0.458c-0.024,0.475 -0.041,0.954 -0.052,1.436c-0.328,-0.105 -0.659,-0.207 -0.996,-0.302l-0,-0.676Zm-26.137,25.968l-3.525,0.245l-0,-14.229l3.071,-0.213c5.003,-0.349 12.963,-1.015 12.963,6.155c-0,7.057 -7.391,7.686 -12.509,8.042m-3.525,-43.993l2.162,-0.151c4.549,-0.316 10.35,-1.17 10.35,5.099c-0,5.819 -5.118,6.623 -9.668,6.94l-2.844,0.198l-0,-12.086Zm352.224,-15.348l-7.343,-1.127c-2.489,-0.411 -6.531,-0.598 -6.531,-3.873c-0,-3.626 4.161,-4.967 7.005,-5.165c6.988,-0.487 13.264,2 18.83,5.356l8.764,-23.168c-8.764,-4.649 -18.12,-6.452 -28.304,-5.743c-14.638,1.019 -29.195,8.659 -35.495,21.304c-8.64,-9.442 -22.163,-14.06 -37.349,-13.004c-26.042,1.813 -47.205,19.629 -47.205,46.92c-0,4.764 0.679,9.181 1.937,13.217l-9.644,0.671l-0,-55.446l-24.949,1.736l-0,-0.043l-30.568,2.127l-0,46.583c-0,6.544 -0.224,12.326 -8.379,12.894c-8.155,0.568 -8.378,-5.185 -8.378,-11.728l-0,-46.583l-30.569,2.128l-0,13.359c-8.682,-8.835 -21.712,-13.346 -36.196,-12.338c-15.558,1.083 -29.438,8.3 -38.055,19.672c-4.009,-12.562 -18.322,-14.414 -32.401,-13.434l-36.238,2.522l-0,85.049l42.377,-2.949c11.27,-0.784 23.307,-5 28.591,-14.479c8.66,8.318 21.461,12.332 35.726,11.339c16.769,-1.167 31.514,-8.971 39.889,-21.666c5.898,11.592 18.512,16.323 35.254,15.158c15.683,-1.091 27.742,-6.854 34.054,-17.781l-0,12.15l54.903,-3.821l-0,-4.674c8.153,5.355 18.561,7.923 29.851,7.138c12.415,-0.865 23.761,-5.635 32.218,-13.304l-1.199,3.082c10.068,4.325 23.096,6.456 34.346,5.673c19.321,-1.344 38.744,-13.096 38.744,-34.137c-0,-14.971 -9.948,-21.53 -23.686,-23.615" style="fill:#fff;fill-rule:nonzero;"/><path d="M128.202,101.216c-4.023,0.28 -7.474,-0.806 -9.977,-3.141c-2.58,-2.407 -3.944,-5.932 -3.944,-10.194c0,-7.353 4.873,-15.135 14.187,-15.783c3.906,-0.273 7.295,0.816 9.794,3.148c2.661,2.482 4.127,6.18 4.127,10.412c0,8.715 -5.701,14.967 -14.187,15.558m12.675,-28.774c-3.296,-3.075 -7.679,-4.517 -12.675,-4.169c-10.288,0.716 -17.755,8.963 -17.755,19.608c0,5.276 1.833,9.891 5.163,12.997c2.939,2.742 6.95,4.214 11.412,4.213c0.477,0 0.96,-0.016 1.446,-0.051c10.454,-0.727 17.755,-8.697 17.755,-19.382c0,-5.306 -1.899,-10 -5.346,-13.216" style="fill:#8200ba;fill-rule:nonzero;"/><path d="M387.518,109.996c-10.305,0.717 -22.279,-1.12 -31.744,-4.82l0.363,-0.934c0.269,-0.249 0.545,-0.491 0.808,-0.746c5.103,-4.934 8.948,-10.827 11.388,-17.309c5.799,3.167 11.489,4.588 16.964,4.203c4.86,-0.338 10.091,-2.908 10.091,-7.754c0,-5.305 -5.237,-5.892 -8.05,-6.209c-0.297,-0.033 -0.587,-0.065 -0.899,-0.105l-6.521,-0.717c-2.216,-0.234 -5.434,-0.777 -8.715,-2.016c0.135,-1.486 0.206,-2.988 0.206,-4.503c0,-10.882 -3.261,-20.341 -9.468,-27.628c2.212,-3.987 5.111,-7.035 7.753,-9.235c6.742,-5.614 16.061,-9.213 25.568,-9.874c9.426,-0.656 17.876,0.901 25.772,4.758l-7.361,19.458c-6.271,-3.421 -12.175,-4.887 -17.966,-4.487c-4.374,0.305 -8.789,2.612 -8.789,7.078c0,4.576 4.755,5.268 7.309,5.639c0.288,0.043 0.566,0.083 0.848,0.129l7.347,1.128c14.841,2.252 22.056,9.357 22.056,21.72c0,20.373 -19.159,30.985 -36.96,32.224m-16.826,-32.489c2.657,0.921 5.6,1.57 8.815,1.91l6.48,0.712c0.296,0.038 0.606,0.073 0.923,0.108c3.732,0.419 4.644,0.891 4.644,2.399c0,2.627 -4.395,3.782 -6.523,3.929c-4.922,0.343 -10.115,-1.039 -15.474,-4.087c0.464,-1.628 0.844,-3.286 1.135,-4.971m-48.539,37.038c-10.451,0.725 -20.054,-1.485 -27.757,-6.263l0,-22.584l-15.971,1.112c-0.937,-3.496 -1.427,-7.224 -1.427,-11.154c0,-12.487 4.578,-23.422 13.238,-31.622c8.192,-7.757 19.622,-12.511 32.184,-13.384c1.393,-0.098 2.769,-0.145 4.127,-0.145c11.91,0 22.37,3.701 29.776,10.609c7.361,6.867 11.252,16.54 11.252,27.972c0,24.509 -19.102,43.627 -45.422,45.459m-31.68,-2.381l-50.979,3.547l0,-9.16c3.32,-5.865 5.035,-12.999 5.035,-21.293l0,-47.603l20.884,-1.454l0,55.446l25.06,-1.744l0,22.261Zm-60.12,-0.823c-6.292,5.83 -15.383,9.196 -27.021,10.005c-6.203,0.433 -11.753,0.023 -16.496,-1.217c-4.761,-1.244 -8.742,-3.337 -11.834,-6.221c-1.765,-1.647 -3.247,-3.567 -4.454,-5.742c4.441,-7.237 6.909,-15.776 6.909,-25.132c0,-11.459 -3.737,-21.427 -10.822,-29.025l0,-10.835l26.361,-1.834l0,44.328c0,4.178 0,8.915 2.995,11.709c1.778,1.658 4.274,2.352 7.634,2.118c10.336,-0.72 10.336,-8.97 10.336,-14.994l0,-44.62l26.36,-1.834l0,47.211c0,11.179 -3.354,19.956 -9.968,26.083m-69.967,3.315c-8.192,7.758 -19.622,12.511 -32.184,13.385c-13.241,0.92 -24.982,-2.58 -33.206,-9.853c1.458,-3.093 2.285,-6.663 2.285,-10.756c0,-9.341 -4.607,-16.271 -13.07,-19.839c5.621,-3.658 9.093,-10.324 9.093,-17.913c0,-2.673 -0.303,-5.129 -0.903,-7.362c8.095,-10.291 20.875,-17.115 36.067,-18.172c13.282,-0.927 25.209,2.87 33.585,10.683c7.569,7.061 11.57,16.814 11.57,28.205c0,12.488 -4.576,23.422 -13.237,31.622m-76.158,10.2c-5.127,3.523 -12.352,5.77 -20.344,6.326l-40.327,2.805l0,-81.206l34.454,-2.397c12.79,-0.89 21.419,0.927 26.38,5.554c3.418,3.189 5.08,7.684 5.08,13.742c0,5.628 -2.623,13.212 -10.013,16.061l-1.228,0.473l0,3.443l1.397,0.394c6.305,1.774 13.82,6.23 13.82,17.381c0,7.359 -3.101,13.221 -9.219,17.424m318.772,-72.594l-7.322,-1.124c-0.282,-0.047 -0.585,-0.091 -0.899,-0.136c-3.086,-0.45 -4.027,-0.88 -4.027,-1.846c0,-2.857 5.008,-3.238 5.221,-3.253c5.664,-0.394 11.298,1.221 17.707,5.086l1.97,1.187l10.175,-26.899l-1.493,-0.791c-8.975,-4.761 -18.57,-6.71 -29.336,-5.962c-10.292,0.716 -20.408,4.636 -27.755,10.753c-3.322,2.766 -6.007,5.884 -8.051,9.281c-0.086,-0.081 -0.165,-0.167 -0.252,-0.248c-9.035,-8.428 -22.092,-12.506 -36.785,-11.485c-28.844,2.007 -48.989,22.088 -48.989,48.831c0,4.004 0.462,7.823 1.357,11.425l-5.186,0.361l0,-55.446l-24.806,1.727l0,-0.187l-34.777,2.42l0,48.545c0,7.353 -0.58,10.389 -6.42,10.796c-2.129,0.15 -3.593,-0.178 -4.47,-0.998c-1.535,-1.432 -1.658,-4.617 -1.658,-8.631l0,-48.839l-34.777,2.42l0,10.839c-8.975,-7.229 -21.004,-10.687 -34.225,-9.767c-13.301,0.926 -25.563,6.208 -34.526,14.873c-0.999,0.967 -1.945,1.974 -2.847,3.011c-0.983,-1.918 -2.259,-3.611 -3.823,-5.07c-5.781,-5.393 -15.352,-7.544 -29.26,-6.576l-38.022,2.646l0,88.892l44.427,-3.091c11.136,-0.775 22.797,-4.801 28.872,-13.442c8.015,6.813 18.854,10.456 31.051,10.456c1.446,0 2.913,-0.051 4.394,-0.155c16.917,-1.177 30.839,-8.572 39.463,-19.881c1.204,1.839 2.602,3.51 4.201,5.002c6.226,5.808 15.115,8.738 26.471,8.738c1.623,0 3.298,-0.06 5.022,-0.179c14.251,-0.992 25.035,-5.631 31.946,-13.489l0,7.861l58.825,-4.094l0,-3.094c6.927,3.788 15.072,5.787 23.864,5.786c1.372,0 2.76,-0.048 4.159,-0.146l0.001,0c10.968,-0.763 21.224,-4.495 29.512,-10.637l0.617,0.265c8.948,3.843 19.966,5.991 30.317,5.991c1.66,0 3.305,-0.055 4.918,-0.168c10.526,-0.731 20.353,-4.315 27.672,-10.089c8.41,-6.635 12.856,-15.612 12.856,-25.959c0,-14.379 -8.517,-22.962 -25.312,-25.51" style="fill:#8200ba;fill-rule:nonzero;"/><path d="M52.402,79.535l0,-8.242l0.377,-0.026c0.287,-0.02 0.578,-0.042 0.873,-0.065c2.421,-0.183 5.434,-0.411 6.642,0.708c0.194,0.18 0.786,0.729 0.786,2.543c0,3.349 -1.99,4.617 -7.885,5.027l-0.793,0.055Zm12.512,-5.082c0,-2.314 -0.678,-4.116 -2.013,-5.354c-2.435,-2.257 -6.208,-1.971 -9.538,-1.72c-0.287,0.022 -0.571,0.044 -0.85,0.063l-3.945,0.275l0,15.928l4.894,-0.34c3.427,-0.239 11.452,-0.797 11.452,-8.852" style="fill:#8200ba;fill-rule:nonzero;"/><path d="M53.877,111.585l-1.475,0.103l-0,-10.386l1.516,-0.105c3.062,-0.215 7.688,-0.538 9.628,1.27c0.711,0.663 1.057,1.641 1.057,2.988c-0,4.526 -3.77,5.646 -10.726,6.13m-0.226,-14.213l-5.083,0.353l-0,18.073l5.575,-0.389c4.64,-0.322 14.293,-0.994 14.293,-9.954c-0,-2.435 -0.765,-4.383 -2.275,-5.792c-3.159,-2.945 -8.563,-2.567 -12.51,-2.291" style="fill:#8200ba;fill-rule:nonzero;"/><path d="M322.154,86.592l-0.001,0c-3.904,0.273 -7.294,-0.817 -9.793,-3.148c-2.661,-2.482 -4.127,-6.18 -4.127,-10.412c-0,-8.716 5.701,-14.968 14.187,-15.558c0.414,-0.029 0.822,-0.043 1.223,-0.043c3.5,0 6.509,1.089 8.754,3.184c2.58,2.407 3.944,5.932 3.944,10.193c-0,7.353 -4.873,15.136 -14.187,15.784m12.858,-28.78c-3.253,-3.035 -7.822,-4.51 -12.858,-4.163c-10.454,0.727 -17.755,8.698 -17.755,19.383c-0,5.306 1.899,10 5.346,13.216c2.975,2.774 6.834,4.219 11.23,4.219c0.476,0 0.958,-0.017 1.445,-0.051l-0.001,0c10.289,-0.715 17.756,-8.962 17.756,-19.608c-0,-5.275 -1.834,-9.89 -5.163,-12.996" style="fill:#8200ba;fill-rule:nonzero;"/></svg>