<?xml version="1.0" encoding="utf-8"?>
<!-- Generator: Adobe Illustrator 26.0.3, SVG Export Plug-In . SVG Version: 6.00 Build 0)  -->
<svg version="1.1" xmlns="http://www.w3.org/2000/svg" xmlns:xlink="http://www.w3.org/1999/xlink" x="0px" y="0px"
	 viewBox="0 0 1080 1080" style="enable-background:new 0 0 1080 1080;" xml:space="preserve">
<style type="text/css">
	.st0{fill:#1D1D1B;}
	.st1{fill:#FF5614;}
</style>
<g id="poit">
	<g>
		<path class="st0" d="M339.48,461.19c16.53,9.27,29.49,22.31,38.9,39.11c9.4,16.8,14.11,36.35,14.11,58.66
			c0,22.31-4.71,41.87-14.11,58.66c-9.41,16.8-22.37,29.83-38.9,39.11c-16.53,9.27-34.87,13.91-55.03,13.91
			c-27.68,0-49.46-8.73-65.31-26.2v101.19h-62.89V450.51h60.07v25c15.58-18.81,38.3-28.22,68.13-28.22
			C304.6,447.28,322.95,451.92,339.48,461.19z M313.27,602.7c10.34-10.89,15.52-25.46,15.52-43.74c0-18.27-5.18-32.86-15.52-43.74
			c-10.35-10.88-23.58-16.33-39.71-16.33c-16.13,0-29.37,5.44-39.71,16.33c-10.35,10.89-15.52,25.47-15.52,43.74
			c0,18.28,5.17,32.86,15.52,43.74c10.34,10.88,23.58,16.33,39.71,16.33C289.69,619.03,302.92,613.58,313.27,602.7z"/>
		<path class="st0" d="M468.08,656.32c-18.14-9.54-32.32-22.78-42.53-39.71c-10.22-16.93-15.32-36.15-15.32-57.65
			c0-21.5,5.1-40.72,15.32-57.65c10.21-16.93,24.39-30.17,42.53-39.71c18.14-9.54,38.63-14.31,61.48-14.31
			c22.84,0,43.27,4.77,61.28,14.31c18.01,9.54,32.11,22.78,42.33,39.71c10.21,16.93,15.32,36.15,15.32,57.65
			c0,21.51-5.11,40.72-15.32,57.65c-10.22,16.93-24.33,30.17-42.33,39.71c-18.01,9.54-38.44,14.31-61.28,14.31
			C506.71,670.63,486.22,665.86,468.08,656.32z M569.27,602.7c10.34-10.89,15.52-25.46,15.52-43.74c0-18.27-5.18-32.86-15.52-43.74
			c-10.35-10.88-23.59-16.33-39.71-16.33c-16.13,0-29.43,5.44-39.91,16.33c-10.48,10.89-15.72,25.47-15.72,43.74
			c0,18.28,5.24,32.86,15.72,43.74c10.48,10.88,23.79,16.33,39.91,16.33C545.68,619.03,558.92,613.58,569.27,602.7z"/>
		<path class="st0" d="M682.35,450.51h62.89v216.9h-62.89V450.51z"/>
		<path class="st0" d="M935.53,656.92c-6.19,4.57-13.78,8-22.78,10.28c-9.01,2.28-18.48,3.43-28.42,3.43
			c-25.8,0-45.76-6.58-59.87-19.75c-14.11-13.17-21.16-32.52-21.16-58.05v-89.1h-33.46v-48.38h33.46v-52.81h62.89v52.81h54.02v48.38
			h-54.02v88.29c0,9.14,2.35,16.2,7.05,21.17c4.7,4.98,11.35,7.46,19.96,7.46c9.94,0,18.41-2.68,25.4-8.06L935.53,656.92z"/>
	</g>
</g>
<g id="vinicius">
	<g>
		<path class="st0" d="M212.74,371.92l-26.63,62.11h-15l-26.63-62.11h15.12l19.31,46.06l19.89-46.06H212.74z"/>
		<path class="st0" d="M220.18,359.19c-1.78-1.67-2.67-3.74-2.67-6.22c0-2.48,0.89-4.55,2.67-6.22c1.78-1.67,3.99-2.5,6.63-2.5
			c2.64,0,4.84,0.8,6.63,2.38c1.78,1.59,2.68,3.59,2.68,5.99c0,2.56-0.87,4.71-2.62,6.45c-1.74,1.74-3.97,2.62-6.69,2.62
			C224.18,361.69,221.97,360.86,220.18,359.19z M219.49,371.92h14.54v62.11h-14.54V371.92z"/>
		<path class="st0" d="M304.85,378.09c4.73,4.58,7.09,11.36,7.09,20.35v35.59h-14.54V400.3c0-5.43-1.28-9.52-3.84-12.27
			c-2.56-2.75-6.2-4.13-10.93-4.13c-5.35,0-9.58,1.61-12.68,4.83c-3.1,3.22-4.65,7.85-4.65,13.9v31.4h-14.54v-62.11h13.84v8.03
			c2.4-2.87,5.43-5.04,9.07-6.51c3.64-1.47,7.75-2.21,12.33-2.21C293.84,371.23,300.12,373.51,304.85,378.09z"/>
		<path class="st0" d="M328.81,359.19c-1.78-1.67-2.67-3.74-2.67-6.22c0-2.48,0.89-4.55,2.67-6.22c1.78-1.67,3.99-2.5,6.63-2.5
			c2.64,0,4.84,0.8,6.63,2.38c1.78,1.59,2.68,3.59,2.68,5.99c0,2.56-0.87,4.71-2.62,6.45c-1.74,1.74-3.97,2.62-6.69,2.62
			C332.8,361.69,330.59,360.86,328.81,359.19z M328.11,371.92h14.54v62.11h-14.54V371.92z"/>
		<path class="st0" d="M370.56,430.78c-5.12-2.71-9.11-6.49-11.98-11.34c-2.87-4.84-4.3-10.33-4.3-16.46c0-6.12,1.43-11.59,4.3-16.4
			c2.87-4.81,6.84-8.57,11.92-11.28c5.08-2.71,10.87-4.07,17.39-4.07c6.12,0,11.49,1.24,16.11,3.72c4.61,2.48,8.08,6.05,10.41,10.7
			l-11.16,6.51c-1.78-2.87-4.01-5.02-6.69-6.45c-2.67-1.43-5.6-2.15-8.78-2.15c-5.43,0-9.93,1.76-13.49,5.29
			c-3.57,3.53-5.35,8.24-5.35,14.13c0,5.89,1.76,10.6,5.29,14.13c3.53,3.53,8.04,5.29,13.55,5.29c3.18,0,6.11-0.72,8.78-2.15
			c2.68-1.43,4.9-3.59,6.69-6.46l11.16,6.51c-2.4,4.65-5.91,8.24-10.53,10.76c-4.61,2.52-9.94,3.78-15.99,3.78
			C381.46,434.85,375.68,433.49,370.56,430.78z"/>
		<path class="st0" d="M425.34,359.19c-1.78-1.67-2.67-3.74-2.67-6.22c0-2.48,0.89-4.55,2.67-6.22c1.78-1.67,3.99-2.5,6.63-2.5
			c2.64,0,4.84,0.8,6.63,2.38c1.78,1.59,2.68,3.59,2.68,5.99c0,2.56-0.87,4.71-2.62,6.45c-1.74,1.74-3.97,2.62-6.69,2.62
			C429.33,361.69,427.12,360.86,425.34,359.19z M424.64,371.92h14.54v62.11h-14.54V371.92z"/>
		<path class="st0" d="M516.06,371.92v62.11h-13.84v-7.91c-2.33,2.79-5.23,4.94-8.72,6.45c-3.49,1.51-7.25,2.27-11.28,2.27
			c-8.3,0-14.83-2.31-19.6-6.92c-4.77-4.61-7.15-11.46-7.15-20.53v-35.47H470v33.5c0,5.58,1.26,9.75,3.78,12.5
			c2.52,2.75,6.11,4.13,10.76,4.13c5.19,0,9.32-1.61,12.39-4.83c3.06-3.22,4.59-7.85,4.59-13.9v-31.4H516.06z"/>
		<path class="st0" d="M537.23,432.87c-4.81-1.32-8.65-2.98-11.51-5l5.58-11.05c2.79,1.86,6.14,3.35,10.06,4.48
			c3.91,1.13,7.77,1.69,11.57,1.69c8.68,0,13.03-2.29,13.03-6.86c0-2.17-1.1-3.68-3.31-4.54c-2.21-0.85-5.76-1.67-10.64-2.44
			c-5.12-0.77-9.29-1.67-12.5-2.67c-3.22-1.01-6.01-2.77-8.37-5.29c-2.37-2.52-3.55-6.03-3.55-10.52c0-5.89,2.46-10.6,7.39-14.13
			c4.92-3.53,11.57-5.29,19.95-5.29c4.26,0,8.53,0.49,12.79,1.45c4.26,0.97,7.75,2.27,10.47,3.9l-5.58,11.05
			c-5.27-3.1-11.21-4.65-17.79-4.65c-4.27,0-7.5,0.64-9.71,1.92c-2.21,1.28-3.31,2.97-3.31,5.06c0,2.33,1.18,3.97,3.55,4.94
			c2.36,0.97,6.03,1.88,10.99,2.73c4.96,0.78,9.03,1.67,12.21,2.67c3.18,1.01,5.91,2.71,8.2,5.12c2.29,2.4,3.43,5.82,3.43,10.23
			c0,5.82-2.52,10.47-7.56,13.96c-5.04,3.49-11.9,5.23-20.59,5.23C546.96,434.85,542.03,434.19,537.23,432.87z"/>
	</g>
</g>
<g id="ponto">
	<polygon class="st1" points="675.11,366.58 675.11,411.26 713.8,433.59 752.49,411.26 752.49,366.58 713.8,344.24 	"/>
</g>
</svg>
