<?xml version="1.0" standalone="no"?>
<!DOCTYPE svg PUBLIC "-//W3C//DTD SVG 20010904//EN"
 "http://www.w3.org/TR/2001/REC-SVG-20010904/DTD/svg10.dtd">
<svg version="1.0" xmlns="http://www.w3.org/2000/svg"
 width="700.000000pt" height="700.000000pt" viewBox="0 0 700.000000 700.000000"
 preserveAspectRatio="xMidYMid meet">
<metadata>
Created by potrace 1.14, written by Peter Selinger 2001-2017
</metadata>
<g transform="translate(0.000000,700.000000) scale(0.100000,-0.100000)"
fill="#000000" stroke="none">
<path d="M3100 6349 c-245 -143 -452 -262 -460 -266 -8 -4 -71 -40 -139 -80
-67 -40 -124 -73 -126 -73 -2 0 -79 -44 -171 -98 -93 -55 -335 -195 -539 -312
-203 -117 -455 -263 -560 -324 -104 -60 -201 -116 -215 -123 l-25 -13 -2
-1542 c-1 -849 0 -1553 3 -1566 2 -12 8 -22 13 -22 5 0 125 -68 266 -150 142
-83 260 -150 262 -150 2 0 20 -11 41 -23 20 -13 57 -35 82 -49 25 -14 133 -76
240 -138 107 -63 206 -120 220 -127 14 -8 39 -23 55 -33 17 -11 37 -23 45 -27
8 -4 155 -88 325 -186 323 -187 354 -205 408 -236 167 -94 207 -117 237 -136
32 -20 189 -111 283 -164 62 -35 100 -57 155 -90 29 -17 57 -31 62 -31 5 0
107 57 227 127 120 69 290 168 378 218 88 51 205 118 260 150 103 60 141 81
199 114 192 109 342 197 344 204 2 4 7 7 12 7 5 0 107 57 227 126 120 70 234
135 253 146 19 11 51 29 70 40 19 11 136 79 260 150 124 72 250 144 280 162
30 18 85 50 121 71 l66 37 0 1558 c0 1418 -1 1558 -16 1567 -9 5 -36 21 -61
35 -25 14 -139 80 -254 147 -115 66 -211 121 -213 121 -3 0 -17 8 -31 19 -15
10 -52 32 -82 49 -30 16 -122 69 -205 117 -142 83 -229 133 -905 523 -157 91
-375 216 -485 280 -110 63 -253 146 -318 184 -66 37 -124 68 -130 67 -7 -1
-212 -118 -457 -260z"/>
</g>
</svg>
